Grenze-Regular.ufo
<glyph name="exclam" format="2">
  <advance width="261.0"/>
  <unicode hex="0021"/>
  <outline>
    <contour>
      <point x="114.0" y="184.0" type="curve" smooth="yes"/>
      <point x="123.0" y="184.0"/>
      <point x="146.0" y="187.0"/>
      <point x="161.0" y="189.0" type="curve"/>
      <point x="179.0" y="605.0" type="line" smooth="yes"/>
      <point x="179.0" y="609.0"/>
      <point x="161.0" y="624.0"/>
      <point x="158.0" y="624.0" type="curve" smooth="yes"/>
      <point x="153.0" y="624.0"/>
      <point x="108.0" y="615.0"/>
      <point x="82.0" y="610.0" type="curve"/>
      <point x="100.0" y="197.0" type="line" smooth="yes"/>
      <point x="100.0" y="194.0"/>
      <point x="111.0" y="184.0"/>
    </contour>
    <contour>
      <point x="99.0" y="-1.0" type="curve" smooth="yes"/>
      <point x="126.0" y="-1.0"/>
      <point x="151.0" y="2.0"/>
      <point x="178.0" y="5.0" type="curve"/>
      <point x="171.0" y="112.0" type="line"/>
      <point x="87.0" y="112.0" type="line"/>
      <point x="82.0" y="21.0" type="line" smooth="yes"/>
      <point x="82.0" y="17.0"/>
      <point x="95.0" y="-1.0"/>
    </contour>
  </outline>
</glyph>
<glyph name="quotedbl" format="2">
  <advance width="307.0"/>
  <unicode hex="0022"/>
  <outline>
    <contour>
      <point x="56.0" y="489.0" type="line"/>
      <point x="96.0" y="490.0" type="line"/>
      <point x="106.0" y="549.0"/>
      <point x="114.0" y="603.0"/>
      <point x="122.0" y="665.0" type="curve" smooth="yes"/>
      <point x="123.0" y="669.0"/>
      <point x="106.0" y="685.0"/>
      <point x="100.0" y="685.0" type="curve" smooth="yes"/>
      <point x="77.0" y="685.0"/>
      <point x="58.0" y="681.0"/>
      <point x="35.0" y="677.0" type="curve"/>
    </contour>
    <contour>
      <point x="206.0" y="489.0" type="line"/>
      <point x="246.0" y="490.0" type="line"/>
      <point x="256.0" y="549.0"/>
      <point x="264.0" y="604.0"/>
      <point x="272.0" y="665.0" type="curve" smooth="yes"/>
      <point x="273.0" y="669.0"/>
      <point x="256.0" y="685.0"/>
      <point x="250.0" y="685.0" type="curve" smooth="yes"/>
      <point x="227.0" y="685.0"/>
      <point x="208.0" y="681.0"/>
      <point x="185.0" y="677.0" type="curve"/>
    </contour>
  </outline>
</glyph>
<glyph name="numbersign" format="2">
  <advance width="557"/>
  <unicode hex="0023"/>
  <outline>
    <contour>
      <point x="292" y="0" type="line"/>
      <point x="344" y="0" type="line"/>
      <point x="425" y="494" type="line"/>
      <point x="373" y="494" type="line"/>
    </contour>
    <contour>
      <point x="34" y="121" type="line"/>
      <point x="476" y="121" type="line"/>
      <point x="487" y="190" type="line"/>
      <point x="45" y="190" type="line"/>
    </contour>
    <contour>
      <point x="128" y="0" type="line"/>
      <point x="180" y="0" type="line"/>
      <point x="261" y="494" type="line"/>
      <point x="209" y="494" type="line"/>
    </contour>
    <contour>
      <point x="65" y="301" type="line"/>
      <point x="507" y="301" type="line"/>
      <point x="518" y="370" type="line"/>
      <point x="76" y="370" type="line"/>
    </contour>
  </outline>
</glyph>
<glyph name="dollar" format="2">
  <advance width="491.0"/>
  <unicode hex="0024"/>
  <outline>
    <contour>
      <point x="274.0" y="-10.0" type="curve" smooth="yes"/>
      <point x="320.0" y="-10.0"/>
      <point x="405.0" y="55.0"/>
      <point x="431.0" y="107.0" type="curve"/>
      <point x="435.0" y="124.0"/>
      <point x="436.0" y="146.0"/>
      <point x="436.0" y="163.0" type="curve" smooth="yes"/>
      <point x="436.0" y="245.0"/>
      <point x="316.0" y="291.0"/>
      <point x="245.0" y="326.0" type="curve" smooth="yes"/>
      <point x="182.0" y="357.0"/>
      <point x="152.0" y="375.0"/>
      <point x="152.0" y="430.0" type="curve" smooth="yes"/>
      <point x="152.0" y="470.0"/>
      <point x="173.0" y="499.0"/>
      <point x="195.0" y="499.0" type="curve" smooth="yes"/>
      <point x="225.0" y="499.0"/>
      <point x="287.0" y="489.0"/>
      <point x="333.0" y="481.0" type="curve"/>
      <point x="342.0" y="395.0" type="line"/>
      <point x="396.0" y="395.0" type="line"/>
      <point x="407.0" y="546.0" type="line"/>
      <point x="335.0" y="554.0"/>
      <point x="271.0" y="556.0"/>
      <point x="221.0" y="556.0" type="curve" smooth="yes"/>
      <point x="172.0" y="556.0"/>
      <point x="90.0" y="474.0"/>
      <point x="71.0" y="431.0" type="curve"/>
      <point x="67.0" y="413.0"/>
      <point x="66.0" y="398.0"/>
      <point x="66.0" y="381.0" type="curve" smooth="yes"/>
      <point x="66.0" y="328.0"/>
      <point x="98.0" y="287.0"/>
      <point x="194.0" y="243.0" type="curve" smooth="yes"/>
      <point x="290.0" y="199.0"/>
      <point x="337.0" y="175.0"/>
      <point x="337.0" y="138.0" type="curve" smooth="yes"/>
      <point x="337.0" y="117.0"/>
      <point x="319.0" y="53.0"/>
      <point x="291.0" y="53.0" type="curve" smooth="yes"/>
      <point x="247.0" y="53.0"/>
      <point x="189.0" y="59.0"/>
      <point x="137.0" y="70.0" type="curve"/>
      <point x="125.0" y="152.0" type="line"/>
      <point x="70.0" y="152.0" type="line"/>
      <point x="65.0" y="-1.0" type="line"/>
      <point x="123.0" y="-6.0"/>
      <point x="226.0" y="-10.0"/>
    </contour>
    <contour>
      <point x="216.0" y="-103.0" type="line"/>
      <point x="274.0" y="-103.0" type="line"/>
      <point x="274.0" y="20.0" type="line"/>
      <point x="216.0" y="21.0" type="line"/>
    </contour>
    <contour>
      <point x="221.0" y="526.0" type="line"/>
      <point x="279.0" y="526.0" type="line"/>
      <point x="279.0" y="659.0" type="line"/>
      <point x="221.0" y="659.0" type="line"/>
    </contour>
  </outline>
</glyph>
<glyph name="percent" format="2">
  <advance width="928"/>
  <unicode hex="0025"/>
  <outline>
    <contour>
      <point x="283" y="-9" type="line"/>
      <point x="345" y="-9" type="line"/>
      <point x="643" y="611" type="line"/>
      <point x="581" y="611" type="line"/>
    </contour>
    <contour>
      <point x="236" y="280" type="curve" smooth="yes"/>
      <point x="352" y="280"/>
      <point x="384" y="361"/>
      <point x="385" y="436" type="curve"/>
      <point x="385" y="540"/>
      <point x="342" y="591"/>
      <point x="234" y="591" type="curve" smooth="yes"/>
      <point x="117" y="591"/>
      <point x="87" y="512"/>
      <point x="86" y="436" type="curve" smooth="yes"/>
      <point x="85" y="332"/>
      <point x="128" y="280"/>
    </contour>
    <contour>
      <point x="219" y="325" type="curve" smooth="yes"/>
      <point x="176" y="325"/>
      <point x="167" y="352"/>
      <point x="167" y="436" type="curve" smooth="yes"/>
      <point x="167" y="474"/>
      <point x="169" y="498"/>
      <point x="171" y="520" type="curve"/>
      <point x="196" y="536"/>
      <point x="220" y="546"/>
      <point x="249" y="546" type="curve" smooth="yes"/>
      <point x="292" y="546"/>
      <point x="301" y="521"/>
      <point x="301" y="436" type="curve" smooth="yes"/>
      <point x="301" y="397"/>
      <point x="299" y="373"/>
      <point x="297" y="350" type="curve"/>
      <point x="272" y="335"/>
      <point x="247" y="325"/>
    </contour>
    <contour>
      <point x="694" y="11" type="curve" smooth="yes"/>
      <point x="810" y="11"/>
      <point x="842" y="92"/>
      <point x="843" y="167" type="curve"/>
      <point x="843" y="271"/>
      <point x="800" y="322"/>
      <point x="692" y="322" type="curve" smooth="yes"/>
      <point x="575" y="322"/>
      <point x="545" y="243"/>
      <point x="544" y="167" type="curve" smooth="yes"/>
      <point x="543" y="63"/>
      <point x="586" y="11"/>
    </contour>
    <contour>
      <point x="677" y="57" type="curve" smooth="yes"/>
      <point x="634" y="57"/>
      <point x="625" y="84"/>
      <point x="625" y="168" type="curve" smooth="yes"/>
      <point x="625" y="206"/>
      <point x="627" y="230"/>
      <point x="629" y="252" type="curve"/>
      <point x="654" y="268"/>
      <point x="678" y="278"/>
      <point x="707" y="278" type="curve" smooth="yes"/>
      <point x="750" y="278"/>
      <point x="759" y="253"/>
      <point x="759" y="168" type="curve" smooth="yes"/>
      <point x="759" y="129"/>
      <point x="757" y="105"/>
      <point x="755" y="82" type="curve"/>
      <point x="730" y="67"/>
      <point x="705" y="57"/>
    </contour>
  </outline>
</glyph>
<glyph name="quotesingle" format="2">
  <advance width="157.0"/>
  <unicode hex="0027"/>
  <outline>
    <contour>
      <point x="56.0" y="489.0" type="line"/>
      <point x="96.0" y="490.0" type="line"/>
      <point x="106.0" y="549.0"/>
      <point x="114.0" y="603.0"/>
      <point x="122.0" y="665.0" type="curve" smooth="yes"/>
      <point x="123.0" y="669.0"/>
      <point x="106.0" y="685.0"/>
      <point x="100.0" y="685.0" type="curve" smooth="yes"/>
      <point x="77.0" y="685.0"/>
      <point x="58.0" y="681.0"/>
      <point x="35.0" y="677.0" type="curve"/>
    </contour>
  </outline>
</glyph>
<glyph name="parenleft" format="2">
  <advance width="247.0"/>
  <unicode hex="0028"/>
  <outline>
    <contour>
      <point x="186.0" y="-112.0" type="curve"/>
      <point x="217.0" y="-86.0" type="line"/>
      <point x="163.0" y="1.0"/>
      <point x="126.0" y="144.0"/>
      <point x="126.0" y="284.0" type="curve" smooth="yes"/>
      <point x="126.0" y="422.0"/>
      <point x="162.0" y="564.0"/>
      <point x="217.0" y="654.0" type="curve"/>
      <point x="186.0" y="680.0" type="line"/>
      <point x="131.0" y="618.0"/>
      <point x="36.0" y="494.0"/>
      <point x="36.0" y="283.0" type="curve" smooth="yes"/>
      <point x="36.0" y="74.0"/>
      <point x="131.0" y="-50.0"/>
    </contour>
  </outline>
</glyph>
<glyph name="parenright" format="2">
  <advance width="247.0"/>
  <unicode hex="0029"/>
  <outline>
    <contour>
      <point x="61.0" y="-112.0" type="line"/>
      <point x="116.0" y="-50.0"/>
      <point x="211.0" y="74.0"/>
      <point x="211.0" y="285.0" type="curve"/>
      <point x="211.0" y="494.0"/>
      <point x="116.0" y="618.0"/>
      <point x="61.0" y="680.0" type="curve"/>
      <point x="30.0" y="654.0" type="line"/>
      <point x="84.0" y="566.0"/>
      <point x="121.0" y="424.0"/>
      <point x="121.0" y="283.0" type="curve" smooth="yes"/>
      <point x="121.0" y="146.0"/>
      <point x="85.0" y="3.0"/>
      <point x="30.0" y="-86.0" type="curve"/>
    </contour>
  </outline>
</glyph>
<glyph name="asterisk" format="2">
  <advance width="322.0"/>
  <unicode hex="002A"/>
  <outline>
    <contour>
      <point x="145.0" y="383.0" type="line"/>
      <point x="201.0" y="387.0" type="line"/>
      <point x="186.0" y="498.0" type="line"/>
      <point x="266.0" y="435.0" type="line"/>
      <point x="285.0" y="439.0" type="line"/>
      <point x="309.0" y="489.0" type="line"/>
      <point x="205.0" y="532.0" type="line"/>
      <point x="309.0" y="575.0" type="line"/>
      <point x="285.0" y="625.0" type="line"/>
      <point x="266.0" y="629.0" type="line"/>
      <point x="186.0" y="566.0" type="line"/>
      <point x="201.0" y="667.0" type="line"/>
      <point x="188.0" y="681.0" type="line"/>
      <point x="132.0" y="677.0" type="line"/>
      <point x="147.0" y="566.0" type="line"/>
      <point x="67.0" y="629.0" type="line"/>
      <point x="48.0" y="625.0" type="line"/>
      <point x="24.0" y="575.0" type="line"/>
      <point x="127.0" y="532.0" type="line"/>
      <point x="24.0" y="489.0" type="line"/>
      <point x="48.0" y="439.0" type="line"/>
      <point x="67.0" y="435.0" type="line"/>
      <point x="147.0" y="497.0" type="line"/>
      <point x="132.0" y="397.0" type="line"/>
    </contour>
  </outline>
</glyph>
<glyph name="plus" format="2">
  <advance width="629"/>
  <unicode hex="002B"/>
  <outline>
    <contour>
      <point x="277" y="33" type="line"/>
      <point x="351" y="33" type="line"/>
      <point x="351" y="474" type="line"/>
      <point x="277" y="474" type="line"/>
    </contour>
    <contour>
      <point x="100" y="224" type="line"/>
      <point x="529" y="224" type="line"/>
      <point x="529" y="284" type="line"/>
      <point x="100" y="284" type="line"/>
    </contour>
  </outline>
</glyph>
<glyph name="comma" format="2">
  <advance width="218.0"/>
  <unicode hex="002C"/>
  <outline>
    <contour>
      <point x="87.0" y="-124.0" type="line"/>
      <point x="123.0" y="-75.0"/>
      <point x="168.0" y="5.0"/>
      <point x="168.0" y="31.0" type="curve" smooth="yes"/>
      <point x="168.0" y="81.0" type="line" smooth="yes"/>
      <point x="168.0" y="87.0"/>
      <point x="150.0" y="107.0"/>
      <point x="144.0" y="107.0" type="curve" smooth="yes"/>
      <point x="122.0" y="107.0"/>
      <point x="98.0" y="104.0"/>
      <point x="73.0" y="101.0" type="curve"/>
      <point x="70.0" y="14.0" type="line" smooth="yes"/>
      <point x="70.0" y="8.0"/>
      <point x="81.0" y="2.0"/>
      <point x="90.0" y="-4.0" type="curve"/>
      <point x="83.0" y="-27.0"/>
      <point x="61.0" y="-83.0"/>
      <point x="50.0" y="-106.0" type="curve"/>
    </contour>
  </outline>
</glyph>
<glyph name="hyphen" format="2">
  <advance width="328"/>
  <unicode hex="002D"/>
  <outline>
    <contour>
      <point x="40" y="209" type="line"/>
      <point x="288" y="209" type="line"/>
      <point x="288" y="279" type="line"/>
      <point x="40" y="279" type="line"/>
    </contour>
  </outline>
</glyph>
<glyph name="period" format="2">
  <advance width="195.0"/>
  <unicode hex="002E"/>
  <outline>
    <contour>
      <point x="80.0" y="-10.0" type="curve" smooth="yes"/>
      <point x="86.0" y="-10.0"/>
      <point x="116.0" y="-5.0"/>
      <point x="143.0" y="2.0" type="curve"/>
      <point x="149.0" y="85.0" type="line" smooth="yes"/>
      <point x="149.0" y="91.0"/>
      <point x="124.0" y="116.0"/>
      <point x="117.0" y="116.0" type="curve" smooth="yes"/>
      <point x="112.0" y="116.0"/>
      <point x="75.0" y="112.0"/>
      <point x="46.0" y="104.0" type="curve"/>
      <point x="48.0" y="21.0" type="line" smooth="yes"/>
      <point x="48.0" y="13.0"/>
      <point x="72.0" y="-10.0"/>
    </contour>
  </outline>
</glyph>
<glyph name="slash" format="2">
  <advance width="355"/>
  <unicode hex="002F"/>
  <outline>
    <contour>
      <point x="45" y="-118" type="line"/>
      <point x="107" y="-118" type="line"/>
      <point x="310" y="687" type="line"/>
      <point x="248" y="687" type="line"/>
    </contour>
  </outline>
</glyph>
<glyph name="zero" format="2">
  <advance width="482"/>
  <unicode hex="0030"/>
  <outline>
    <contour>
      <point x="243" y="-9" type="curve" smooth="yes"/>
      <point x="390" y="-9"/>
      <point x="436" y="123"/>
      <point x="436" y="233" type="curve" smooth="yes"/>
      <point x="436" y="386"/>
      <point x="375" y="474"/>
      <point x="241" y="474" type="curve" smooth="yes"/>
      <point x="94" y="474"/>
      <point x="46" y="343"/>
      <point x="46" y="233" type="curve" smooth="yes"/>
      <point x="46" y="81"/>
      <point x="108" y="-9"/>
    </contour>
    <contour>
      <point x="224" y="47" type="curve" smooth="yes"/>
      <point x="170" y="47"/>
      <point x="149" y="98"/>
      <point x="149" y="233" type="curve" smooth="yes"/>
      <point x="149" y="296"/>
      <point x="149" y="349"/>
      <point x="159" y="385" type="curve"/>
      <point x="187" y="404"/>
      <point x="221" y="418"/>
      <point x="257" y="418" type="curve" smooth="yes"/>
      <point x="311" y="418"/>
      <point x="333" y="369"/>
      <point x="333" y="233" type="curve" smooth="yes"/>
      <point x="333" y="154"/>
      <point x="331" y="112"/>
      <point x="324" y="80" type="curve"/>
      <point x="293" y="61"/>
      <point x="264" y="47"/>
    </contour>
  </outline>
</glyph>
<glyph name="one" format="2">
  <advance width="375"/>
  <unicode hex="0031"/>
  <outline>
    <contour>
      <point x="57" y="0" type="line"/>
      <point x="337" y="0" type="line"/>
      <point x="337" y="38" type="line"/>
      <point x="249" y="59" type="line"/>
      <point x="249" y="459" type="line"/>
      <point x="207" y="474" type="line"/>
      <point x="52" y="425" type="line"/>
      <point x="52" y="382" type="line"/>
      <point x="159" y="392" type="line"/>
      <point x="159" y="59" type="line"/>
      <point x="57" y="38" type="line"/>
    </contour>
  </outline>
</glyph>
<glyph name="two" format="2">
  <advance width="440.0"/>
  <unicode hex="0032"/>
  <outline>
    <contour>
      <point x="47.0" y="0.0" type="line"/>
      <point x="386.0" y="0.0" type="line"/>
      <point x="382.0" y="145.0" type="line"/>
      <point x="331.0" y="145.0" type="line"/>
      <point x="324.0" y="74.0" type="line"/>
      <point x="168.0" y="74.0" type="line"/>
      <point x="168.0" y="80.0" type="line"/>
      <point x="302.0" y="241.0" type="line" smooth="yes"/>
      <point x="332.0" y="277.0"/>
      <point x="362.0" y="330.0"/>
      <point x="362.0" y="374.0" type="curve" smooth="yes"/>
      <point x="362.0" y="449.0"/>
      <point x="300.0" y="474.0"/>
      <point x="242.0" y="474.0" type="curve" smooth="yes"/>
      <point x="220.0" y="474.0"/>
      <point x="115.0" y="463.0"/>
      <point x="67.0" y="453.0" type="curve"/>
      <point x="74.0" y="314.0" type="line"/>
      <point x="124.0" y="314.0" type="line"/>
      <point x="134.0" y="397.0" type="line"/>
      <point x="149.0" y="401.0"/>
      <point x="223.0" y="416.0"/>
      <point x="235.0" y="416.0" type="curve" smooth="yes"/>
      <point x="249.0" y="416.0"/>
      <point x="259.0" y="384.0"/>
      <point x="259.0" y="360.0" type="curve" smooth="yes"/>
      <point x="259.0" y="326.0"/>
      <point x="247.0" y="304.0"/>
      <point x="208.0" y="256.0" type="curve" smooth="yes"/>
      <point x="39.0" y="50.0" type="line"/>
    </contour>
  </outline>
</glyph>
<glyph name="three" format="2">
  <advance width="388.0"/>
  <unicode hex="0033"/>
  <outline>
    <contour>
      <point x="57.0" y="-92.0" type="line"/>
      <point x="195.0" y="-74.0"/>
      <point x="343.0" y="36.0"/>
      <point x="343.0" y="132.0" type="curve" smooth="yes"/>
      <point x="343.0" y="200.0"/>
      <point x="307.0" y="232.0"/>
      <point x="232.0" y="246.0" type="curve"/>
      <point x="232.0" y="251.0" type="line"/>
      <point x="254.0" y="258.0"/>
      <point x="317.0" y="312.0"/>
      <point x="317.0" y="369.0" type="curve" smooth="yes"/>
      <point x="317.0" y="444.0"/>
      <point x="258.0" y="474.0"/>
      <point x="183.0" y="474.0" type="curve" smooth="yes"/>
      <point x="162.0" y="474.0"/>
      <point x="83.0" y="463.0"/>
      <point x="37.0" y="453.0" type="curve"/>
      <point x="44.0" y="324.0" type="line"/>
      <point x="94.0" y="324.0" type="line"/>
      <point x="104.0" y="397.0" type="line"/>
      <point x="118.0" y="401.0"/>
      <point x="195.0" y="416.0"/>
      <point x="206.0" y="416.0" type="curve" smooth="yes"/>
      <point x="220.0" y="416.0"/>
      <point x="230.0" y="384.0"/>
      <point x="230.0" y="361.0" type="curve" smooth="yes"/>
      <point x="230.0" y="297.0"/>
      <point x="199.0" y="262.0"/>
      <point x="106.0" y="239.0" type="curve"/>
      <point x="106.0" y="197.0" type="line"/>
      <point x="209.0" y="197.0" type="line" smooth="yes"/>
      <point x="228.0" y="197.0"/>
      <point x="246.0" y="166.0"/>
      <point x="246.0" y="122.0" type="curve" smooth="yes"/>
      <point x="246.0" y="39.0"/>
      <point x="146.0" y="-15.0"/>
      <point x="57.0" y="-37.0" type="curve"/>
    </contour>
  </outline>
</glyph>
<glyph name="four" format="2">
  <advance width="471.0"/>
  <unicode hex="0034"/>
  <outline>
    <contour>
      <point x="272.0" y="-90.0" type="line"/>
      <point x="358.0" y="-90.0" type="line"/>
      <point x="358.0" y="43.0" type="line"/>
      <point x="426.0" y="43.0" type="line"/>
      <point x="426.0" y="111.0" type="line"/>
      <point x="358.0" y="111.0" type="line"/>
      <point x="358.0" y="266.0" type="line"/>
      <point x="339.0" y="273.0" type="line"/>
      <point x="272.0" y="248.0" type="line"/>
      <point x="272.0" y="111.0" type="line"/>
      <point x="117.0" y="111.0" type="line"/>
      <point x="115.0" y="119.0" type="line"/>
      <point x="161.0" y="199.0"/>
      <point x="248.0" y="376.0"/>
      <point x="269.0" y="421.0" type="curve"/>
      <point x="269.0" y="442.0" type="line"/>
      <point x="190.0" y="475.0" type="line"/>
      <point x="149.0" y="372.0"/>
      <point x="70.0" y="190.0"/>
      <point x="23.0" y="92.0" type="curve"/>
      <point x="29.0" y="43.0" type="line"/>
      <point x="272.0" y="43.0" type="line"/>
    </contour>
  </outline>
</glyph>
<glyph name="five" format="2">
  <advance width="389.0"/>
  <unicode hex="0035"/>
  <outline>
    <contour>
      <point x="57.0" y="-92.0" type="line"/>
      <point x="192.0" y="-78.0"/>
      <point x="343.0" y="8.0"/>
      <point x="343.0" y="148.0" type="curve" smooth="yes"/>
      <point x="343.0" y="214.0"/>
      <point x="301.0" y="285.0"/>
      <point x="189.0" y="285.0" type="curve" smooth="yes"/>
      <point x="177.0" y="285.0"/>
      <point x="137.0" y="265.0"/>
      <point x="122.0" y="258.0" type="curve"/>
      <point x="133.0" y="391.0" type="line"/>
      <point x="311.0" y="391.0" type="line"/>
      <point x="305.0" y="510.0" type="line"/>
      <point x="257.0" y="510.0" type="line"/>
      <point x="252.0" y="465.0" type="line"/>
      <point x="72.0" y="465.0" type="line"/>
      <point x="49.0" y="211.0" type="line"/>
      <point x="65.0" y="189.0" type="line"/>
      <point x="98.0" y="199.0"/>
      <point x="159.0" y="223.0"/>
      <point x="170.0" y="223.0" type="curve" smooth="yes"/>
      <point x="208.0" y="223.0"/>
      <point x="247.0" y="201.0"/>
      <point x="247.0" y="130.0" type="curve" smooth="yes"/>
      <point x="247.0" y="21.0"/>
      <point x="154.0" y="-11.0"/>
      <point x="57.0" y="-37.0" type="curve"/>
    </contour>
  </outline>
</glyph>
<glyph name="six" format="2">
  <advance width="443.0"/>
  <unicode hex="0036"/>
  <outline>
    <contour>
      <point x="248.0" y="-9.0" type="curve" smooth="yes"/>
      <point x="285.0" y="-9.0"/>
      <point x="365.0" y="54.0"/>
      <point x="389.0" y="89.0" type="curve"/>
      <point x="394.0" y="106.0"/>
      <point x="400.0" y="149.0"/>
      <point x="400.0" y="174.0" type="curve" smooth="yes"/>
      <point x="400.0" y="252.0"/>
      <point x="368.0" y="335.0"/>
      <point x="240.0" y="335.0" type="curve" smooth="yes"/>
      <point x="231.0" y="335.0"/>
      <point x="184.0" y="311.0"/>
      <point x="147.0" y="292.0" type="curve"/>
      <point x="144.0" y="294.0" type="line"/>
      <point x="153.0" y="383.0"/>
      <point x="227.0" y="472.0"/>
      <point x="348.0" y="497.0" type="curve"/>
      <point x="348.0" y="552.0" type="line"/>
      <point x="195.0" y="533.0"/>
      <point x="47.0" y="428.0"/>
      <point x="47.0" y="210.0" type="curve" smooth="yes"/>
      <point x="47.0" y="73.0"/>
      <point x="120.0" y="-9.0"/>
    </contour>
    <contour>
      <point x="264.0" y="49.0" type="curve" smooth="yes"/>
      <point x="147.0" y="49.0"/>
      <point x="137.0" y="112.0"/>
      <point x="143.0" y="247.0" type="curve"/>
      <point x="174.0" y="258.0"/>
      <point x="226.0" y="273.0"/>
      <point x="233.0" y="273.0" type="curve" smooth="yes"/>
      <point x="275.0" y="273.0"/>
      <point x="304.0" y="257.0"/>
      <point x="304.0" y="177.0" type="curve" smooth="yes"/>
      <point x="304.0" y="79.0"/>
      <point x="289.0" y="49.0"/>
    </contour>
  </outline>
</glyph>
<glyph name="seven" format="2">
  <advance width="415.0"/>
  <unicode hex="0037"/>
  <outline>
    <contour>
      <point x="150.0" y="-99.0" type="curve" smooth="yes"/>
      <point x="155.0" y="-99.0"/>
      <point x="164.0" y="-94.0"/>
      <point x="169.0" y="-90.0" type="curve"/>
      <point x="387.0" y="420.0" type="line"/>
      <point x="375.0" y="465.0" type="line"/>
      <point x="41.0" y="465.0" type="line"/>
      <point x="49.0" y="314.0" type="line"/>
      <point x="99.0" y="314.0" type="line"/>
      <point x="108.0" y="391.0" type="line"/>
      <point x="292.0" y="391.0" type="line"/>
      <point x="294.0" y="379.0" type="line"/>
      <point x="72.0" y="-65.0" type="line"/>
      <point x="97.0" y="-78.0"/>
      <point x="141.0" y="-99.0"/>
    </contour>
  </outline>
</glyph>
<glyph name="eight" format="2">
  <advance width="437.0"/>
  <unicode hex="0038"/>
  <outline>
    <contour>
      <point x="230.0" y="-10.0" type="curve" smooth="yes"/>
      <point x="276.0" y="-10.0"/>
      <point x="365.0" y="65.0"/>
      <point x="380.0" y="89.0" type="curve"/>
      <point x="385.0" y="104.0"/>
      <point x="389.0" y="123.0"/>
      <point x="389.0" y="145.0" type="curve" smooth="yes"/>
      <point x="389.0" y="207.0"/>
      <point x="352.0" y="245.0"/>
      <point x="307.0" y="274.0" type="curve"/>
      <point x="307.0" y="279.0" type="line"/>
      <point x="341.0" y="310.0"/>
      <point x="376.0" y="359.0"/>
      <point x="376.0" y="427.0" type="curve" smooth="yes"/>
      <point x="376.0" y="498.0"/>
      <point x="317.0" y="553.0"/>
      <point x="217.0" y="553.0" type="curve" smooth="yes"/>
      <point x="171.0" y="553.0"/>
      <point x="82.0" y="478.0"/>
      <point x="67.0" y="454.0" type="curve"/>
      <point x="67.0" y="454.0"/>
      <point x="61.0" y="439.0"/>
      <point x="61.0" y="402.0" type="curve" smooth="yes"/>
      <point x="61.0" y="348.0"/>
      <point x="90.0" y="313.0"/>
      <point x="129.0" y="286.0" type="curve"/>
      <point x="129.0" y="281.0" type="line"/>
      <point x="73.0" y="238.0"/>
      <point x="48.0" y="197.0"/>
      <point x="48.0" y="145.0" type="curve" smooth="yes"/>
      <point x="48.0" y="88.0"/>
      <point x="88.0" y="-10.0"/>
    </contour>
    <contour>
      <point x="262.0" y="49.0" type="curve" smooth="yes"/>
      <point x="153.0" y="49.0"/>
      <point x="136.0" y="110.0"/>
      <point x="136.0" y="160.0" type="curve" smooth="yes"/>
      <point x="136.0" y="197.0"/>
      <point x="157.0" y="239.0"/>
      <point x="168.0" y="258.0" type="curve"/>
      <point x="231.0" y="222.0"/>
      <point x="297.0" y="192.0"/>
      <point x="297.0" y="128.0" type="curve" smooth="yes"/>
      <point x="297.0" y="80.0"/>
      <point x="273.0" y="49.0"/>
    </contour>
    <contour>
      <point x="266.0" y="302.0" type="curve"/>
      <point x="209.0" y="334.0"/>
      <point x="153.0" y="359.0"/>
      <point x="153.0" y="434.0" type="curve" smooth="yes"/>
      <point x="153.0" y="478.0"/>
      <point x="165.0" y="494.0"/>
      <point x="186.0" y="494.0" type="curve" smooth="yes"/>
      <point x="277.0" y="494.0"/>
      <point x="288.0" y="450.0"/>
      <point x="288.0" y="402.0" type="curve" smooth="yes"/>
      <point x="288.0" y="365.0"/>
      <point x="275.0" y="324.0"/>
    </contour>
  </outline>
</glyph>
<glyph name="nine" format="2">
  <advance width="443.0"/>
  <unicode hex="0039"/>
  <outline>
    <contour>
      <point x="92.0" y="-92.0" type="line"/>
      <point x="248.0" y="-73.0"/>
      <point x="398.0" y="33.0"/>
      <point x="398.0" y="254.0" type="curve" smooth="yes"/>
      <point x="398.0" y="391.0"/>
      <point x="327.0" y="473.0"/>
      <point x="197.0" y="473.0" type="curve" smooth="yes"/>
      <point x="160.0" y="473.0"/>
      <point x="82.0" y="411.0"/>
      <point x="58.0" y="375.0" type="curve"/>
      <point x="51.0" y="358.0"/>
      <point x="45.0" y="324.0"/>
      <point x="45.0" y="299.0" type="curve" smooth="yes"/>
      <point x="45.0" y="221.0"/>
      <point x="87.0" y="129.0"/>
      <point x="215.0" y="129.0" type="curve" smooth="yes"/>
      <point x="224.0" y="129.0"/>
      <point x="265.0" y="153.0"/>
      <point x="298.0" y="172.0" type="curve"/>
      <point x="301.0" y="170.0" type="line"/>
      <point x="292.0" y="79.0"/>
      <point x="216.0" y="-12.0"/>
      <point x="92.0" y="-37.0" type="curve"/>
    </contour>
    <contour>
      <point x="222.0" y="191.0" type="curve" smooth="yes"/>
      <point x="180.0" y="191.0"/>
      <point x="141.0" y="214.0"/>
      <point x="141.0" y="306.0" type="curve" smooth="yes"/>
      <point x="141.0" y="373.0"/>
      <point x="150.0" y="415.0"/>
      <point x="181.0" y="415.0" type="curve" smooth="yes"/>
      <point x="293.0" y="415.0"/>
      <point x="308.0" y="352.0"/>
      <point x="302.0" y="217.0" type="curve"/>
      <point x="271.0" y="206.0"/>
      <point x="229.0" y="191.0"/>
    </contour>
  </outline>
</glyph>
<glyph name="less" format="2">
  <advance width="579.0"/>
  <unicode hex="003C"/>
  <outline>
    <contour>
      <point x="494.0" y="18.0" type="line"/>
      <point x="494.0" y="90.0" type="line"/>
      <point x="130.0" y="238.0" type="line"/>
      <point x="494.0" y="386.0" type="line"/>
      <point x="494.0" y="458.0" type="line"/>
      <point x="85.0" y="283.0" type="line"/>
      <point x="85.0" y="193.0" type="line"/>
    </contour>
  </outline>
</glyph>
<glyph name="equal" format="2">
  <advance width="599"/>
  <unicode hex="003D"/>
  <outline>
    <contour>
      <point x="100" y="298" type="line"/>
      <point x="499" y="298" type="line"/>
      <point x="499" y="358" type="line"/>
      <point x="100" y="358" type="line"/>
    </contour>
    <contour>
      <point x="100" y="118" type="line"/>
      <point x="499" y="118" type="line"/>
      <point x="499" y="178" type="line"/>
      <point x="100" y="178" type="line"/>
    </contour>
  </outline>
</glyph>
<glyph name="greater" format="2">
  <advance width="579.0"/>
  <unicode hex="003E"/>
  <outline>
    <contour>
      <point x="85.0" y="18.0" type="line"/>
      <point x="494.0" y="193.0" type="line"/>
      <point x="494.0" y="283.0" type="line"/>
      <point x="85.0" y="458.0" type="line"/>
      <point x="85.0" y="386.0" type="line"/>
      <point x="449.0" y="238.0" type="line"/>
      <point x="85.0" y="90.0" type="line"/>
    </contour>
  </outline>
</glyph>
<glyph name="question" format="2">
  <advance width="402.0"/>
  <unicode hex="003F"/>
  <outline>
    <contour>
      <point x="138.0" y="161.0" type="curve" smooth="yes"/>
      <point x="147.0" y="161.0"/>
      <point x="170.0" y="164.0"/>
      <point x="185.0" y="166.0" type="curve"/>
      <point x="187.0" y="238.0"/>
      <point x="196.0" y="262.0"/>
      <point x="229.0" y="291.0" type="curve" smooth="yes"/>
      <point x="290.0" y="344.0"/>
      <point x="364.0" y="394.0"/>
      <point x="364.0" y="491.0" type="curve" smooth="yes"/>
      <point x="364.0" y="579.0"/>
      <point x="321.0" y="610.0"/>
      <point x="228.0" y="610.0" type="curve" smooth="yes"/>
      <point x="191.0" y="610.0"/>
      <point x="124.0" y="604.0"/>
      <point x="66.0" y="598.0" type="curve"/>
      <point x="119.0" y="535.0" type="line"/>
      <point x="170.0" y="543.0"/>
      <point x="232.0" y="551.0"/>
      <point x="251.0" y="551.0" type="curve" smooth="yes"/>
      <point x="277.0" y="551.0"/>
      <point x="284.0" y="516.0"/>
      <point x="284.0" y="490.0" type="curve" smooth="yes"/>
      <point x="284.0" y="446.0"/>
      <point x="262.0" y="411.0"/>
      <point x="203.0" y="360.0" type="curve" smooth="yes"/>
      <point x="162.0" y="325.0"/>
      <point x="120.0" y="294.0"/>
      <point x="122.0" y="239.0" type="curve" smooth="yes"/>
      <point x="124.0" y="174.0" type="line" smooth="yes"/>
      <point x="124.0" y="171.0"/>
      <point x="135.0" y="161.0"/>
    </contour>
    <contour>
      <point x="127.0" y="-9.0" type="curve" smooth="yes"/>
      <point x="148.0" y="-9.0"/>
      <point x="170.0" y="-7.0"/>
      <point x="193.0" y="-4.0" type="curve"/>
      <point x="183.0" y="106.0" type="line"/>
      <point x="126.0" y="106.0" type="line"/>
      <point x="111.0" y="13.0" type="line" smooth="yes"/>
      <point x="110.0" y="9.0"/>
      <point x="123.0" y="-9.0"/>
    </contour>
    <contour>
      <point x="76.0" y="450.0" type="line"/>
      <point x="130.0" y="450.0" type="line"/>
      <point x="144.0" y="598.0" type="line"/>
      <point x="66.0" y="598.0" type="line"/>
    </contour>
  </outline>
</glyph>
<glyph name="at" format="2">
  <advance width="795.0"/>
  <unicode hex="0040"/>
  <outline>
    <contour>
      <point x="314.0" y="-166.0" type="curve" smooth="yes"/>
      <point x="368.0" y="-166.0"/>
      <point x="433.0" y="-154.0"/>
      <point x="467.0" y="-146.0" type="curve"/>
      <point x="461.0" y="-104.0" type="line"/>
      <point x="429.0" y="-106.0"/>
      <point x="376.0" y="-108.0"/>
      <point x="370.0" y="-108.0" type="curve" smooth="yes"/>
      <point x="149.0" y="-108.0"/>
      <point x="125.0" y="36.0"/>
      <point x="125.0" y="210.0" type="curve" smooth="yes"/>
      <point x="125.0" y="321.0"/>
      <point x="169.0" y="489.0"/>
      <point x="209.0" y="529.0" type="curve"/>
      <point x="270.0" y="565.0"/>
      <point x="351.0" y="586.0"/>
      <point x="417.0" y="586.0" type="curve" smooth="yes"/>
      <point x="586.0" y="586.0"/>
      <point x="671.0" y="507.0"/>
      <point x="671.0" y="332.0" type="curve" smooth="yes"/>
      <point x="671.0" y="257.0"/>
      <point x="655.0" y="143.0"/>
      <point x="628.0" y="52.0" type="curve"/>
      <point x="559.0" y="62.0" type="line"/>
      <point x="559.0" y="434.0" type="line"/>
      <point x="532.0" y="438.0"/>
      <point x="401.0" y="457.0"/>
      <point x="384.0" y="457.0" type="curve" smooth="yes"/>
      <point x="360.0" y="457.0"/>
      <point x="261.0" y="389.0"/>
      <point x="240.0" y="358.0" type="curve"/>
      <point x="225.0" y="326.0"/>
      <point x="215.0" y="262.0"/>
      <point x="215.0" y="203.0" type="curve" smooth="yes"/>
      <point x="215.0" y="56.0"/>
      <point x="295.0" y="-9.0"/>
      <point x="371.0" y="-9.0" type="curve" smooth="yes"/>
      <point x="378.0" y="-9.0"/>
      <point x="436.0" y="37.0"/>
      <point x="471.0" y="63.0" type="curve"/>
      <point x="471.0" y="24.0" type="line" smooth="yes"/>
      <point x="471.0" y="17.0"/>
      <point x="500.0" y="-9.0"/>
      <point x="505.0" y="-9.0" type="curve" smooth="yes"/>
      <point x="512.0" y="-9.0"/>
      <point x="610.0" y="1.0"/>
      <point x="666.0" y="9.0" type="curve"/>
      <point x="665.748" y="10.41"/>
      <point x="759.0" y="186.669"/>
      <point x="759.0" y="354.0" type="curve" smooth="yes"/>
      <point x="759.0" y="526.0"/>
      <point x="671.0" y="647.0"/>
      <point x="415.0" y="647.0" type="curve" smooth="yes"/>
      <point x="170.0" y="647.0"/>
      <point x="36.0" y="460.0"/>
      <point x="36.0" y="189.0" type="curve" smooth="yes"/>
      <point x="36.0" y="-62.0"/>
      <point x="184.0" y="-166.0"/>
    </contour>
    <contour>
      <point x="377.0" y="65.0" type="curve" smooth="yes"/>
      <point x="357.0" y="65.0"/>
      <point x="311.0" y="104.0"/>
      <point x="311.0" y="216.0" type="curve" smooth="yes"/>
      <point x="311.0" y="344.0"/>
      <point x="328.0" y="388.0"/>
      <point x="351.0" y="397.0" type="curve" smooth="yes"/>
      <point x="362.0" y="401.0"/>
      <point x="426.0" y="390.0"/>
      <point x="468.0" y="380.0" type="curve"/>
      <point x="468.0" y="105.0" type="line"/>
      <point x="468.0" y="105.0"/>
      <point x="387.0" y="65.0"/>
    </contour>
  </outline>
</glyph>
<glyph name="A" format="2">
  <advance width="575.0"/>
  <unicode hex="0041"/>
  <anchor x="285.0" y="0.0" name="bottom"/>
  <anchor x="474.0" y="0.0" name="ogonek"/>
  <anchor x="289.0" y="603.0" name="top"/>
  <outline>
    <contour>
      <point x="6.0" y="0.0" type="line"/>
      <point x="227.0" y="0.0" type="line"/>
      <point x="227.0" y="43.0" type="line"/>
      <point x="156.0" y="63.0" type="line"/>
      <point x="193.0" y="202.0" type="line"/>
      <point x="379.0" y="202.0" type="line"/>
      <point x="418.0" y="63.0" type="line"/>
      <point x="350.0" y="43.0" type="line"/>
      <point x="350.0" y="0.0" type="line"/>
      <point x="579.0" y="0.0" type="line"/>
      <point x="579.0" y="38.0" type="line"/>
      <point x="517.0" y="58.0" type="line"/>
      <point x="354.0" y="602.0" type="line"/>
      <point x="354.0" y="602.0"/>
      <point x="342.0" y="610.0"/>
      <point x="338.0" y="610.0" type="curve" smooth="yes"/>
      <point x="336.0" y="610.0"/>
      <point x="265.0" y="602.0"/>
      <point x="228.0" y="596.0" type="curve"/>
      <point x="68.0" y="58.0" type="line"/>
      <point x="6.0" y="38.0" type="line"/>
    </contour>
    <contour>
      <point x="208.0" y="255.0" type="line"/>
      <point x="280.0" y="523.0" type="line"/>
      <point x="292.0" y="523.0" type="line"/>
      <point x="364.0" y="255.0" type="line"/>
    </contour>
  </outline>
</glyph>
<glyph name="B" format="2">
  <advance width="511.0"/>
  <unicode hex="0042"/>
  <outline>
    <contour>
      <point x="42.0" y="0.0" type="line"/>
      <point x="301.0" y="0.0" type="line" smooth="yes"/>
      <point x="400.0" y="0.0"/>
      <point x="483.0" y="40.0"/>
      <point x="483.0" y="174.0" type="curve" smooth="yes"/>
      <point x="483.0" y="250.0"/>
      <point x="429.0" y="300.0"/>
      <point x="353.0" y="313.0" type="curve"/>
      <point x="353.0" y="319.0" type="line"/>
      <point x="382.0" y="333.0"/>
      <point x="443.0" y="361.0"/>
      <point x="443.0" y="447.0" type="curve" smooth="yes"/>
      <point x="443.0" y="567.0"/>
      <point x="388.0" y="603.0"/>
      <point x="289.0" y="603.0" type="curve" smooth="yes"/>
      <point x="42.0" y="603.0" type="line"/>
      <point x="42.0" y="565.0" type="line"/>
      <point x="104.0" y="545.0" type="line"/>
      <point x="104.0" y="58.0" type="line"/>
      <point x="42.0" y="38.0" type="line"/>
    </contour>
    <contour>
      <point x="329.0" y="47.0" type="curve" smooth="yes"/>
      <point x="197.0" y="61.0" type="line"/>
      <point x="197.0" y="273.0" type="line"/>
      <point x="300.0" y="273.0" type="line" smooth="yes"/>
      <point x="352.0" y="273.0"/>
      <point x="385.0" y="269.0"/>
      <point x="385.0" y="186.0" type="curve" smooth="yes"/>
      <point x="385.0" y="83.0"/>
      <point x="369.0" y="43.0"/>
    </contour>
    <contour>
      <point x="197.0" y="330.0" type="line"/>
      <point x="197.0" y="544.0" type="line"/>
      <point x="302.0" y="556.0" type="line" smooth="yes"/>
      <point x="335.0" y="560.0"/>
      <point x="345.0" y="519.0"/>
      <point x="345.0" y="432.0" type="curve" smooth="yes"/>
      <point x="345.0" y="346.0"/>
      <point x="318.0" y="330.0"/>
      <point x="266.0" y="330.0" type="curve" smooth="yes"/>
    </contour>
  </outline>
</glyph>
<glyph name="C" format="2">
  <advance width="456.0"/>
  <unicode hex="0043"/>
  <anchor x="252.0" y="0.0" name="bottom"/>
  <anchor x="261.0" y="603.0" name="top"/>
  <outline>
    <contour>
      <point x="223.0" y="-9.0" type="curve" smooth="yes"/>
      <point x="238.0" y="-9.0"/>
      <point x="375.0" y="4.0"/>
      <point x="411.0" y="14.0" type="curve"/>
      <point x="410.0" y="191.0" type="line"/>
      <point x="359.0" y="192.0" type="line"/>
      <point x="342.0" y="65.0" type="line"/>
      <point x="270.0" y="65.0" type="line" smooth="yes"/>
      <point x="201.0" y="65.0"/>
      <point x="142.0" y="109.0"/>
      <point x="142.0" y="312.0" type="curve" smooth="yes"/>
      <point x="142.0" y="433.0"/>
      <point x="159.0" y="518.0"/>
      <point x="192.0" y="535.0" type="curve" smooth="yes"/>
      <point x="200.0" y="539.0"/>
      <point x="209.0" y="541.0"/>
      <point x="224.0" y="541.0" type="curve" smooth="yes"/>
      <point x="246.0" y="541.0"/>
      <point x="310.0" y="537.0"/>
      <point x="346.0" y="530.0" type="curve"/>
      <point x="358.0" y="428.0" type="line"/>
      <point x="412.0" y="428.0" type="line"/>
      <point x="424.0" y="601.0" type="line"/>
      <point x="364.0" y="606.0"/>
      <point x="259.0" y="611.0"/>
      <point x="239.0" y="611.0" type="curve" smooth="yes"/>
      <point x="209.0" y="611.0"/>
      <point x="105.0" y="544.0"/>
      <point x="73.0" y="494.0" type="curve"/>
      <point x="55.0" y="449.0"/>
      <point x="43.0" y="369.0"/>
      <point x="43.0" y="277.0" type="curve" smooth="yes"/>
      <point x="43.0" y="78.0"/>
      <point x="134.0" y="-9.0"/>
    </contour>
  </outline>
</glyph>
<glyph name="D" format="2">
  <advance width="574.0"/>
  <unicode hex="0044"/>
  <anchor x="287.0" y="0.0" name="bottom"/>
  <anchor x="162.0" y="308.0" name="center"/>
  <anchor x="287.0" y="603.0" name="top"/>
  <outline>
    <contour>
      <point x="42.0" y="0.0" type="line"/>
      <point x="319.0" y="0.0" type="line" smooth="yes"/>
      <point x="450.0" y="0.0"/>
      <point x="530.0" y="96.0"/>
      <point x="530.0" y="318.0" type="curve" smooth="yes"/>
      <point x="530.0" y="535.0"/>
      <point x="420.0" y="603.0"/>
      <point x="319.0" y="603.0" type="curve" smooth="yes"/>
      <point x="42.0" y="603.0" type="line"/>
      <point x="42.0" y="565.0" type="line"/>
      <point x="104.0" y="545.0" type="line"/>
      <point x="104.0" y="58.0" type="line"/>
      <point x="42.0" y="38.0" type="line"/>
    </contour>
    <contour>
      <point x="338.0" y="47.0" type="curve" smooth="yes"/>
      <point x="197.0" y="63.0" type="line"/>
      <point x="197.0" y="542.0" type="line"/>
      <point x="338.0" y="556.0" type="line" smooth="yes"/>
      <point x="396.0" y="556.0"/>
      <point x="431.0" y="442.0"/>
      <point x="431.0" y="312.0" type="curve" smooth="yes"/>
      <point x="431.0" y="150.0"/>
      <point x="396.0" y="47.0"/>
    </contour>
  </outline>
</glyph>
<glyph name="E" format="2">
  <advance width="475"/>
  <unicode hex="0045"/>
  <anchor x="264" y="0" name="bottom"/>
  <anchor x="416" y="0" name="ogonek"/>
  <anchor x="253" y="603" name="top"/>
  <outline>
    <contour>
      <point x="42" y="0" type="line"/>
      <point x="445" y="0" type="line"/>
      <point x="441" y="179" type="line"/>
      <point x="387" y="179" type="line"/>
      <point x="371" y="49" type="line"/>
      <point x="197" y="65" type="line"/>
      <point x="197" y="285" type="line"/>
      <point x="343" y="290" type="line"/>
      <point x="343" y="337" type="line"/>
      <point x="197" y="342" type="line"/>
      <point x="197" y="540" type="line"/>
      <point x="362" y="554" type="line"/>
      <point x="373" y="428" type="line"/>
      <point x="427" y="428" type="line"/>
      <point x="440" y="603" type="line"/>
      <point x="42" y="603" type="line"/>
      <point x="42" y="565" type="line"/>
      <point x="104" y="545" type="line"/>
      <point x="104" y="58" type="line"/>
      <point x="42" y="38" type="line"/>
    </contour>
  </outline>
</glyph>
<glyph name="F" format="2">
  <advance width="443.0"/>
  <unicode hex="0046"/>
  <outline>
    <contour>
      <point x="42.0" y="0.0" type="line"/>
      <point x="297.0" y="0.0" type="line"/>
      <point x="297.0" y="43.0" type="line"/>
      <point x="197.0" y="65.0" type="line"/>
      <point x="197.0" y="268.0" type="line"/>
      <point x="336.0" y="273.0" type="line"/>
      <point x="336.0" y="320.0" type="line"/>
      <point x="197.0" y="325.0" type="line"/>
      <point x="197.0" y="540.0" type="line"/>
      <point x="343.0" y="554.0" type="line"/>
      <point x="354.0" y="428.0" type="line"/>
      <point x="408.0" y="428.0" type="line"/>
      <point x="421.0" y="603.0" type="line"/>
      <point x="42.0" y="603.0" type="line"/>
      <point x="42.0" y="565.0" type="line"/>
      <point x="104.0" y="545.0" type="line"/>
      <point x="104.0" y="58.0" type="line"/>
      <point x="42.0" y="38.0" type="line"/>
    </contour>
  </outline>
</glyph>
<glyph name="G" format="2">
  <advance width="534"/>
  <unicode hex="0047"/>
  <anchor x="284" y="0" name="bottom"/>
  <anchor x="284" y="603" name="top"/>
  <outline>
    <contour>
      <point x="256" y="-9" type="curve" smooth="yes"/>
      <point x="276" y="-9"/>
      <point x="425" y="38"/>
      <point x="455" y="59" type="curve"/>
      <point x="455" y="239" type="line"/>
      <point x="507" y="252" type="line"/>
      <point x="507" y="291" type="line"/>
      <point x="276" y="291" type="line"/>
      <point x="276" y="245" type="line"/>
      <point x="369" y="228" type="line"/>
      <point x="369" y="69" type="line"/>
      <point x="260" y="59" type="line"/>
      <point x="195" y="59"/>
      <point x="142" y="109"/>
      <point x="142" y="312" type="curve" smooth="yes"/>
      <point x="142" y="433"/>
      <point x="159" y="518"/>
      <point x="192" y="535" type="curve" smooth="yes"/>
      <point x="200" y="539"/>
      <point x="209" y="541"/>
      <point x="224" y="541" type="curve" smooth="yes"/>
      <point x="246" y="541"/>
      <point x="329" y="534"/>
      <point x="366" y="527" type="curve"/>
      <point x="378" y="428" type="line"/>
      <point x="432" y="428" type="line"/>
      <point x="444" y="599" type="line"/>
      <point x="384" y="604"/>
      <point x="259" y="611"/>
      <point x="239" y="611" type="curve" smooth="yes"/>
      <point x="209" y="611"/>
      <point x="105" y="544"/>
      <point x="73" y="494" type="curve"/>
      <point x="55" y="449"/>
      <point x="43" y="369"/>
      <point x="43" y="277" type="curve" smooth="yes"/>
      <point x="43" y="83"/>
      <point x="137" y="-9"/>
    </contour>
  </outline>
</glyph>
<glyph name="H" format="2">
  <advance width="621.0"/>
  <unicode hex="0048"/>
  <anchor x="308.0" y="0.0" name="bottom"/>
  <anchor x="310.0" y="448.0" name="center"/>
  <anchor x="310.0" y="603.0" name="top"/>
  <outline>
    <contour>
      <point x="42.0" y="0.0" type="line"/>
      <point x="263.0" y="0.0" type="line"/>
      <point x="263.0" y="43.0" type="line"/>
      <point x="197.0" y="63.0" type="line"/>
      <point x="197.0" y="284.0" type="line"/>
      <point x="424.0" y="284.0" type="line"/>
      <point x="424.0" y="63.0" type="line"/>
      <point x="358.0" y="43.0" type="line"/>
      <point x="358.0" y="0.0" type="line"/>
      <point x="579.0" y="0.0" type="line"/>
      <point x="579.0" y="38.0" type="line"/>
      <point x="517.0" y="58.0" type="line"/>
      <point x="517.0" y="545.0" type="line"/>
      <point x="579.0" y="565.0" type="line"/>
      <point x="579.0" y="603.0" type="line"/>
      <point x="358.0" y="603.0" type="line"/>
      <point x="358.0" y="560.0" type="line"/>
      <point x="424.0" y="540.0" type="line"/>
      <point x="424.0" y="337.0" type="line"/>
      <point x="197.0" y="337.0" type="line"/>
      <point x="197.0" y="540.0" type="line"/>
      <point x="263.0" y="560.0" type="line"/>
      <point x="263.0" y="603.0" type="line"/>
      <point x="42.0" y="603.0" type="line"/>
      <point x="42.0" y="565.0" type="line"/>
      <point x="104.0" y="545.0" type="line"/>
      <point x="104.0" y="58.0" type="line"/>
      <point x="42.0" y="38.0" type="line"/>
    </contour>
  </outline>
</glyph>
<glyph name="I" format="2">
  <advance width="306"/>
  <unicode hex="0049"/>
  <anchor x="152" y="0" name="bottom"/>
  <anchor x="234" y="0" name="ogonek"/>
  <anchor x="154" y="603" name="top"/>
  <outline>
    <contour>
      <point x="43" y="0" type="line"/>
      <point x="264" y="0" type="line"/>
      <point x="264" y="43" type="line"/>
      <point x="198" y="63" type="line"/>
      <point x="198" y="540" type="line"/>
      <point x="264" y="560" type="line"/>
      <point x="264" y="603" type="line"/>
      <point x="42" y="603" type="line"/>
      <point x="42" y="565" type="line"/>
      <point x="105" y="545" type="line"/>
      <point x="105" y="58" type="line"/>
      <point x="43" y="38" type="line"/>
    </contour>
  </outline>
</glyph>
<glyph name="J" format="2">
  <advance width="301"/>
  <unicode hex="004A"/>
  <anchor x="151" y="603" name="top"/>
  <outline>
    <contour>
      <point x="62" y="-123" type="curve" smooth="yes"/>
      <point x="93" y="-123"/>
      <point x="197" y="-24"/>
      <point x="197" y="38" type="curve" smooth="yes"/>
      <point x="197" y="545" type="line"/>
      <point x="262" y="565" type="line"/>
      <point x="262" y="603" type="line"/>
      <point x="39" y="603" type="line"/>
      <point x="39" y="565" type="line"/>
      <point x="104" y="545" type="line"/>
      <point x="104" y="70" type="line" smooth="yes"/>
      <point x="104" y="35"/>
      <point x="102" y="-43"/>
      <point x="72" y="-49" type="curve" smooth="yes"/>
      <point x="57" y="-52"/>
      <point x="-10" y="-52"/>
      <point x="-38" y="-52" type="curve"/>
      <point x="-38" y="-99" type="line"/>
      <point x="-2" y="-108"/>
      <point x="46" y="-123"/>
    </contour>
  </outline>
</glyph>
<glyph name="K" format="2">
  <advance width="538"/>
  <unicode hex="004B"/>
  <anchor x="303" y="0" name="bottom"/>
  <outline>
    <contour>
      <point x="427" y="0" type="curve"/>
      <point x="562" y="0" type="line"/>
      <point x="562" y="42" type="line"/>
      <point x="512" y="58" type="line"/>
      <point x="469" y="106"/>
      <point x="356" y="257"/>
      <point x="311" y="320" type="curve"/>
      <point x="474" y="545" type="line"/>
      <point x="536" y="565" type="line"/>
      <point x="536" y="603" type="line"/>
      <point x="315" y="603" type="line"/>
      <point x="315" y="560" type="line"/>
      <point x="380" y="540" type="line"/>
      <point x="227" y="320" type="line"/>
      <point x="227" y="292" type="line"/>
      <point x="274" y="219"/>
      <point x="385" y="63"/>
    </contour>
    <contour>
      <point x="42" y="0" type="line"/>
      <point x="263" y="0" type="line"/>
      <point x="263" y="43" type="line"/>
      <point x="197" y="63" type="line"/>
      <point x="197" y="540" type="line"/>
      <point x="263" y="560" type="line"/>
      <point x="263" y="603" type="line"/>
      <point x="42" y="603" type="line"/>
      <point x="42" y="565" type="line"/>
      <point x="104" y="545" type="line"/>
      <point x="104" y="58" type="line"/>
      <point x="42" y="38" type="line"/>
    </contour>
  </outline>
</glyph>
<glyph name="L" format="2">
  <advance width="460.0"/>
  <unicode hex="004C"/>
  <anchor x="256.0" y="0.0" name="bottom"/>
  <anchor x="197.0" y="298.0" name="center"/>
  <anchor x="150.0" y="603.0" name="top"/>
  <anchor x="355.0" y="448.0" name="topright"/>
  <outline>
    <contour>
      <point x="42.0" y="0.0" type="line"/>
      <point x="452.0" y="0.0" type="line"/>
      <point x="448.0" y="179.0" type="line"/>
      <point x="394.0" y="179.0" type="line"/>
      <point x="378.0" y="49.0" type="line"/>
      <point x="197.0" y="65.0" type="line"/>
      <point x="197.0" y="540.0" type="line"/>
      <point x="273.0" y="560.0" type="line"/>
      <point x="273.0" y="603.0" type="line"/>
      <point x="42.0" y="603.0" type="line"/>
      <point x="42.0" y="565.0" type="line"/>
      <point x="104.0" y="545.0" type="line"/>
      <point x="104.0" y="58.0" type="line"/>
      <point x="42.0" y="38.0" type="line"/>
    </contour>
  </outline>
</glyph>
<glyph name="M" format="2">
  <advance width="789"/>
  <unicode hex="004D"/>
  <outline>
    <contour>
      <point x="42" y="0" type="line"/>
      <point x="255" y="0" type="line"/>
      <point x="255" y="43" type="line"/>
      <point x="189" y="63" type="line"/>
      <point x="197" y="491" type="line"/>
      <point x="204" y="491" type="line"/>
      <point x="220" y="430"/>
      <point x="246" y="334"/>
      <point x="258" y="295" type="curve" smooth="yes"/>
      <point x="334" y="42" type="line"/>
      <point x="339" y="39"/>
      <point x="347" y="34"/>
      <point x="350" y="34" type="curve" smooth="yes"/>
      <point x="352" y="34"/>
      <point x="413" y="42"/>
      <point x="451" y="48" type="curve"/>
      <point x="528" y="301" type="line" smooth="yes"/>
      <point x="543" y="348"/>
      <point x="567" y="437"/>
      <point x="581" y="491" type="curve"/>
      <point x="588" y="491" type="line"/>
      <point x="596" y="63" type="line"/>
      <point x="530" y="43" type="line"/>
      <point x="530" y="0" type="line"/>
      <point x="751" y="0" type="line"/>
      <point x="751" y="38" type="line"/>
      <point x="689" y="58" type="line"/>
      <point x="670" y="545" type="line"/>
      <point x="732" y="565" type="line"/>
      <point x="732" y="603" type="line"/>
      <point x="537" y="603" type="line"/>
      <point x="402" y="124" type="line"/>
      <point x="390" y="124" type="line"/>
      <point x="254" y="603" type="line"/>
      <point x="60" y="603" type="line"/>
      <point x="60" y="565" type="line"/>
      <point x="122" y="545" type="line"/>
      <point x="104" y="58" type="line"/>
      <point x="42" y="38" type="line"/>
    </contour>
  </outline>
</glyph>
<glyph name="N" format="2">
  <advance width="597"/>
  <unicode hex="004E"/>
  <anchor x="303" y="0" name="bottom"/>
  <anchor x="301" y="603" name="top"/>
  <outline>
    <contour>
      <point x="391" y="-7" type="curve" smooth="yes"/>
      <point x="393" y="-7"/>
      <point x="471" y="1"/>
      <point x="508" y="7" type="curve"/>
      <point x="508" y="545" type="line"/>
      <point x="570" y="565" type="line"/>
      <point x="570" y="603" type="line"/>
      <point x="357" y="603" type="line"/>
      <point x="357" y="560" type="line"/>
      <point x="423" y="540" type="line"/>
      <point x="423" y="505" type="line"/>
      <point x="433" y="87" type="line"/>
      <point x="425" y="87" type="line"/>
      <point x="404" y="150"/>
      <point x="373" y="242"/>
      <point x="363" y="268" type="curve" smooth="yes"/>
      <point x="226" y="603" type="line"/>
      <point x="42" y="603" type="line"/>
      <point x="42" y="565" type="line"/>
      <point x="104" y="545" type="line"/>
      <point x="104" y="58" type="line"/>
      <point x="42" y="38" type="line"/>
      <point x="42" y="0" type="line"/>
      <point x="255" y="0" type="line"/>
      <point x="255" y="43" type="line"/>
      <point x="189" y="63" type="line"/>
      <point x="189" y="99" type="line"/>
      <point x="179" y="486" type="line"/>
      <point x="186" y="486" type="line"/>
      <point x="208" y="426"/>
      <point x="242" y="333"/>
      <point x="257" y="295" type="curve" smooth="yes"/>
      <point x="375" y="1" type="line"/>
      <point x="380" y="-2"/>
      <point x="388" y="-7"/>
    </contour>
  </outline>
</glyph>
<glyph name="O" format="2">
  <advance width="548.0"/>
  <unicode hex="004F"/>
  <anchor x="275.0" y="0.0" name="bottom"/>
  <anchor x="268.0" y="287.0" name="center"/>
  <anchor x="311.0" y="0.0" name="ogonek"/>
  <anchor x="270.0" y="603.0" name="top"/>
  <anchor x="321.0" y="603.0" name="topright"/>
  <outline>
    <contour>
      <point x="309.0" y="-9.0" type="curve" smooth="yes"/>
      <point x="339.0" y="-9.0"/>
      <point x="446.0" y="62.0"/>
      <point x="480.0" y="108.0" type="curve"/>
      <point x="492.0" y="153.0"/>
      <point x="505.0" y="226.0"/>
      <point x="505.0" y="318.0" type="curve" smooth="yes"/>
      <point x="505.0" y="524.0"/>
      <point x="415.0" y="611.0"/>
      <point x="239.0" y="611.0" type="curve" smooth="yes"/>
      <point x="208.0" y="611.0"/>
      <point x="105.0" y="544.0"/>
      <point x="73.0" y="494.0" type="curve"/>
      <point x="55.0" y="449.0"/>
      <point x="43.0" y="375.0"/>
      <point x="43.0" y="283.0" type="curve" smooth="yes"/>
      <point x="43.0" y="79.0"/>
      <point x="133.0" y="-9.0"/>
    </contour>
    <contour>
      <point x="301.0" y="51.0" type="curve" smooth="yes"/>
      <point x="180.0" y="51.0"/>
      <point x="142.0" y="111.0"/>
      <point x="142.0" y="303.0" type="curve" smooth="yes"/>
      <point x="142.0" y="436.0"/>
      <point x="159.0" y="520.0"/>
      <point x="192.0" y="537.0" type="curve" smooth="yes"/>
      <point x="211.0" y="547.0"/>
      <point x="244.0" y="549.0"/>
      <point x="265.0" y="549.0" type="curve" smooth="yes"/>
      <point x="375.0" y="549.0"/>
      <point x="406.0" y="457.0"/>
      <point x="406.0" y="300.0" type="curve" smooth="yes"/>
      <point x="406.0" y="198.0"/>
      <point x="397.0" y="138.0"/>
      <point x="387.0" y="94.0" type="curve"/>
      <point x="382.0" y="86.0"/>
      <point x="317.0" y="51.0"/>
    </contour>
  </outline>
</glyph>
<glyph name="P" format="2">
  <advance width="503.0"/>
  <unicode hex="0050"/>
  <outline>
    <contour>
      <point x="42.0" y="0.0" type="line"/>
      <point x="282.0" y="0.0" type="line"/>
      <point x="282.0" y="43.0" type="line"/>
      <point x="197.0" y="63.0" type="line"/>
      <point x="197.0" y="215.0" type="line"/>
      <point x="275.0" y="215.0" type="line"/>
      <point x="374.0" y="215.0"/>
      <point x="465.0" y="270.0"/>
      <point x="465.0" y="429.0" type="curve" smooth="yes"/>
      <point x="465.0" y="557.0"/>
      <point x="403.0" y="603.0"/>
      <point x="304.0" y="603.0" type="curve" smooth="yes"/>
      <point x="42.0" y="603.0" type="line"/>
      <point x="42.0" y="565.0" type="line"/>
      <point x="104.0" y="545.0" type="line"/>
      <point x="104.0" y="58.0" type="line"/>
      <point x="42.0" y="38.0" type="line"/>
    </contour>
    <contour>
      <point x="197.0" y="272.0" type="line"/>
      <point x="197.0" y="542.0" type="line"/>
      <point x="310.0" y="552.0" type="line"/>
      <point x="348.0" y="552.0"/>
      <point x="367.0" y="494.0"/>
      <point x="367.0" y="396.0" type="curve" smooth="yes"/>
      <point x="367.0" y="277.0"/>
      <point x="339.0" y="272.0"/>
      <point x="287.0" y="272.0" type="curve" smooth="yes"/>
    </contour>
  </outline>
</glyph>
<glyph name="Q" format="2">
  <advance width="550"/>
  <unicode hex="0051"/>
  <outline>
    <contour>
      <point x="309" y="-9" type="curve" smooth="yes"/>
      <point x="339" y="-9"/>
      <point x="446" y="62"/>
      <point x="480" y="108" type="curve"/>
      <point x="492" y="153"/>
      <point x="505" y="226"/>
      <point x="505" y="318" type="curve" smooth="yes"/>
      <point x="505" y="524"/>
      <point x="415" y="611"/>
      <point x="239" y="611" type="curve" smooth="yes"/>
      <point x="208" y="611"/>
      <point x="105" y="544"/>
      <point x="73" y="494" type="curve"/>
      <point x="55" y="449"/>
      <point x="43" y="375"/>
      <point x="43" y="283" type="curve" smooth="yes"/>
      <point x="43" y="79"/>
      <point x="133" y="-9"/>
    </contour>
    <contour>
      <point x="437" y="-118" type="line"/>
      <point x="483" y="-118" type="line"/>
      <point x="507" y="-62" type="line"/>
      <point x="305" y="10" type="line"/>
      <point x="245" y="-4" type="line"/>
    </contour>
    <contour>
      <point x="301" y="51" type="curve" smooth="yes"/>
      <point x="180" y="51"/>
      <point x="142" y="111"/>
      <point x="142" y="303" type="curve" smooth="yes"/>
      <point x="142" y="436"/>
      <point x="159" y="520"/>
      <point x="192" y="537" type="curve" smooth="yes"/>
      <point x="211" y="547"/>
      <point x="244" y="549"/>
      <point x="265" y="549" type="curve" smooth="yes"/>
      <point x="375" y="549"/>
      <point x="406" y="457"/>
      <point x="406" y="300" type="curve" smooth="yes"/>
      <point x="406" y="198"/>
      <point x="397" y="138"/>
      <point x="387" y="94" type="curve"/>
      <point x="382" y="86"/>
      <point x="317" y="51"/>
    </contour>
  </outline>
</glyph>
<glyph name="R" format="2">
  <advance width="527"/>
  <unicode hex="0052"/>
  <anchor x="272" y="0" name="bottom"/>
  <anchor x="254" y="603" name="top"/>
  <outline>
    <contour>
      <point x="42" y="0" type="line"/>
      <point x="264" y="0" type="line"/>
      <point x="264" y="46" type="line"/>
      <point x="197" y="63" type="line"/>
      <point x="197" y="260" type="line"/>
      <point x="252" y="260" type="line"/>
      <point x="293" y="172"/>
      <point x="363" y="52"/>
      <point x="387" y="0" type="curve"/>
      <point x="519" y="0" type="line"/>
      <point x="519" y="42" type="line"/>
      <point x="465" y="57" type="line"/>
      <point x="437" y="100"/>
      <point x="381" y="191"/>
      <point x="338" y="263" type="curve"/>
      <point x="338" y="269" type="line"/>
      <point x="403" y="284"/>
      <point x="455" y="337"/>
      <point x="455" y="439" type="curve" smooth="yes"/>
      <point x="455" y="564"/>
      <point x="400" y="603"/>
      <point x="294" y="603" type="curve" smooth="yes"/>
      <point x="42" y="603" type="line"/>
      <point x="42" y="565" type="line"/>
      <point x="104" y="545" type="line"/>
      <point x="104" y="58" type="line"/>
      <point x="42" y="38" type="line"/>
    </contour>
    <contour>
      <point x="197" y="317" type="line"/>
      <point x="197" y="542" type="line"/>
      <point x="300" y="552" type="line" smooth="yes"/>
      <point x="338" y="552"/>
      <point x="357" y="513"/>
      <point x="357" y="419" type="curve" smooth="yes"/>
      <point x="357" y="333"/>
      <point x="330" y="317"/>
      <point x="278" y="317" type="curve" smooth="yes"/>
    </contour>
  </outline>
</glyph>
<glyph name="S" format="2">
  <advance width="441"/>
  <unicode hex="0053"/>
  <anchor x="216" y="0" name="bottom"/>
  <anchor x="233" y="603" name="top"/>
  <outline>
    <contour>
      <point x="239" y="-9" type="curve" smooth="yes"/>
      <point x="278" y="-9"/>
      <point x="377" y="62"/>
      <point x="403" y="114" type="curve"/>
      <point x="406" y="126"/>
      <point x="409" y="146"/>
      <point x="409" y="163" type="curve" smooth="yes"/>
      <point x="409" y="259"/>
      <point x="326" y="302"/>
      <point x="252" y="344" type="curve" smooth="yes"/>
      <point x="193" y="377"/>
      <point x="141" y="410"/>
      <point x="141" y="469" type="curve" smooth="yes"/>
      <point x="141" y="522"/>
      <point x="156" y="541"/>
      <point x="172" y="541" type="curve" smooth="yes"/>
      <point x="203" y="541"/>
      <point x="275" y="531"/>
      <point x="313" y="524" type="curve"/>
      <point x="328" y="422" type="line"/>
      <point x="384" y="422" type="line"/>
      <point x="391" y="595" type="line"/>
      <point x="331" y="601"/>
      <point x="242" y="611"/>
      <point x="222" y="611" type="curve" smooth="yes"/>
      <point x="187" y="611"/>
      <point x="81" y="533"/>
      <point x="57" y="488" type="curve"/>
      <point x="53" y="469"/>
      <point x="52" y="452"/>
      <point x="52" y="436" type="curve" smooth="yes"/>
      <point x="52" y="345"/>
      <point x="128" y="301"/>
      <point x="198" y="261" type="curve" smooth="yes"/>
      <point x="258" y="227"/>
      <point x="314" y="195"/>
      <point x="314" y="137" type="curve" smooth="yes"/>
      <point x="314" y="101"/>
      <point x="283" y="57"/>
      <point x="272" y="57" type="curve" smooth="yes"/>
      <point x="231" y="57"/>
      <point x="175" y="65"/>
      <point x="123" y="72" type="curve"/>
      <point x="107" y="184" type="line"/>
      <point x="51" y="184" type="line"/>
      <point x="44" y="1" type="line"/>
      <point x="104" y="-4"/>
      <point x="189" y="-9"/>
    </contour>
  </outline>
</glyph>
<glyph name="T" format="2">
  <advance width="479.0"/>
  <unicode hex="0054"/>
  <anchor x="240.0" y="0.0" name="bottom"/>
  <anchor x="242.0" y="304.0" name="center"/>
  <anchor x="239.0" y="603.0" name="top"/>
  <outline>
    <contour>
      <point x="131.0" y="0.0" type="line"/>
      <point x="352.0" y="0.0" type="line"/>
      <point x="352.0" y="43.0" type="line"/>
      <point x="286.0" y="63.0" type="line"/>
      <point x="286.0" y="545.0" type="line"/>
      <point x="394.0" y="539.0" type="line"/>
      <point x="404.0" y="415.0" type="line"/>
      <point x="458.0" y="415.0" type="line"/>
      <point x="471.0" y="603.0" type="line"/>
      <point x="8.0" y="603.0" type="line"/>
      <point x="21.0" y="415.0" type="line"/>
      <point x="74.0" y="415.0" type="line"/>
      <point x="84.0" y="539.0" type="line"/>
      <point x="193.0" y="545.0" type="line"/>
      <point x="193.0" y="58.0" type="line"/>
      <point x="131.0" y="38.0" type="line"/>
    </contour>
  </outline>
</glyph>
<glyph name="U" format="2">
  <advance width="597.0"/>
  <unicode hex="0055"/>
  <anchor x="318.0" y="0.0" name="bottom"/>
  <anchor x="526.0" y="0.0" name="ogonek"/>
  <anchor x="295.0" y="603.0" name="top"/>
  <outline>
    <contour>
      <point x="247.0" y="-8.0" type="curve" smooth="yes"/>
      <point x="259.0" y="-8.0"/>
      <point x="351.0" y="36.0"/>
      <point x="402.0" y="59.0" type="curve"/>
      <point x="423.0" y="0.0" type="line"/>
      <point x="555.0" y="0.0" type="line"/>
      <point x="555.0" y="38.0" type="line"/>
      <point x="493.0" y="58.0" type="line"/>
      <point x="493.0" y="545.0" type="line"/>
      <point x="555.0" y="565.0" type="line"/>
      <point x="555.0" y="603.0" type="line"/>
      <point x="334.0" y="603.0" type="line"/>
      <point x="334.0" y="560.0" type="line"/>
      <point x="400.0" y="540.0" type="line"/>
      <point x="400.0" y="108.0" type="line"/>
      <point x="363.0" y="97.0"/>
      <point x="277.0" y="73.0"/>
      <point x="251.0" y="73.0" type="curve" smooth="yes"/>
      <point x="222.0" y="73.0"/>
      <point x="191.0" y="86.0"/>
      <point x="191.0" y="191.0" type="curve" smooth="yes"/>
      <point x="191.0" y="540.0" type="line"/>
      <point x="257.0" y="560.0" type="line"/>
      <point x="257.0" y="603.0" type="line"/>
      <point x="36.0" y="603.0" type="line"/>
      <point x="36.0" y="565.0" type="line"/>
      <point x="98.0" y="545.0" type="line"/>
      <point x="98.0" y="170.0" type="line" smooth="yes"/>
      <point x="98.0" y="50.0"/>
      <point x="148.0" y="-8.0"/>
    </contour>
  </outline>
</glyph>
<glyph name="V" format="2">
  <advance width="552"/>
  <unicode hex="0056"/>
  <outline>
    <contour>
      <point x="230" y="-7" type="curve" smooth="yes"/>
      <point x="232" y="-7"/>
      <point x="303" y="1"/>
      <point x="340" y="7" type="curve"/>
      <point x="366" y="105"/>
      <point x="461" y="474"/>
      <point x="480" y="545" type="curve"/>
      <point x="542" y="565" type="line"/>
      <point x="542" y="603" type="line"/>
      <point x="321" y="603" type="line"/>
      <point x="321" y="560" type="line"/>
      <point x="393" y="540" type="line"/>
      <point x="370" y="433"/>
      <point x="302" y="159"/>
      <point x="287" y="92" type="curve"/>
      <point x="276" y="92" type="line"/>
      <point x="268" y="133"/>
      <point x="254" y="199"/>
      <point x="247" y="231" type="curve"/>
      <point x="170" y="540" type="line"/>
      <point x="239" y="560" type="line"/>
      <point x="239" y="603" type="line"/>
      <point x="10" y="603" type="line"/>
      <point x="10" y="565" type="line"/>
      <point x="72" y="545" type="line"/>
      <point x="214" y="1" type="line"/>
      <point x="219" y="-2"/>
      <point x="227" y="-7"/>
    </contour>
  </outline>
</glyph>
<glyph name="W" format="2">
  <advance width="815.0"/>
  <unicode hex="0057"/>
  <anchor x="414.0" y="603.0" name="top"/>
  <outline>
    <contour>
      <point x="220.0" y="-7.0" type="curve" smooth="yes"/>
      <point x="222.0" y="-7.0"/>
      <point x="293.0" y="1.0"/>
      <point x="330.0" y="7.0" type="curve"/>
      <point x="407.0" y="292.0" type="line"/>
      <point x="416.0" y="292.0" type="line"/>
      <point x="481.0" y="1.0" type="line"/>
      <point x="481.0" y="1.0"/>
      <point x="493.0" y="-7.0"/>
      <point x="497.0" y="-7.0" type="curve" smooth="yes"/>
      <point x="499.0" y="-7.0"/>
      <point x="570.0" y="1.0"/>
      <point x="607.0" y="7.0" type="curve"/>
      <point x="633.0" y="105.0"/>
      <point x="728.0" y="474.0"/>
      <point x="747.0" y="545.0" type="curve"/>
      <point x="809.0" y="565.0" type="line"/>
      <point x="809.0" y="603.0" type="line"/>
      <point x="588.0" y="603.0" type="line"/>
      <point x="588.0" y="560.0" type="line"/>
      <point x="660.0" y="540.0" type="line"/>
      <point x="637.0" y="433.0"/>
      <point x="569.0" y="159.0"/>
      <point x="554.0" y="92.0" type="curve"/>
      <point x="543.0" y="92.0" type="line"/>
      <point x="543.0" y="92.0"/>
      <point x="524.0" y="187.0"/>
      <point x="514.0" y="231.0" type="curve"/>
      <point x="451.0" y="540.0" type="line"/>
      <point x="516.0" y="557.0" type="line"/>
      <point x="516.0" y="603.0" type="line"/>
      <point x="299.0" y="603.0" type="line"/>
      <point x="299.0" y="568.0" type="line"/>
      <point x="353.0" y="545.0" type="line"/>
      <point x="377.0" y="447.0" type="line"/>
      <point x="345.0" y="324.0"/>
      <point x="293.0" y="147.0"/>
      <point x="280.0" y="92.0" type="curve"/>
      <point x="269.0" y="92.0" type="line"/>
      <point x="269.0" y="92.0"/>
      <point x="250.0" y="187.0"/>
      <point x="240.0" y="231.0" type="curve" smooth="yes"/>
      <point x="170.0" y="540.0" type="line"/>
      <point x="227.0" y="560.0" type="line"/>
      <point x="227.0" y="603.0" type="line"/>
      <point x="10.0" y="603.0" type="line"/>
      <point x="10.0" y="565.0" type="line"/>
      <point x="72.0" y="545.0" type="line"/>
      <point x="204.0" y="1.0" type="line"/>
      <point x="204.0" y="1.0"/>
      <point x="216.0" y="-7.0"/>
    </contour>
  </outline>
</glyph>
<glyph name="X" format="2">
  <advance width="528.0"/>
  <unicode hex="0058"/>
  <outline>
    <contour>
      <point x="-10.0" y="0.0" type="line"/>
      <point x="211.0" y="0.0" type="line"/>
      <point x="211.0" y="43.0" type="line"/>
      <point x="142.0" y="63.0" type="line"/>
      <point x="256.0" y="254.0" type="line"/>
      <point x="260.0" y="254.0" type="line"/>
      <point x="374.0" y="63.0" type="line"/>
      <point x="307.0" y="43.0" type="line"/>
      <point x="307.0" y="0.0" type="line"/>
      <point x="546.0" y="0.0" type="line"/>
      <point x="546.0" y="38.0" type="line"/>
      <point x="484.0" y="58.0" type="line"/>
      <point x="324.0" y="319.0" type="line"/>
      <point x="459.0" y="545.0" type="line"/>
      <point x="521.0" y="565.0" type="line"/>
      <point x="521.0" y="603.0" type="line"/>
      <point x="300.0" y="603.0" type="line"/>
      <point x="300.0" y="560.0" type="line"/>
      <point x="369.0" y="540.0" type="line"/>
      <point x="277.0" y="371.0" type="line"/>
      <point x="273.0" y="371.0" type="line"/>
      <point x="165.0" y="540.0" type="line"/>
      <point x="237.0" y="560.0" type="line"/>
      <point x="237.0" y="603.0" type="line"/>
      <point x="8.0" y="603.0" type="line"/>
      <point x="8.0" y="565.0" type="line"/>
      <point x="61.0" y="545.0" type="line"/>
      <point x="207.0" y="306.0" type="line"/>
      <point x="52.0" y="58.0" type="line"/>
      <point x="-10.0" y="38.0" type="line"/>
    </contour>
  </outline>
</glyph>
<glyph name="Y" format="2">
  <advance width="519.0"/>
  <unicode hex="0059"/>
  <anchor x="257.0" y="0.0" name="bottom"/>
  <anchor x="267.0" y="603.0" name="top"/>
  <outline>
    <contour>
      <point x="150.0" y="0.0" type="line"/>
      <point x="373.0" y="0.0" type="line"/>
      <point x="373.0" y="38.0" type="line"/>
      <point x="308.0" y="58.0" type="line"/>
      <point x="308.0" y="227.0" type="line"/>
      <point x="360.0" y="333.0"/>
      <point x="411.0" y="439.0"/>
      <point x="463.0" y="545.0" type="curve"/>
      <point x="525.0" y="565.0" type="line"/>
      <point x="525.0" y="603.0" type="line"/>
      <point x="304.0" y="603.0" type="line"/>
      <point x="304.0" y="560.0" type="line"/>
      <point x="373.0" y="540.0" type="line"/>
      <point x="339.0" y="465.0"/>
      <point x="306.0" y="390.0"/>
      <point x="272.0" y="315.0" type="curve"/>
      <point x="263.0" y="315.0" type="line"/>
      <point x="228.0" y="390.0"/>
      <point x="192.0" y="465.0"/>
      <point x="157.0" y="540.0" type="curve"/>
      <point x="223.0" y="560.0" type="line"/>
      <point x="223.0" y="603.0" type="line"/>
      <point x="-6.0" y="603.0" type="line"/>
      <point x="-6.0" y="565.0" type="line"/>
      <point x="56.0" y="545.0" type="line"/>
      <point x="215.0" y="224.0" type="line"/>
      <point x="215.0" y="58.0" type="line"/>
      <point x="150.0" y="38.0" type="line"/>
    </contour>
  </outline>
</glyph>
<glyph name="Z" format="2">
  <advance width="477"/>
  <unicode hex="005A"/>
  <anchor x="239" y="0" name="bottom"/>
  <anchor x="246" y="603" name="top"/>
  <outline>
    <contour>
      <point x="46" y="0" type="line"/>
      <point x="445" y="0" type="line"/>
      <point x="434" y="184" type="line"/>
      <point x="380" y="184" type="line"/>
      <point x="368" y="49" type="line"/>
      <point x="165" y="65" type="line"/>
      <point x="422" y="565" type="line"/>
      <point x="422" y="603" type="line"/>
      <point x="59" y="603" type="line"/>
      <point x="72" y="428" type="line"/>
      <point x="127" y="428" type="line"/>
      <point x="136" y="554" type="line"/>
      <point x="305" y="540" type="line"/>
      <point x="46" y="38" type="line"/>
    </contour>
  </outline>
</glyph>
<glyph name="bracketleft" format="2">
  <advance width="241"/>
  <unicode hex="005B"/>
  <outline>
    <contour>
      <point x="203" y="-112" type="line"/>
      <point x="208" y="-77" type="line"/>
      <point x="137" y="-56" type="line"/>
      <point x="137" y="624" type="line"/>
      <point x="208" y="644" type="line"/>
      <point x="203" y="680" type="line"/>
      <point x="60" y="673" type="line"/>
      <point x="60" y="-105" type="line"/>
    </contour>
  </outline>
</glyph>
<glyph name="backslash" format="2">
  <advance width="303"/>
  <unicode hex="005C"/>
  <outline>
    <contour>
      <point x="219" y="-118" type="line"/>
      <point x="287" y="-118" type="line"/>
      <point x="84" y="687" type="line"/>
      <point x="16" y="687" type="line"/>
    </contour>
  </outline>
</glyph>
<glyph name="bracketright" format="2">
  <advance width="241.0"/>
  <unicode hex="005D"/>
  <outline>
    <contour>
      <point x="38.0" y="-112.0" type="line"/>
      <point x="181.0" y="-105.0" type="line"/>
      <point x="181.0" y="673.0" type="line"/>
      <point x="38.0" y="680.0" type="line"/>
      <point x="33.0" y="644.0" type="line"/>
      <point x="104.0" y="624.0" type="line"/>
      <point x="104.0" y="-56.0" type="line"/>
      <point x="33.0" y="-77.0" type="line"/>
    </contour>
  </outline>
</glyph>
<glyph name="asciicircum" format="2">
  <advance width="519"/>
  <unicode hex="005E"/>
  <outline>
    <contour>
      <point x="101" y="251" type="line"/>
      <point x="259" y="561" type="line"/>
      <point x="418" y="251" type="line"/>
      <point x="469" y="276" type="line"/>
      <point x="306" y="603" type="line"/>
      <point x="212" y="603" type="line"/>
      <point x="50" y="276" type="line"/>
    </contour>
  </outline>
</glyph>
<glyph name="underscore" format="2">
  <advance width="495"/>
  <unicode hex="005F"/>
  <outline>
    <contour>
      <point x="25" y="-117" type="line"/>
      <point x="470" y="-117" type="line"/>
      <point x="470" y="-72" type="line"/>
      <point x="25" y="-72" type="line"/>
    </contour>
  </outline>
</glyph>
<glyph name="grave" format="2">
  <advance width="185"/>
  <unicode hex="0060"/>
  <outline>
    <contour>
      <point x="162" y="519" type="line"/>
      <point x="185" y="549" type="line"/>
      <point x="49" y="680" type="line"/>
      <point x="0" y="630" type="line"/>
      <point x="0" y="605" type="line"/>
    </contour>
  </outline>
</glyph>
<glyph name="a" format="2">
  <advance width="448.0"/>
  <unicode hex="0061"/>
  <anchor x="230.0" y="0.0" name="bottom"/>
  <anchor x="387.0" y="7.0" name="ogonek"/>
  <anchor x="229.0" y="448.0" name="top"/>
  <outline>
    <contour>
      <point x="194.0" y="-9.0" type="curve" smooth="yes"/>
      <point x="201.0" y="-9.0"/>
      <point x="260.0" y="37.0"/>
      <point x="294.0" y="63.0" type="curve"/>
      <point x="294.0" y="24.0" type="line" smooth="yes"/>
      <point x="294.0" y="17.0"/>
      <point x="323.0" y="-9.0"/>
      <point x="328.0" y="-9.0" type="curve" smooth="yes"/>
      <point x="337.0" y="-9.0"/>
      <point x="416.0" y="7.0"/>
      <point x="416.0" y="7.0" type="curve"/>
      <point x="416.0" y="44.0" type="line"/>
      <point x="382.0" y="58.0" type="line"/>
      <point x="382.0" y="434.0" type="line"/>
      <point x="355.0" y="438.0"/>
      <point x="224.0" y="457.0"/>
      <point x="207.0" y="457.0" type="curve" smooth="yes"/>
      <point x="183.0" y="457.0"/>
      <point x="83.0" y="388.0"/>
      <point x="62.0" y="358.0" type="curve"/>
      <point x="48.0" y="330.0"/>
      <point x="38.0" y="273.0"/>
      <point x="38.0" y="209.0" type="curve" smooth="yes"/>
      <point x="38.0" y="57.0"/>
      <point x="115.0" y="-9.0"/>
    </contour>
    <contour>
      <point x="200.0" y="65.0" type="curve" smooth="yes"/>
      <point x="180.0" y="65.0"/>
      <point x="134.0" y="104.0"/>
      <point x="134.0" y="216.0" type="curve" smooth="yes"/>
      <point x="134.0" y="357.0"/>
      <point x="149.0" y="395.0"/>
      <point x="172.0" y="399.0" type="curve" smooth="yes"/>
      <point x="191.0" y="402.0"/>
      <point x="259.0" y="390.0"/>
      <point x="291.0" y="380.0" type="curve"/>
      <point x="291.0" y="105.0" type="line"/>
      <point x="263.0" y="91.0"/>
      <point x="209.0" y="65.0"/>
    </contour>
  </outline>
</glyph>
<glyph name="b" format="2">
  <advance width="447"/>
  <unicode hex="0062"/>
  <outline>
    <contour>
      <point x="240" y="-9" type="curve" smooth="yes"/>
      <point x="264" y="-9"/>
      <point x="364" y="60"/>
      <point x="385" y="90" type="curve"/>
      <point x="399" y="118"/>
      <point x="409" y="175"/>
      <point x="409" y="245" type="curve" smooth="yes"/>
      <point x="409" y="392"/>
      <point x="330" y="457"/>
      <point x="253" y="457" type="curve" smooth="yes"/>
      <point x="246" y="457"/>
      <point x="190" y="412"/>
      <point x="156" y="388" type="curve"/>
      <point x="151" y="389" type="line"/>
      <point x="156" y="613" type="line" smooth="yes"/>
      <point x="156" y="620"/>
      <point x="127" y="646"/>
      <point x="121" y="646" type="curve" smooth="yes"/>
      <point x="114" y="646"/>
      <point x="52" y="635"/>
      <point x="30" y="630" type="curve"/>
      <point x="30" y="593" type="line"/>
      <point x="65" y="579" type="line"/>
      <point x="65" y="12" type="line"/>
      <point x="102" y="5"/>
      <point x="226" y="-9"/>
    </contour>
    <contour>
      <point x="275" y="49" type="curve" smooth="yes"/>
      <point x="256" y="46"/>
      <point x="188" y="58"/>
      <point x="156" y="68" type="curve"/>
      <point x="156" y="343" type="line"/>
      <point x="185" y="358"/>
      <point x="240" y="383"/>
      <point x="247" y="383" type="curve" smooth="yes"/>
      <point x="267" y="383"/>
      <point x="313" y="342"/>
      <point x="313" y="232" type="curve" smooth="yes"/>
      <point x="313" y="91"/>
      <point x="298" y="53"/>
    </contour>
  </outline>
</glyph>
<glyph name="d" format="2">
  <advance width="451"/>
  <unicode hex="0064"/>
  <anchor x="234" y="0" name="bottom"/>
  <anchor x="301" y="516" name="center"/>
  <anchor x="224" y="750" name="top"/>
  <anchor x="438" y="448" name="topright"/>
  <outline>
    <contour>
      <point x="194" y="-9" type="curve" smooth="yes"/>
      <point x="201" y="-9"/>
      <point x="259" y="37"/>
      <point x="294" y="63" type="curve"/>
      <point x="294" y="24" type="line" smooth="yes"/>
      <point x="294" y="17"/>
      <point x="323" y="-9"/>
      <point x="328" y="-9" type="curve" smooth="yes"/>
      <point x="335" y="-9"/>
      <point x="382" y="0"/>
      <point x="416" y="7" type="curve"/>
      <point x="416" y="44" type="line"/>
      <point x="382" y="58" type="line"/>
      <point x="382" y="427" type="line"/>
      <point x="387" y="613" type="line" smooth="yes"/>
      <point x="387" y="620"/>
      <point x="358" y="646"/>
      <point x="352" y="646" type="curve" smooth="yes"/>
      <point x="346" y="646"/>
      <point x="297" y="637"/>
      <point x="261" y="630" type="curve"/>
      <point x="261" y="593" type="line"/>
      <point x="296" y="579" type="line"/>
      <point x="296" y="446" type="line"/>
      <point x="256" y="452"/>
      <point x="220" y="457"/>
      <point x="207" y="457" type="curve" smooth="yes"/>
      <point x="183" y="457"/>
      <point x="83" y="388"/>
      <point x="62" y="358" type="curve"/>
      <point x="48" y="330"/>
      <point x="38" y="273"/>
      <point x="38" y="203" type="curve" smooth="yes"/>
      <point x="38" y="56"/>
      <point x="118" y="-9"/>
    </contour>
    <contour>
      <point x="200" y="65" type="curve" smooth="yes"/>
      <point x="180" y="65"/>
      <point x="134" y="104"/>
      <point x="134" y="216" type="curve" smooth="yes"/>
      <point x="134" y="357"/>
      <point x="149" y="395"/>
      <point x="172" y="399" type="curve" smooth="yes"/>
      <point x="191" y="402"/>
      <point x="256" y="390"/>
      <point x="291" y="380" type="curve"/>
      <point x="291" y="105" type="line"/>
      <point x="256" y="88"/>
      <point x="207" y="65"/>
    </contour>
  </outline>
</glyph>
<glyph name="e" format="2">
  <advance width="405.0"/>
  <unicode hex="0065"/>
  <anchor x="222.0" y="0.0" name="bottom"/>
  <anchor x="327.0" y="26.0" name="ogonek"/>
  <anchor x="205.0" y="448.0" name="top"/>
  <outline>
    <contour>
      <point x="204.0" y="-9.0" type="curve" smooth="yes"/>
      <point x="223.0" y="-9.0"/>
      <point x="308.0" y="11.0"/>
      <point x="356.0" y="26.0" type="curve"/>
      <point x="356.0" y="67.0" type="line"/>
      <point x="317.0" y="66.0"/>
      <point x="238.0" y="62.0"/>
      <point x="227.0" y="62.0" type="curve" smooth="yes"/>
      <point x="199.0" y="62.0"/>
      <point x="134.0" y="89.0"/>
      <point x="134.0" y="221.0" type="curve"/>
      <point x="370.0" y="241.0" type="line"/>
      <point x="370.0" y="427.0"/>
      <point x="310.0" y="461.0"/>
      <point x="212.0" y="461.0" type="curve" smooth="yes"/>
      <point x="186.0" y="461.0"/>
      <point x="83.0" y="390.0"/>
      <point x="62.0" y="358.0" type="curve"/>
      <point x="48.0" y="332.0"/>
      <point x="38.0" y="271.0"/>
      <point x="38.0" y="203.0" type="curve" smooth="yes"/>
      <point x="38.0" y="56.0"/>
      <point x="122.0" y="-9.0"/>
    </contour>
    <contour>
      <point x="136.0" y="262.0" type="line"/>
      <point x="136.0" y="321.0"/>
      <point x="148.0" y="386.0"/>
      <point x="166.0" y="394.0" type="curve" smooth="yes"/>
      <point x="180.0" y="400.0"/>
      <point x="193.0" y="401.0"/>
      <point x="204.0" y="401.0" type="curve" smooth="yes"/>
      <point x="255.0" y="401.0"/>
      <point x="273.0" y="356.0"/>
      <point x="273.0" y="280.0" type="curve"/>
    </contour>
  </outline>
</glyph>
<glyph name="f" format="2">
  <advance width="261.0"/>
  <unicode hex="0066"/>
  <anchor x="162.0" y="640.0" name="top"/>
  <outline>
    <contour>
      <point x="103.0" y="-9.0" type="curve" smooth="yes"/>
      <point x="112.0" y="-9.0"/>
      <point x="211.0" y="7.0"/>
      <point x="211.0" y="7.0" type="curve"/>
      <point x="211.0" y="48.0" type="line"/>
      <point x="160.0" y="63.0" type="line"/>
      <point x="160.0" y="394.0" type="line"/>
      <point x="255.0" y="394.0" type="line"/>
      <point x="255.0" y="448.0" type="line"/>
      <point x="160.0" y="448.0" type="line"/>
      <point x="161.0" y="526.0" type="line" smooth="yes"/>
      <point x="161.0" y="554.0"/>
      <point x="171.0" y="582.0"/>
      <point x="180.0" y="582.0" type="curve" smooth="yes"/>
      <point x="196.0" y="582.0"/>
      <point x="262.0" y="566.0"/>
      <point x="284.0" y="560.0" type="curve"/>
      <point x="288.0" y="570.0"/>
      <point x="304.0" y="606.0"/>
      <point x="304.0" y="610.0" type="curve" smooth="yes"/>
      <point x="304.0" y="617.0"/>
      <point x="291.0" y="634.0"/>
      <point x="282.0" y="640.0" type="curve"/>
      <point x="255.0" y="643.0"/>
      <point x="204.0" y="646.0"/>
      <point x="194.0" y="646.0" type="curve" smooth="yes"/>
      <point x="163.0" y="646.0"/>
      <point x="69.0" y="532.0"/>
      <point x="69.0" y="491.0" type="curve" smooth="yes"/>
      <point x="69.0" y="453.0" type="line"/>
      <point x="22.0" y="434.0" type="line"/>
      <point x="22.0" y="395.0" type="line"/>
      <point x="69.0" y="395.0" type="line"/>
      <point x="69.0" y="24.0" type="line" smooth="yes"/>
      <point x="69.0" y="17.0"/>
      <point x="97.0" y="-9.0"/>
    </contour>
  </outline>
</glyph>
<glyph name="g" format="2">
  <advance width="428"/>
  <unicode hex="0067"/>
  <anchor x="220" y="448" name="top"/>
  <outline>
    <contour>
      <point x="230" y="-181" type="curve" smooth="yes"/>
      <point x="271" y="-181"/>
      <point x="373" y="-87"/>
      <point x="373" y="-21" type="curve" smooth="yes"/>
      <point x="373" y="434" type="line"/>
      <point x="348" y="438"/>
      <point x="224" y="457"/>
      <point x="208" y="457" type="curve" smooth="yes"/>
      <point x="184" y="457"/>
      <point x="82" y="386"/>
      <point x="61" y="358" type="curve"/>
      <point x="47" y="326"/>
      <point x="40" y="267"/>
      <point x="40" y="229" type="curve" smooth="yes"/>
      <point x="40" y="100"/>
      <point x="107" y="30"/>
      <point x="158" y="30" type="curve"/>
      <point x="34" y="-82" type="line"/>
      <point x="25" y="-155" type="line"/>
      <point x="64" y="-164"/>
      <point x="179" y="-181"/>
    </contour>
    <contour>
      <point x="260" y="-135" type="curve" smooth="yes"/>
      <point x="231" y="-135"/>
      <point x="124" y="-111"/>
      <point x="105" y="-103" type="curve"/>
      <point x="105" y="-97" type="line"/>
      <point x="135" y="-69"/>
      <point x="236" y="28"/>
      <point x="280" y="67" type="curve"/>
      <point x="285" y="65" type="line"/>
      <point x="285" y="15" type="line" smooth="yes"/>
      <point x="285" y="-51"/>
      <point x="275" y="-135"/>
    </contour>
    <contour>
      <point x="209" y="76" type="curve" smooth="yes"/>
      <point x="188" y="76"/>
      <point x="135" y="109"/>
      <point x="135" y="228" type="curve" smooth="yes"/>
      <point x="135" y="328"/>
      <point x="147" y="388"/>
      <point x="175" y="398" type="curve" smooth="yes"/>
      <point x="190" y="403"/>
      <point x="253" y="390"/>
      <point x="282" y="380" type="curve"/>
      <point x="282" y="120" type="line"/>
      <point x="255" y="101"/>
      <point x="216" y="76"/>
    </contour>
  </outline>
</glyph>
<glyph name="h" format="2">
  <advance width="474.0"/>
  <unicode hex="0068"/>
  <anchor x="245.0" y="0.0" name="bottom"/>
  <anchor x="153.0" y="516.0" name="center"/>
  <anchor x="104.0" y="603.0" name="top"/>
  <outline>
    <contour>
      <point x="102.0" y="-9.0" type="curve" smooth="yes"/>
      <point x="111.0" y="-9.0"/>
      <point x="194.0" y="7.0"/>
      <point x="194.0" y="7.0" type="curve"/>
      <point x="194.0" y="44.0" type="line"/>
      <point x="160.0" y="59.0" type="line"/>
      <point x="160.0" y="344.0" type="line"/>
      <point x="178.0" y="352.0"/>
      <point x="246.0" y="382.0"/>
      <point x="255.0" y="382.0" type="curve" smooth="yes"/>
      <point x="270.0" y="382.0"/>
      <point x="313.0" y="384.0"/>
      <point x="313.0" y="288.0" type="curve" smooth="yes"/>
      <point x="313.0" y="24.0" type="line" smooth="yes"/>
      <point x="313.0" y="17.0"/>
      <point x="341.0" y="-9.0"/>
      <point x="347.0" y="-9.0" type="curve" smooth="yes"/>
      <point x="356.0" y="-9.0"/>
      <point x="439.0" y="7.0"/>
      <point x="439.0" y="7.0" type="curve"/>
      <point x="439.0" y="44.0" type="line"/>
      <point x="404.0" y="59.0" type="line"/>
      <point x="404.0" y="288.0" type="line" smooth="yes"/>
      <point x="404.0" y="418.0"/>
      <point x="351.0" y="456.0"/>
      <point x="260.0" y="456.0" type="curve" smooth="yes"/>
      <point x="256.0" y="456.0"/>
      <point x="195.0" y="412.0"/>
      <point x="160.0" y="386.0" type="curve"/>
      <point x="155.0" y="387.0" type="line"/>
      <point x="160.0" y="613.0" type="line" smooth="yes"/>
      <point x="160.0" y="620.0"/>
      <point x="131.0" y="646.0"/>
      <point x="125.0" y="646.0" type="curve" smooth="yes"/>
      <point x="116.0" y="646.0"/>
      <point x="34.0" y="630.0"/>
      <point x="34.0" y="630.0" type="curve"/>
      <point x="34.0" y="593.0" type="line"/>
      <point x="69.0" y="579.0" type="line"/>
      <point x="69.0" y="24.0" type="line" smooth="yes"/>
      <point x="69.0" y="17.0"/>
      <point x="96.0" y="-9.0"/>
    </contour>
  </outline>
</glyph>
<glyph name="j" format="2">
  <advance width="219"/>
  <unicode hex="006A"/>
  <outline>
    <contour>
      <point x="38" y="-181" type="curve" smooth="yes"/>
      <point x="69" y="-181"/>
      <point x="159" y="-84"/>
      <point x="159" y="-22" type="curve" smooth="yes"/>
      <point x="159" y="419" type="line"/>
      <point x="159" y="428"/>
      <point x="126" y="456"/>
      <point x="119" y="456" type="curve" smooth="yes"/>
      <point x="110" y="456"/>
      <point x="21" y="441"/>
      <point x="21" y="441" type="curve"/>
      <point x="21" y="402" type="line"/>
      <point x="69" y="392" type="line"/>
      <point x="69" y="13" type="line" smooth="yes"/>
      <point x="69" y="-22"/>
      <point x="67" y="-89"/>
      <point x="44" y="-102" type="curve" smooth="yes"/>
      <point x="36" y="-108"/>
      <point x="-38" y="-112"/>
      <point x="-57" y="-113" type="curve"/>
      <point x="-57" y="-152" type="line"/>
      <point x="-22" y="-164"/>
      <point x="24" y="-181"/>
    </contour>
    <contour>
      <point x="75" y="537" type="line"/>
      <point x="155" y="537" type="line"/>
      <point x="160" y="624" type="line"/>
      <point x="145" y="646" type="line"/>
      <point x="68" y="641" type="line"/>
    </contour>
  </outline>
</glyph>
<glyph name="k" format="2">
  <advance width="438"/>
  <unicode hex="006B"/>
  <anchor x="240" y="0" name="bottom"/>
  <outline>
    <contour>
      <point x="354" y="-9" type="curve" smooth="yes"/>
      <point x="362" y="-9"/>
      <point x="436" y="7"/>
      <point x="436" y="7" type="curve"/>
      <point x="436" y="44" type="line"/>
      <point x="396" y="60" type="line"/>
      <point x="252" y="254" type="line"/>
      <point x="399" y="408" type="line"/>
      <point x="399" y="419"/>
      <point x="387" y="455"/>
      <point x="381" y="455" type="curve" smooth="yes"/>
      <point x="372" y="455"/>
      <point x="251" y="448"/>
      <point x="251" y="448" type="curve"/>
      <point x="251" y="400" type="line"/>
      <point x="295" y="394" type="line"/>
      <point x="179" y="262" type="line"/>
      <point x="179" y="221" type="line"/>
      <point x="315" y="23" type="line" smooth="yes"/>
      <point x="321" y="15"/>
      <point x="348" y="-9"/>
    </contour>
    <contour>
      <point x="103" y="-9" type="curve" smooth="yes"/>
      <point x="112" y="-9"/>
      <point x="194" y="7"/>
      <point x="194" y="7" type="curve"/>
      <point x="194" y="44" type="line"/>
      <point x="160" y="59" type="line"/>
      <point x="160" y="613" type="line"/>
      <point x="160" y="620"/>
      <point x="133" y="646"/>
      <point x="127" y="646" type="curve" smooth="yes"/>
      <point x="118" y="646"/>
      <point x="34" y="630"/>
      <point x="34" y="630" type="curve"/>
      <point x="34" y="593" type="line"/>
      <point x="70" y="579" type="line"/>
      <point x="70" y="24" type="line" smooth="yes"/>
      <point x="70" y="17"/>
      <point x="97" y="-9"/>
    </contour>
  </outline>
</glyph>
<glyph name="l" format="2">
  <advance width="229"/>
  <unicode hex="006C"/>
  <anchor x="118" y="0" name="bottom"/>
  <anchor x="114" y="318" name="center"/>
  <anchor x="113" y="613" name="top"/>
  <anchor x="205" y="448" name="topright"/>
  <outline>
    <contour>
      <point x="103" y="-9" type="curve" smooth="yes"/>
      <point x="110" y="-9"/>
      <point x="159" y="0"/>
      <point x="194" y="7" type="curve"/>
      <point x="194" y="44" type="line"/>
      <point x="160" y="59" type="line"/>
      <point x="160" y="613" type="line"/>
      <point x="160" y="620"/>
      <point x="133" y="646"/>
      <point x="127" y="646" type="curve" smooth="yes"/>
      <point x="120" y="646"/>
      <point x="70" y="637"/>
      <point x="34" y="630" type="curve"/>
      <point x="34" y="593" type="line"/>
      <point x="70" y="579" type="line"/>
      <point x="70" y="24" type="line" smooth="yes"/>
      <point x="70" y="17"/>
      <point x="97" y="-9"/>
    </contour>
  </outline>
</glyph>
<glyph name="m" format="2">
  <advance width="689.0"/>
  <unicode hex="006D"/>
  <outline>
    <contour>
      <point x="103.0" y="-9.0" type="curve" smooth="yes"/>
      <point x="112.0" y="-9.0"/>
      <point x="194.0" y="7.0"/>
      <point x="194.0" y="7.0" type="curve"/>
      <point x="194.0" y="44.0" type="line"/>
      <point x="160.0" y="59.0" type="line"/>
      <point x="160.0" y="344.0" type="line"/>
      <point x="160.0" y="344.0"/>
      <point x="231.0" y="382.0"/>
      <point x="241.0" y="382.0" type="curve" smooth="yes"/>
      <point x="255.0" y="382.0"/>
      <point x="299.0" y="384.0"/>
      <point x="299.0" y="288.0" type="curve" smooth="yes"/>
      <point x="299.0" y="24.0" type="line" smooth="yes"/>
      <point x="299.0" y="17.0"/>
      <point x="328.0" y="-9.0"/>
      <point x="334.0" y="-9.0" type="curve" smooth="yes"/>
      <point x="342.0" y="-9.0"/>
      <point x="424.0" y="7.0"/>
      <point x="424.0" y="7.0" type="curve"/>
      <point x="424.0" y="44.0" type="line"/>
      <point x="390.0" y="59.0" type="line"/>
      <point x="390.0" y="344.0" type="line"/>
      <point x="390.0" y="344.0"/>
      <point x="457.0" y="382.0"/>
      <point x="466.0" y="382.0" type="curve" smooth="yes"/>
      <point x="481.0" y="382.0"/>
      <point x="529.0" y="384.0"/>
      <point x="529.0" y="288.0" type="curve" smooth="yes"/>
      <point x="529.0" y="24.0" type="line" smooth="yes"/>
      <point x="529.0" y="17.0"/>
      <point x="558.0" y="-9.0"/>
      <point x="564.0" y="-9.0" type="curve" smooth="yes"/>
      <point x="572.0" y="-9.0"/>
      <point x="654.0" y="7.0"/>
      <point x="654.0" y="7.0" type="curve"/>
      <point x="654.0" y="44.0" type="line"/>
      <point x="620.0" y="59.0" type="line"/>
      <point x="620.0" y="288.0" type="line" smooth="yes"/>
      <point x="620.0" y="418.0"/>
      <point x="560.0" y="456.0"/>
      <point x="461.0" y="456.0" type="curve" smooth="yes"/>
      <point x="457.0" y="456.0"/>
      <point x="406.0" y="412.0"/>
      <point x="378.0" y="386.0" type="curve"/>
      <point x="357.0" y="439.0"/>
      <point x="309.0" y="456.0"/>
      <point x="246.0" y="456.0" type="curve" smooth="yes"/>
      <point x="242.0" y="456.0"/>
      <point x="187.0" y="412.0"/>
      <point x="157.0" y="386.0" type="curve"/>
      <point x="157.0" y="424.0" type="line" smooth="yes"/>
      <point x="157.0" y="430.0"/>
      <point x="131.0" y="456.0"/>
      <point x="125.0" y="456.0" type="curve" smooth="yes"/>
      <point x="116.0" y="456.0"/>
      <point x="34.0" y="441.0"/>
      <point x="34.0" y="441.0" type="curve"/>
      <point x="34.0" y="404.0" type="line"/>
      <point x="69.0" y="389.0" type="line"/>
      <point x="69.0" y="24.0" type="line" smooth="yes"/>
      <point x="69.0" y="17.0"/>
      <point x="97.0" y="-9.0"/>
    </contour>
  </outline>
</glyph>
<glyph name="n" format="2">
  <advance width="474"/>
  <unicode hex="006E"/>
  <anchor x="246" y="0" name="bottom"/>
  <anchor x="233" y="448" name="top"/>
  <anchor x="-20" y="448" name="topleft"/>
  <outline>
    <contour>
      <point x="103" y="-9" type="curve" smooth="yes"/>
      <point x="112" y="-9"/>
      <point x="194" y="7"/>
      <point x="194" y="7" type="curve"/>
      <point x="194" y="44" type="line"/>
      <point x="160" y="59" type="line"/>
      <point x="160" y="344" type="line"/>
      <point x="198" y="361"/>
      <point x="243" y="382"/>
      <point x="255" y="382" type="curve" smooth="yes"/>
      <point x="269" y="382"/>
      <point x="313" y="384"/>
      <point x="313" y="288" type="curve" smooth="yes"/>
      <point x="313" y="24" type="line" smooth="yes"/>
      <point x="313" y="17"/>
      <point x="342" y="-9"/>
      <point x="348" y="-9" type="curve" smooth="yes"/>
      <point x="356" y="-9"/>
      <point x="439" y="7"/>
      <point x="439" y="7" type="curve"/>
      <point x="439" y="44" type="line"/>
      <point x="404" y="59" type="line"/>
      <point x="404" y="288" type="line" smooth="yes"/>
      <point x="404" y="418"/>
      <point x="350" y="456"/>
      <point x="260" y="456" type="curve" smooth="yes"/>
      <point x="254" y="456"/>
      <point x="192" y="412"/>
      <point x="157" y="386" type="curve"/>
      <point x="157" y="424" type="line" smooth="yes"/>
      <point x="157" y="430"/>
      <point x="131" y="456"/>
      <point x="125" y="456" type="curve" smooth="yes"/>
      <point x="116" y="456"/>
      <point x="34" y="441"/>
      <point x="34" y="441" type="curve"/>
      <point x="34" y="404" type="line"/>
      <point x="69" y="389" type="line"/>
      <point x="69" y="24" type="line" smooth="yes"/>
      <point x="69" y="17"/>
      <point x="97" y="-9"/>
    </contour>
  </outline>
</glyph>
<glyph name="o" format="2">
  <advance width="453.0"/>
  <unicode hex="006F"/>
  <anchor x="221.0" y="0.0" name="bottom"/>
  <anchor x="221.0" y="217.0" name="center"/>
  <anchor x="243.0" y="0.0" name="ogonek"/>
  <anchor x="226.0" y="448.0" name="top"/>
  <anchor x="295.0" y="448.0" name="topright"/>
  <outline>
    <contour>
      <point x="246.0" y="-9.0" type="curve" smooth="yes"/>
      <point x="270.0" y="-9.0"/>
      <point x="372.0" y="62.0"/>
      <point x="393.0" y="90.0" type="curve"/>
      <point x="404.0" y="122.0"/>
      <point x="415.0" y="181.0"/>
      <point x="415.0" y="249.0" type="curve" smooth="yes"/>
      <point x="415.0" y="386.0"/>
      <point x="346.0" y="461.0"/>
      <point x="211.0" y="461.0" type="curve" smooth="yes"/>
      <point x="187.0" y="461.0"/>
      <point x="83.0" y="390.0"/>
      <point x="62.0" y="358.0" type="curve"/>
      <point x="48.0" y="332.0"/>
      <point x="38.0" y="271.0"/>
      <point x="38.0" y="209.0" type="curve" smooth="yes"/>
      <point x="38.0" y="57.0"/>
      <point x="109.0" y="-9.0"/>
    </contour>
    <contour>
      <point x="251.0" y="48.0" type="curve"/>
      <point x="197.0" y="48.0"/>
      <point x="134.0" y="78.0"/>
      <point x="134.0" y="223.0" type="curve" smooth="yes"/>
      <point x="134.0" y="324.0"/>
      <point x="148.0" y="384.0"/>
      <point x="166.0" y="394.0" type="curve" smooth="yes"/>
      <point x="179.0" y="401.0"/>
      <point x="192.0" y="402.0"/>
      <point x="206.0" y="402.0" type="curve" smooth="yes"/>
      <point x="282.0" y="402.0"/>
      <point x="319.0" y="337.0"/>
      <point x="319.0" y="236.0" type="curve" smooth="yes"/>
      <point x="319.0" y="151.0"/>
      <point x="309.0" y="104.0"/>
      <point x="302.0" y="73.0" type="curve"/>
      <point x="302.0" y="73.0"/>
      <point x="258.0" y="50.0"/>
    </contour>
  </outline>
</glyph>
<glyph name="p" format="2">
  <advance width="450"/>
  <unicode hex="0070"/>
  <outline>
    <contour>
      <point x="98" y="-181" type="curve" smooth="yes"/>
      <point x="105" y="-181"/>
      <point x="173" y="-170"/>
      <point x="194" y="-165" type="curve"/>
      <point x="194" y="-125" type="line"/>
      <point x="154" y="-109" type="line"/>
      <point x="154" y="2" type="line"/>
      <point x="194" y="-4"/>
      <point x="230" y="-9"/>
      <point x="243" y="-9" type="curve" smooth="yes"/>
      <point x="267" y="-9"/>
      <point x="367" y="60"/>
      <point x="388" y="90" type="curve"/>
      <point x="402" y="118"/>
      <point x="412" y="175"/>
      <point x="412" y="245" type="curve" smooth="yes"/>
      <point x="412" y="392"/>
      <point x="332" y="457"/>
      <point x="256" y="457" type="curve" smooth="yes"/>
      <point x="249" y="457"/>
      <point x="191" y="411"/>
      <point x="156" y="385" type="curve"/>
      <point x="156" y="424" type="line" smooth="yes"/>
      <point x="156" y="431"/>
      <point x="127" y="457"/>
      <point x="122" y="457" type="curve" smooth="yes"/>
      <point x="114" y="457"/>
      <point x="56" y="446"/>
      <point x="34" y="441" type="curve"/>
      <point x="34" y="404" type="line"/>
      <point x="68" y="390" type="line"/>
      <point x="68" y="13" type="line"/>
      <point x="63" y="-148" type="line" smooth="yes"/>
      <point x="63" y="-155"/>
      <point x="92" y="-181"/>
    </contour>
    <contour>
      <point x="278" y="49" type="curve" smooth="yes"/>
      <point x="259" y="46"/>
      <point x="191" y="58"/>
      <point x="159" y="68" type="curve"/>
      <point x="159" y="343" type="line"/>
      <point x="188" y="357"/>
      <point x="243" y="383"/>
      <point x="250" y="383" type="curve" smooth="yes"/>
      <point x="270" y="383"/>
      <point x="316" y="344"/>
      <point x="316" y="232" type="curve" smooth="yes"/>
      <point x="316" y="91"/>
      <point x="301" y="53"/>
    </contour>
  </outline>
</glyph>
<glyph name="q" format="2">
  <advance width="442.0"/>
  <unicode hex="0071"/>
  <outline>
    <contour>
      <point x="326.0" y="-181.0" type="curve" smooth="yes"/>
      <point x="334.0" y="-181.0"/>
      <point x="417.0" y="-165.0"/>
      <point x="417.0" y="-165.0" type="curve"/>
      <point x="417.0" y="-128.0" type="line"/>
      <point x="382.0" y="-114.0" type="line"/>
      <point x="382.0" y="436.0" type="line"/>
      <point x="345.0" y="443.0"/>
      <point x="221.0" y="457.0"/>
      <point x="207.0" y="457.0" type="curve" smooth="yes"/>
      <point x="183.0" y="457.0"/>
      <point x="83.0" y="388.0"/>
      <point x="62.0" y="358.0" type="curve"/>
      <point x="48.0" y="330.0"/>
      <point x="38.0" y="273.0"/>
      <point x="38.0" y="203.0" type="curve" smooth="yes"/>
      <point x="38.0" y="56.0"/>
      <point x="117.0" y="-9.0"/>
      <point x="194.0" y="-9.0" type="curve" smooth="yes"/>
      <point x="201.0" y="-9.0"/>
      <point x="257.0" y="36.0"/>
      <point x="291.0" y="60.0" type="curve"/>
      <point x="296.0" y="59.0" type="line"/>
      <point x="291.0" y="-148.0" type="line" smooth="yes"/>
      <point x="291.0" y="-155.0"/>
      <point x="320.0" y="-181.0"/>
    </contour>
    <contour>
      <point x="200.0" y="65.0" type="curve" smooth="yes"/>
      <point x="180.0" y="65.0"/>
      <point x="134.0" y="106.0"/>
      <point x="134.0" y="216.0" type="curve" smooth="yes"/>
      <point x="134.0" y="357.0"/>
      <point x="149.0" y="395.0"/>
      <point x="172.0" y="399.0" type="curve" smooth="yes"/>
      <point x="191.0" y="402.0"/>
      <point x="259.0" y="390.0"/>
      <point x="291.0" y="380.0" type="curve"/>
      <point x="291.0" y="105.0" type="line"/>
      <point x="291.0" y="105.0"/>
      <point x="210.0" y="65.0"/>
    </contour>
  </outline>
</glyph>
<glyph name="r" format="2">
  <advance width="310"/>
  <unicode hex="0072"/>
  <anchor x="189" y="0" name="bottom"/>
  <anchor x="167" y="448" name="top"/>
  <outline>
    <contour>
      <point x="103" y="-9" type="curve" smooth="yes"/>
      <point x="110" y="-9"/>
      <point x="168" y="0"/>
      <point x="211" y="7" type="curve"/>
      <point x="211" y="48" type="line"/>
      <point x="160" y="63" type="line"/>
      <point x="160" y="343" type="line"/>
      <point x="191" y="361"/>
      <point x="219" y="375"/>
      <point x="228" y="375" type="curve" smooth="yes"/>
      <point x="246" y="375"/>
      <point x="266" y="368"/>
      <point x="281" y="362" type="curve"/>
      <point x="286" y="365"/>
      <point x="308" y="405"/>
      <point x="308" y="414" type="curve" smooth="yes"/>
      <point x="308" y="420"/>
      <point x="305" y="437"/>
      <point x="302" y="445" type="curve"/>
      <point x="286" y="450"/>
      <point x="249" y="461"/>
      <point x="235" y="461" type="curve" smooth="yes"/>
      <point x="229" y="461"/>
      <point x="193" y="423"/>
      <point x="157" y="385" type="curve"/>
      <point x="159" y="420" type="line" smooth="yes"/>
      <point x="159" y="426"/>
      <point x="125" y="456"/>
      <point x="119" y="456" type="curve" smooth="yes"/>
      <point x="112" y="456"/>
      <point x="67" y="447"/>
      <point x="34" y="441" type="curve"/>
      <point x="34" y="404" type="line"/>
      <point x="69" y="392" type="line"/>
      <point x="69" y="24" type="line" smooth="yes"/>
      <point x="69" y="17"/>
      <point x="97" y="-9"/>
    </contour>
  </outline>
</glyph>
<glyph name="s" format="2">
  <advance width="363"/>
  <unicode hex="0073"/>
  <anchor x="186" y="0" name="bottom"/>
  <anchor x="190" y="448" name="top"/>
  <outline>
    <contour>
      <point x="220" y="-9" type="curve" smooth="yes"/>
      <point x="251" y="-9"/>
      <point x="316" y="63"/>
      <point x="334" y="97" type="curve"/>
      <point x="339" y="117"/>
      <point x="341" y="134"/>
      <point x="341" y="148" type="curve" smooth="yes"/>
      <point x="341" y="209"/>
      <point x="246" y="251"/>
      <point x="197" y="281" type="curve" smooth="yes"/>
      <point x="163" y="302"/>
      <point x="125" y="320"/>
      <point x="125" y="353" type="curve" smooth="yes"/>
      <point x="125" y="384"/>
      <point x="134" y="395"/>
      <point x="147" y="395" type="curve" smooth="yes"/>
      <point x="161" y="395"/>
      <point x="243" y="383"/>
      <point x="254" y="379" type="curve"/>
      <point x="261" y="326" type="line"/>
      <point x="317" y="326" type="line"/>
      <point x="320" y="448" type="line"/>
      <point x="280" y="452"/>
      <point x="185" y="456"/>
      <point x="154" y="456" type="curve" smooth="yes"/>
      <point x="132" y="456"/>
      <point x="68" y="402"/>
      <point x="47" y="369" type="curve"/>
      <point x="43" y="357"/>
      <point x="42" y="337"/>
      <point x="42" y="320" type="curve" smooth="yes"/>
      <point x="42" y="272"/>
      <point x="70" y="245"/>
      <point x="149" y="202" type="curve" smooth="yes"/>
      <point x="221" y="163"/>
      <point x="245" y="150"/>
      <point x="245" y="113" type="curve" smooth="yes"/>
      <point x="245" y="90"/>
      <point x="225" y="52"/>
      <point x="214" y="52" type="curve" smooth="yes"/>
      <point x="195" y="52"/>
      <point x="144" y="62"/>
      <point x="113" y="73" type="curve"/>
      <point x="92" y="149" type="line"/>
      <point x="42" y="148" type="line"/>
      <point x="40" y="4" type="line"/>
      <point x="87" y="-2"/>
      <point x="194" y="-9"/>
    </contour>
  </outline>
</glyph>
<glyph name="t" format="2">
  <advance width="280.0"/>
  <unicode hex="0074"/>
  <anchor x="177.0" y="0.0" name="bottom"/>
  <anchor x="130.0" y="238.0" name="center"/>
  <anchor x="188.0" y="448.0" name="topright"/>
  <outline>
    <contour>
      <point x="143.0" y="-9.0" type="curve" smooth="yes"/>
      <point x="157.0" y="-9.0"/>
      <point x="228.0" y="2.0"/>
      <point x="266.0" y="10.0" type="curve"/>
      <point x="266.0" y="58.0" type="line"/>
      <point x="184.0" y="60.0" type="line" smooth="yes"/>
      <point x="165.0" y="60.0"/>
      <point x="160.0" y="72.0"/>
      <point x="160.0" y="113.0" type="curve" smooth="yes"/>
      <point x="160.0" y="390.0" type="line"/>
      <point x="257.0" y="390.0" type="line"/>
      <point x="257.0" y="448.0" type="line"/>
      <point x="160.0" y="448.0" type="line"/>
      <point x="160.0" y="511.0" type="line"/>
      <point x="160.0" y="511.0"/>
      <point x="134.0" y="525.0"/>
      <point x="125.0" y="525.0" type="curve"/>
      <point x="69.0" y="457.0" type="line"/>
      <point x="5.0" y="425.0" type="line"/>
      <point x="5.0" y="395.0" type="line"/>
      <point x="69.0" y="395.0" type="line"/>
      <point x="69.0" y="69.0" type="line" smooth="yes"/>
      <point x="69.0" y="46.0"/>
      <point x="119.0" y="-9.0"/>
    </contour>
  </outline>
</glyph>
<glyph name="u" format="2">
  <advance width="465"/>
  <unicode hex="0075"/>
  <anchor x="235" y="0" name="bottom"/>
  <anchor x="402" y="7" name="ogonek"/>
  <anchor x="223" y="448" name="top"/>
  <anchor x="332" y="448" name="topright"/>
  <outline>
    <contour>
      <point x="210" y="-9" type="curve" smooth="yes"/>
      <point x="215" y="-9"/>
      <point x="276" y="36"/>
      <point x="309" y="62" type="curve"/>
      <point x="309" y="24" type="line" smooth="yes"/>
      <point x="309" y="17"/>
      <point x="335" y="-9"/>
      <point x="341" y="-9" type="curve" smooth="yes"/>
      <point x="348" y="-9"/>
      <point x="396" y="0"/>
      <point x="431" y="7" type="curve"/>
      <point x="431" y="44" type="line"/>
      <point x="397" y="59" type="line"/>
      <point x="397" y="424" type="line" smooth="yes"/>
      <point x="397" y="430"/>
      <point x="369" y="456"/>
      <point x="363" y="456" type="curve" smooth="yes"/>
      <point x="356" y="456"/>
      <point x="307" y="447"/>
      <point x="272" y="441" type="curve"/>
      <point x="272" y="404" type="line"/>
      <point x="306" y="389" type="line"/>
      <point x="306" y="103" type="line"/>
      <point x="272" y="87"/>
      <point x="223" y="65"/>
      <point x="215" y="65" type="curve" smooth="yes"/>
      <point x="201" y="65"/>
      <point x="157" y="64"/>
      <point x="157" y="160" type="curve" smooth="yes"/>
      <point x="157" y="424" type="line" smooth="yes"/>
      <point x="157" y="430"/>
      <point x="128" y="456"/>
      <point x="122" y="456" type="curve" smooth="yes"/>
      <point x="116" y="456"/>
      <point x="67" y="447"/>
      <point x="32" y="441" type="curve"/>
      <point x="32" y="404" type="line"/>
      <point x="66" y="389" type="line"/>
      <point x="66" y="160" type="line" smooth="yes"/>
      <point x="66" y="29"/>
      <point x="120" y="-9"/>
    </contour>
  </outline>
</glyph>
<glyph name="v" format="2">
  <advance width="402.0"/>
  <unicode hex="0076"/>
  <outline>
    <contour>
      <point x="160.0" y="-11.0" type="curve" smooth="yes"/>
      <point x="167.0" y="-11.0"/>
      <point x="251.0" y="7.0"/>
      <point x="251.0" y="7.0" type="curve"/>
      <point x="382.0" y="420.0" type="line"/>
      <point x="382.0" y="430.0"/>
      <point x="359.0" y="455.0"/>
      <point x="353.0" y="455.0" type="curve" smooth="yes"/>
      <point x="345.0" y="455.0"/>
      <point x="238.0" y="448.0"/>
      <point x="238.0" y="448.0" type="curve"/>
      <point x="238.0" y="400.0" type="line"/>
      <point x="297.0" y="393.0" type="line"/>
      <point x="215.0" y="95.0" type="line"/>
      <point x="204.0" y="95.0" type="line"/>
      <point x="184.0" y="181.0" type="line"/>
      <point x="122.0" y="425.0" type="line" smooth="yes"/>
      <point x="119.0" y="435.0"/>
      <point x="89.0" y="455.0"/>
      <point x="83.0" y="455.0" type="curve" smooth="yes"/>
      <point x="74.0" y="455.0"/>
      <point x="-2.0" y="443.0"/>
      <point x="-2.0" y="443.0" type="curve"/>
      <point x="-2.0" y="402.0" type="line"/>
      <point x="35.0" y="391.0" type="line"/>
      <point x="147.0" y="-3.0" type="line"/>
      <point x="147.0" y="-3.0"/>
      <point x="157.0" y="-11.0"/>
    </contour>
  </outline>
</glyph>
<glyph name="w" format="2">
  <advance width="620.0"/>
  <unicode hex="0077"/>
  <anchor x="291.0" y="448.0" name="top"/>
  <outline>
    <contour>
      <point x="156.0" y="-11.0" type="curve" smooth="yes"/>
      <point x="163.0" y="-11.0"/>
      <point x="247.0" y="7.0"/>
      <point x="247.0" y="7.0" type="curve"/>
      <point x="305.0" y="217.0" type="line"/>
      <point x="311.0" y="217.0" type="line"/>
      <point x="369.0" y="-3.0" type="line"/>
      <point x="369.0" y="-3.0"/>
      <point x="379.0" y="-11.0"/>
      <point x="382.0" y="-11.0" type="curve" smooth="yes"/>
      <point x="389.0" y="-11.0"/>
      <point x="473.0" y="7.0"/>
      <point x="473.0" y="7.0" type="curve"/>
      <point x="600.0" y="420.0" type="line"/>
      <point x="600.0" y="430.0"/>
      <point x="577.0" y="455.0"/>
      <point x="571.0" y="455.0" type="curve" smooth="yes"/>
      <point x="563.0" y="455.0"/>
      <point x="449.0" y="448.0"/>
      <point x="449.0" y="448.0" type="curve"/>
      <point x="449.0" y="400.0" type="line"/>
      <point x="515.0" y="393.0" type="line"/>
      <point x="437.0" y="95.0" type="line"/>
      <point x="426.0" y="95.0" type="line"/>
      <point x="406.0" y="181.0" type="line"/>
      <point x="348.0" y="425.0" type="line"/>
      <point x="345.0" y="435.0"/>
      <point x="315.0" y="455.0"/>
      <point x="309.0" y="455.0" type="curve" smooth="yes"/>
      <point x="300.0" y="455.0"/>
      <point x="224.0" y="443.0"/>
      <point x="224.0" y="443.0" type="curve"/>
      <point x="224.0" y="402.0" type="line"/>
      <point x="261.0" y="392.0" type="line"/>
      <point x="280.0" y="325.0" type="line"/>
      <point x="211.0" y="95.0" type="line"/>
      <point x="200.0" y="95.0" type="line"/>
      <point x="180.0" y="181.0" type="line"/>
      <point x="122.0" y="425.0" type="line" smooth="yes"/>
      <point x="119.0" y="435.0"/>
      <point x="89.0" y="455.0"/>
      <point x="83.0" y="455.0" type="curve" smooth="yes"/>
      <point x="74.0" y="455.0"/>
      <point x="-2.0" y="443.0"/>
      <point x="-2.0" y="443.0" type="curve"/>
      <point x="-2.0" y="402.0" type="line"/>
      <point x="35.0" y="391.0" type="line"/>
      <point x="143.0" y="-3.0" type="line"/>
      <point x="143.0" y="-3.0"/>
      <point x="153.0" y="-11.0"/>
    </contour>
  </outline>
</glyph>
<glyph name="x" format="2">
  <advance width="409"/>
  <unicode hex="0078"/>
  <outline>
    <contour>
      <point x="30" y="-9" type="curve" smooth="yes"/>
      <point x="36" y="-9"/>
      <point x="106" y="-4"/>
      <point x="157" y="0" type="curve"/>
      <point x="157" y="48" type="line"/>
      <point x="109" y="55" type="line"/>
      <point x="189" y="172" type="line"/>
      <point x="286" y="23" type="line" smooth="yes"/>
      <point x="292" y="15"/>
      <point x="319" y="-9"/>
      <point x="325" y="-9" type="curve" smooth="yes"/>
      <point x="332" y="-9"/>
      <point x="370" y="-1"/>
      <point x="397" y="5" type="curve"/>
      <point x="397" y="48" type="line"/>
      <point x="358" y="63" type="line"/>
      <point x="248" y="229" type="line"/>
      <point x="384" y="408" type="line"/>
      <point x="384" y="418"/>
      <point x="371" y="454"/>
      <point x="364" y="454" type="curve" smooth="yes"/>
      <point x="357" y="454"/>
      <point x="289" y="451"/>
      <point x="240" y="448" type="curve"/>
      <point x="240" y="400" type="line"/>
      <point x="289" y="396" type="line"/>
      <point x="214" y="286" type="line"/>
      <point x="126" y="424" type="line" smooth="yes"/>
      <point x="121" y="433"/>
      <point x="101" y="454"/>
      <point x="95" y="454" type="curve" smooth="yes"/>
      <point x="89" y="454"/>
      <point x="47" y="448"/>
      <point x="16" y="443" type="curve"/>
      <point x="16" y="400" type="line"/>
      <point x="51" y="389" type="line"/>
      <point x="154" y="229" type="line"/>
      <point x="10" y="37" type="line"/>
      <point x="10" y="27"/>
      <point x="23" y="-9"/>
    </contour>
  </outline>
</glyph>
<glyph name="y" format="2">
  <advance width="405.0"/>
  <unicode hex="0079"/>
  <anchor x="341.0" y="0.0" name="bottom"/>
  <anchor x="199.0" y="448.0" name="top"/>
  <outline>
    <contour>
      <point x="159.0" y="-181.0" type="curve" smooth="yes"/>
      <point x="167.0" y="-181.0"/>
      <point x="259.0" y="-169.0"/>
      <point x="259.0" y="-169.0" type="curve"/>
      <point x="259.0" y="-132.0" type="line"/>
      <point x="220.0" y="-114.0" type="line"/>
      <point x="249.0" y="0.0" type="line"/>
      <point x="382.0" y="420.0" type="line"/>
      <point x="383.0" y="430.0"/>
      <point x="359.0" y="455.0"/>
      <point x="353.0" y="455.0" type="curve" smooth="yes"/>
      <point x="345.0" y="455.0"/>
      <point x="238.0" y="448.0"/>
      <point x="238.0" y="448.0" type="curve"/>
      <point x="238.0" y="400.0" type="line"/>
      <point x="298.0" y="393.0" type="line"/>
      <point x="214.0" y="85.0" type="line"/>
      <point x="204.0" y="85.0" type="line"/>
      <point x="181.0" y="192.0" type="line"/>
      <point x="123.0" y="425.0" type="line" smooth="yes"/>
      <point x="120.0" y="435.0"/>
      <point x="89.0" y="455.0"/>
      <point x="83.0" y="455.0" type="curve" smooth="yes"/>
      <point x="74.0" y="455.0"/>
      <point x="-2.0" y="443.0"/>
      <point x="-2.0" y="443.0" type="curve"/>
      <point x="-2.0" y="402.0" type="line"/>
      <point x="37.0" y="391.0" type="line"/>
      <point x="143.0" y="5.0" type="line"/>
      <point x="143.0" y="5.0"/>
      <point x="155.0" y="-3.0"/>
      <point x="158.0" y="-3.0" type="curve" smooth="yes"/>
      <point x="162.0" y="-3.0"/>
      <point x="174.0" y="-1.0"/>
      <point x="184.0" y="1.0" type="curve"/>
      <point x="137.0" y="-141.0" type="line"/>
      <point x="137.0" y="-148.0"/>
      <point x="153.0" y="-181.0"/>
    </contour>
  </outline>
</glyph>
<glyph name="z" format="2">
  <advance width="393"/>
  <unicode hex="007A"/>
  <anchor x="207" y="0" name="bottom"/>
  <anchor x="193" y="448" name="top"/>
  <outline>
    <contour>
      <point x="61" y="0" type="curve"/>
      <point x="359" y="0" type="line"/>
      <point x="356" y="144" type="line"/>
      <point x="305" y="144" type="line"/>
      <point x="293" y="60" type="line"/>
      <point x="159" y="66" type="line"/>
      <point x="159" y="80" type="line"/>
      <point x="222" y="187"/>
      <point x="283" y="293"/>
      <point x="344" y="403" type="curve"/>
      <point x="340" y="416"/>
      <point x="326" y="440"/>
      <point x="321" y="448" type="curve"/>
      <point x="46" y="448" type="line"/>
      <point x="54" y="326" type="line"/>
      <point x="106" y="326" type="line"/>
      <point x="115" y="392" type="line"/>
      <point x="225" y="386" type="line"/>
      <point x="227" y="374" type="line"/>
      <point x="156" y="253"/>
      <point x="106" y="156"/>
      <point x="38" y="46" type="curve"/>
      <point x="40" y="39"/>
      <point x="54" y="9"/>
    </contour>
  </outline>
</glyph>
<glyph name="braceleft" format="2">
  <advance width="285.0"/>
  <unicode hex="007B"/>
  <outline>
    <contour>
      <point x="246.0" y="-112.0" type="line"/>
      <point x="251.0" y="-77.0" type="line"/>
      <point x="180.0" y="-56.0" type="line"/>
      <point x="180.0" y="228.0" type="line"/>
      <point x="102.0" y="279.0" type="line"/>
      <point x="180.0" y="324.0" type="line"/>
      <point x="180.0" y="624.0" type="line"/>
      <point x="251.0" y="644.0" type="line"/>
      <point x="246.0" y="680.0" type="line"/>
      <point x="103.0" y="673.0" type="line"/>
      <point x="103.0" y="340.0" type="line"/>
      <point x="33.0" y="293.0" type="line"/>
      <point x="33.0" y="259.0" type="line"/>
      <point x="103.0" y="212.0" type="line"/>
      <point x="103.0" y="-105.0" type="line"/>
    </contour>
  </outline>
</glyph>
<glyph name="bar" format="2">
  <advance width="205.0"/>
  <unicode hex="007C"/>
  <outline>
    <contour>
      <point x="70.0" y="-196.0" type="line"/>
      <point x="135.0" y="-196.0" type="line"/>
      <point x="135.0" y="673.0" type="line"/>
      <point x="70.0" y="673.0" type="line"/>
    </contour>
  </outline>
</glyph>
<glyph name="braceright" format="2">
  <advance width="285"/>
  <unicode hex="007D"/>
  <outline>
    <contour>
      <point x="38" y="-112" type="line"/>
      <point x="181" y="-105" type="line"/>
      <point x="181" y="212" type="line"/>
      <point x="251" y="259" type="line"/>
      <point x="251" y="293" type="line"/>
      <point x="181" y="340" type="line"/>
      <point x="181" y="673" type="line"/>
      <point x="38" y="680" type="line"/>
      <point x="33" y="644" type="line"/>
      <point x="104" y="624" type="line"/>
      <point x="104" y="324" type="line"/>
      <point x="182" y="279" type="line"/>
      <point x="104" y="228" type="line"/>
      <point x="104" y="-56" type="line"/>
      <point x="33" y="-77" type="line"/>
    </contour>
  </outline>
</glyph>
<glyph name="asciitilde" format="2">
  <advance width="568"/>
  <unicode hex="007E"/>
  <outline>
    <contour>
      <point x="388" y="276" type="curve" smooth="yes"/>
      <point x="418" y="276"/>
      <point x="467" y="331"/>
      <point x="483" y="352" type="curve"/>
      <point x="450" y="380" type="line"/>
      <point x="439" y="367"/>
      <point x="416" y="343"/>
      <point x="401" y="343" type="curve" smooth="yes"/>
      <point x="361" y="343"/>
      <point x="239" y="384"/>
      <point x="179" y="384" type="curve" smooth="yes"/>
      <point x="149" y="384"/>
      <point x="103" y="327"/>
      <point x="85" y="306" type="curve"/>
      <point x="117" y="279" type="line"/>
      <point x="125" y="285"/>
      <point x="157" y="313"/>
      <point x="172" y="313" type="curve" smooth="yes"/>
      <point x="212" y="313"/>
      <point x="306" y="276"/>
    </contour>
  </outline>
</glyph>
<glyph name="exclamdown" format="2">
  <advance width="261.0"/>
  <unicode hex="00A1"/>
  <outline>
    <contour>
      <point x="102.0" y="-177.0" type="curve" smooth="yes"/>
      <point x="107.0" y="-177.0"/>
      <point x="152.0" y="-168.0"/>
      <point x="178.0" y="-163.0" type="curve"/>
      <point x="160.0" y="250.0" type="line" smooth="yes"/>
      <point x="160.0" y="253.0"/>
      <point x="149.0" y="263.0"/>
      <point x="146.0" y="263.0" type="curve" smooth="yes"/>
      <point x="137.0" y="263.0"/>
      <point x="114.0" y="260.0"/>
      <point x="99.0" y="258.0" type="curve"/>
      <point x="81.0" y="-158.0" type="line" smooth="yes"/>
      <point x="81.0" y="-162.0"/>
      <point x="99.0" y="-177.0"/>
    </contour>
    <contour>
      <point x="89.0" y="335.0" type="line"/>
      <point x="173.0" y="335.0" type="line"/>
      <point x="178.0" y="426.0" type="line" smooth="yes"/>
      <point x="178.0" y="430.0"/>
      <point x="165.0" y="448.0"/>
      <point x="161.0" y="448.0" type="curve" smooth="yes"/>
      <point x="134.0" y="448.0"/>
      <point x="109.0" y="445.0"/>
      <point x="82.0" y="442.0" type="curve"/>
    </contour>
  </outline>
</glyph>
<glyph name="cent" format="2">
  <advance width="364.0"/>
  <unicode hex="00A2"/>
  <anchor x="202.0" y="41.0" name="bottom"/>
  <anchor x="201.0" y="489.0" name="top"/>
  <outline>
    <contour>
      <point x="190.0" y="470.0" type="line"/>
      <point x="241.0" y="470.0" type="line"/>
      <point x="241.0" y="577.0" type="line"/>
      <point x="190.0" y="577.0" type="line"/>
    </contour>
    <contour>
      <point x="194.0" y="-52.0" type="line"/>
      <point x="246.0" y="-52.0" type="line"/>
      <point x="246.0" y="55.0" type="line"/>
      <point x="194.0" y="55.0" type="line"/>
    </contour>
    <component base="c" xOffset="14.0" yOffset="41.0"/>
  </outline>
</glyph>
<glyph name="currency" format="2">
  <advance width="667.0"/>
  <unicode hex="00A4"/>
  <outline>
    <contour>
      <point x="122.0" y="140.0" type="line"/>
      <point x="187.0" y="203.0" type="line"/>
      <point x="224.0" y="171.0"/>
      <point x="273.0" y="152.0"/>
      <point x="331.0" y="152.0" type="curve" smooth="yes"/>
      <point x="387.0" y="152.0"/>
      <point x="438.0" y="173.0"/>
      <point x="476.0" y="206.0" type="curve"/>
      <point x="545.0" y="139.0" type="line"/>
      <point x="582.0" y="178.0" type="line"/>
      <point x="512.0" y="246.0" type="line"/>
      <point x="537.0" y="283.0"/>
      <point x="552.0" y="326.0"/>
      <point x="552.0" y="373.0" type="curve" smooth="yes"/>
      <point x="552.0" y="419.0"/>
      <point x="539.0" y="461.0"/>
      <point x="516.0" y="495.0" type="curve"/>
      <point x="581.0" y="559.0" type="line"/>
      <point x="544.0" y="598.0" type="line"/>
      <point x="480.0" y="536.0" type="line"/>
      <point x="443.0" y="567.0"/>
      <point x="395.0" y="586.0"/>
      <point x="339.0" y="586.0" type="curve" smooth="yes"/>
      <point x="281.0" y="586.0"/>
      <point x="230.0" y="565.0"/>
      <point x="191.0" y="530.0" type="curve"/>
      <point x="122.0" y="598.0" type="line"/>
      <point x="85.0" y="559.0" type="line"/>
      <point x="155.0" y="488.0" type="line"/>
      <point x="132.0" y="453.0"/>
      <point x="118.0" y="410.0"/>
      <point x="118.0" y="365.0" type="curve" smooth="yes"/>
      <point x="118.0" y="319.0"/>
      <point x="130.0" y="278.0"/>
      <point x="152.0" y="244.0" type="curve"/>
      <point x="85.0" y="179.0" type="line"/>
    </contour>
    <contour>
      <point x="335.0" y="214.0" type="curve" smooth="yes"/>
      <point x="238.0" y="214.0"/>
      <point x="190.0" y="282.0"/>
      <point x="190.0" y="369.0" type="curve" smooth="yes"/>
      <point x="190.0" y="465.0"/>
      <point x="239.0" y="524.0"/>
      <point x="336.0" y="524.0" type="curve" smooth="yes"/>
      <point x="432.0" y="524.0"/>
      <point x="480.0" y="457.0"/>
      <point x="480.0" y="369.0" type="curve" smooth="yes"/>
      <point x="480.0" y="273.0"/>
      <point x="431.0" y="214.0"/>
    </contour>
  </outline>
</glyph>
<glyph name="yen" format="2">
  <advance width="589.0"/>
  <unicode hex="00A5"/>
  <outline>
    <contour>
      <point x="185.0" y="0.0" type="line"/>
      <point x="408.0" y="0.0" type="line"/>
      <point x="408.0" y="38.0" type="line"/>
      <point x="343.0" y="58.0" type="line"/>
      <point x="343.0" y="170.0" type="line"/>
      <point x="483.0" y="170.0" type="line"/>
      <point x="488.0" y="219.0" type="line"/>
      <point x="343.0" y="219.0" type="line"/>
      <point x="343.0" y="232.0" type="line"/>
      <point x="362.0" y="269.0" type="line"/>
      <point x="483.0" y="269.0" type="line"/>
      <point x="488.0" y="318.0" type="line"/>
      <point x="385.0" y="318.0" type="line"/>
      <point x="492.0" y="489.0" type="line"/>
      <point x="554.0" y="509.0" type="line"/>
      <point x="554.0" y="547.0" type="line"/>
      <point x="333.0" y="547.0" type="line"/>
      <point x="333.0" y="501.0" type="line"/>
      <point x="402.0" y="484.0" type="line"/>
      <point x="310.0" y="299.0" type="line"/>
      <point x="301.0" y="299.0" type="line"/>
      <point x="196.0" y="484.0" type="line"/>
      <point x="264.0" y="501.0" type="line"/>
      <point x="264.0" y="547.0" type="line"/>
      <point x="35.0" y="547.0" type="line"/>
      <point x="35.0" y="509.0" type="line"/>
      <point x="97.0" y="489.0" type="line"/>
      <point x="203.0" y="318.0" type="line"/>
      <point x="111.0" y="318.0" type="line"/>
      <point x="106.0" y="269.0" type="line"/>
      <point x="224.0" y="269.0" type="line"/>
      <point x="251.0" y="219.0" type="line"/>
      <point x="111.0" y="219.0" type="line"/>
      <point x="106.0" y="170.0" type="line"/>
      <point x="252.0" y="170.0" type="line"/>
      <point x="252.0" y="58.0" type="line"/>
      <point x="185.0" y="38.0" type="line"/>
    </contour>
  </outline>
</glyph>
<glyph name="brokenbar" format="2">
  <advance width="205.0"/>
  <unicode hex="00A6"/>
  <outline>
    <contour>
      <point x="70.0" y="308.0" type="line"/>
      <point x="135.0" y="308.0" type="line"/>
      <point x="135.0" y="673.0" type="line"/>
      <point x="70.0" y="673.0" type="line"/>
    </contour>
    <contour>
      <point x="70.0" y="-196.0" type="line"/>
      <point x="135.0" y="-196.0" type="line"/>
      <point x="135.0" y="184.0" type="line"/>
      <point x="70.0" y="184.0" type="line"/>
    </contour>
  </outline>
</glyph>
<glyph name="section" format="2">
  <advance width="472"/>
  <unicode hex="00A7"/>
  <outline>
    <contour>
      <point x="265" y="-104" type="curve" smooth="yes"/>
      <point x="297" y="-104"/>
      <point x="371" y="-50"/>
      <point x="393" y="-14" type="curve"/>
      <point x="397" y="-2"/>
      <point x="400" y="26"/>
      <point x="400" y="38" type="curve" smooth="yes"/>
      <point x="400" y="76"/>
      <point x="375" y="110"/>
      <point x="336" y="139" type="curve"/>
      <point x="354" y="154"/>
      <point x="380" y="179"/>
      <point x="393" y="200" type="curve"/>
      <point x="397" y="212"/>
      <point x="400" y="240"/>
      <point x="400" y="258" type="curve" smooth="yes"/>
      <point x="400" y="304"/>
      <point x="350" y="347"/>
      <point x="283" y="384" type="curve" smooth="yes"/>
      <point x="214" y="422"/>
      <point x="175" y="450"/>
      <point x="175" y="493" type="curve" smooth="yes"/>
      <point x="175" y="508"/>
      <point x="189" y="547"/>
      <point x="199" y="547" type="curve" smooth="yes"/>
      <point x="219" y="547"/>
      <point x="291" y="532"/>
      <point x="323" y="526" type="curve"/>
      <point x="332" y="450" type="line"/>
      <point x="380" y="450" type="line"/>
      <point x="391" y="598" type="line"/>
      <point x="340" y="603"/>
      <point x="265" y="611"/>
      <point x="248" y="611" type="curve" smooth="yes"/>
      <point x="216" y="611"/>
      <point x="118" y="543"/>
      <point x="96" y="506" type="curve"/>
      <point x="92" y="491"/>
      <point x="90" y="478"/>
      <point x="90" y="465" type="curve" smooth="yes"/>
      <point x="90" y="420"/>
      <point x="114" y="385"/>
      <point x="157" y="354" type="curve"/>
      <point x="130" y="335"/>
      <point x="104" y="311"/>
      <point x="96" y="295" type="curve"/>
      <point x="92" y="280"/>
      <point x="90" y="267"/>
      <point x="90" y="254" type="curve" smooth="yes"/>
      <point x="90" y="191"/>
      <point x="139" y="148"/>
      <point x="221" y="105" type="curve" smooth="yes"/>
      <point x="270" y="78"/>
      <point x="314" y="44"/>
      <point x="314" y="9" type="curve" smooth="yes"/>
      <point x="314" y="-7"/>
      <point x="304" y="-40"/>
      <point x="298" y="-40" type="curve" smooth="yes"/>
      <point x="260" y="-40"/>
      <point x="203" y="-30"/>
      <point x="152" y="-23" type="curve"/>
      <point x="143" y="62" type="line"/>
      <point x="94" y="62" type="line"/>
      <point x="85" y="-95" type="line"/>
      <point x="142" y="-100"/>
      <point x="219" y="-104"/>
    </contour>
    <contour>
      <point x="298" y="166" type="curve"/>
      <point x="252" y="189"/>
      <point x="175" y="224"/>
      <point x="175" y="274" type="curve" smooth="yes"/>
      <point x="175" y="291"/>
      <point x="187" y="317"/>
      <point x="196" y="330" type="curve"/>
      <point x="233" y="309"/>
      <point x="314" y="275"/>
      <point x="314" y="223" type="curve" smooth="yes"/>
      <point x="314" y="207"/>
      <point x="306" y="180"/>
    </contour>
  </outline>
</glyph>
<glyph name="dieresis" format="2">
  <advance width="247.0"/>
  <unicode hex="00A8"/>
  <outline>
    <contour>
      <point x="162.0" y="537.0" type="line"/>
      <point x="242.0" y="537.0" type="line"/>
      <point x="247.0" y="624.0" type="line"/>
      <point x="232.0" y="646.0" type="line"/>
      <point x="155.0" y="641.0" type="line"/>
    </contour>
    <contour>
      <point x="7.0" y="537.0" type="line"/>
      <point x="87.0" y="537.0" type="line"/>
      <point x="92.0" y="624.0" type="line"/>
      <point x="77.0" y="646.0" type="line"/>
      <point x="0.0" y="641.0" type="line"/>
    </contour>
  </outline>
</glyph>
<glyph name="copyright" format="2">
  <advance width="838.0"/>
  <unicode hex="00A9"/>
  <outline>
    <contour>
      <point x="419.0" y="93.0" type="curve" smooth="yes"/>
      <point x="616.0" y="93.0"/>
      <point x="757.0" y="234.0"/>
      <point x="757.0" y="431.0" type="curve" smooth="yes"/>
      <point x="757.0" y="628.0"/>
      <point x="616.0" y="769.0"/>
      <point x="419.0" y="769.0" type="curve" smooth="yes"/>
      <point x="222.0" y="769.0"/>
      <point x="81.0" y="628.0"/>
      <point x="81.0" y="431.0" type="curve" smooth="yes"/>
      <point x="81.0" y="234.0"/>
      <point x="222.0" y="93.0"/>
    </contour>
    <contour>
      <point x="402.0" y="257.0" type="curve" smooth="yes"/>
      <point x="414.0" y="257.0"/>
      <point x="491.0" y="275.0"/>
      <point x="513.0" y="281.0" type="curve"/>
      <point x="508.0" y="314.0" type="line"/>
      <point x="428.0" y="304.0" type="line"/>
      <point x="384.0" y="304.0"/>
      <point x="349.0" y="332.0"/>
      <point x="349.0" y="454.0" type="curve" smooth="yes"/>
      <point x="349.0" y="515.0"/>
      <point x="362.0" y="576.0"/>
      <point x="379.0" y="576.0" type="curve" smooth="yes"/>
      <point x="397.0" y="576.0"/>
      <point x="436.0" y="568.0"/>
      <point x="459.0" y="564.0" type="curve"/>
      <point x="467.0" y="499.0" type="line"/>
      <point x="503.0" y="499.0" type="line"/>
      <point x="512.0" y="614.0" type="line"/>
      <point x="480.0" y="617.0"/>
      <point x="422.0" y="620.0"/>
      <point x="412.0" y="620.0" type="curve" smooth="yes"/>
      <point x="391.0" y="620.0"/>
      <point x="319.0" y="572.0"/>
      <point x="295.0" y="541.0" type="curve"/>
      <point x="289.0" y="520.0"/>
      <point x="280.0" y="478.0"/>
      <point x="280.0" y="431.0" type="curve" smooth="yes"/>
      <point x="280.0" y="310.0"/>
      <point x="346.0" y="257.0"/>
    </contour>
    <contour>
      <point x="419.0" y="149.0" type="curve" smooth="yes"/>
      <point x="252.0" y="149.0"/>
      <point x="147.0" y="264.0"/>
      <point x="147.0" y="431.0" type="curve" smooth="yes"/>
      <point x="147.0" y="598.0"/>
      <point x="252.0" y="713.0"/>
      <point x="419.0" y="713.0" type="curve" smooth="yes"/>
      <point x="586.0" y="713.0"/>
      <point x="691.0" y="598.0"/>
      <point x="691.0" y="431.0" type="curve" smooth="yes"/>
      <point x="691.0" y="264.0"/>
      <point x="586.0" y="149.0"/>
    </contour>
  </outline>
</glyph>
<glyph name="ordfeminine" format="2">
  <advance width="390"/>
  <unicode hex="00AA"/>
  <outline>
    <contour>
      <point x="174" y="319" type="curve" smooth="yes"/>
      <point x="181" y="319"/>
      <point x="217" y="360"/>
      <point x="243" y="384" type="curve"/>
      <point x="243" y="348" type="line" smooth="yes"/>
      <point x="243" y="341"/>
      <point x="268" y="319"/>
      <point x="273" y="319" type="curve" smooth="yes"/>
      <point x="281" y="319"/>
      <point x="354" y="333"/>
      <point x="354" y="333" type="curve"/>
      <point x="354" y="367" type="line"/>
      <point x="322" y="380" type="line"/>
      <point x="322" y="666" type="line"/>
      <point x="301" y="669"/>
      <point x="189" y="686"/>
      <point x="174" y="686" type="curve" smooth="yes"/>
      <point x="154" y="686"/>
      <point x="71" y="622"/>
      <point x="51" y="597" type="curve"/>
      <point x="41" y="575"/>
      <point x="36" y="530"/>
      <point x="36" y="490" type="curve" smooth="yes"/>
      <point x="36" y="371"/>
      <point x="107" y="319"/>
    </contour>
    <contour>
      <point x="180" y="385" type="curve" smooth="yes"/>
      <point x="163" y="385"/>
      <point x="124" y="425"/>
      <point x="124" y="502" type="curve" smooth="yes"/>
      <point x="124" y="575"/>
      <point x="143" y="642"/>
      <point x="154" y="642" type="curve" smooth="yes"/>
      <point x="163" y="642"/>
      <point x="214" y="625"/>
      <point x="240" y="618" type="curve"/>
      <point x="240" y="422" type="line"/>
      <point x="240" y="422"/>
      <point x="187" y="385"/>
    </contour>
  </outline>
</glyph>
<glyph name="guillemetleft" format="2">
  <advance width="429.0"/>
  <unicode hex="00AB"/>
  <outline>
    <contour>
      <point x="339.0" y="54.0" type="line"/>
      <point x="371.0" y="79.0" type="line"/>
      <point x="293.0" y="233.0" type="line"/>
      <point x="293.0" y="239.0" type="line"/>
      <point x="374.0" y="383.0" type="line"/>
      <point x="342.0" y="406.0" type="line"/>
      <point x="202.0" y="255.0" type="line"/>
      <point x="202.0" y="218.0" type="line"/>
    </contour>
    <contour>
      <point x="171.0" y="54.0" type="line"/>
      <point x="203.0" y="79.0" type="line"/>
      <point x="126.0" y="233.0" type="line"/>
      <point x="126.0" y="239.0" type="line"/>
      <point x="207.0" y="383.0" type="line"/>
      <point x="175.0" y="406.0" type="line"/>
      <point x="35.0" y="255.0" type="line"/>
      <point x="35.0" y="218.0" type="line"/>
    </contour>
  </outline>
</glyph>
<glyph name="logicalnot" format="2">
  <advance width="475.0"/>
  <unicode hex="00AC"/>
  <outline>
    <contour>
      <point x="20.0" y="256.0" type="line"/>
      <point x="445.0" y="256.0" type="line"/>
      <point x="445.0" y="314.0" type="line"/>
      <point x="20.0" y="314.0" type="line"/>
    </contour>
    <contour>
      <point x="385.0" y="159.0" type="line"/>
      <point x="445.0" y="159.0" type="line"/>
      <point x="445.0" y="314.0" type="line"/>
      <point x="385.0" y="314.0" type="line"/>
    </contour>
  </outline>
</glyph>
<glyph name="registered" format="2">
  <advance width="674.0"/>
  <unicode hex="00AE"/>
  <outline>
    <contour>
      <point x="337.0" y="239.0" type="curve" smooth="yes"/>
      <point x="492.0" y="239.0"/>
      <point x="603.0" y="354.0"/>
      <point x="603.0" y="505.0" type="curve" smooth="yes"/>
      <point x="603.0" y="656.0"/>
      <point x="492.0" y="771.0"/>
      <point x="337.0" y="771.0" type="curve" smooth="yes"/>
      <point x="182.0" y="771.0"/>
      <point x="71.0" y="656.0"/>
      <point x="71.0" y="505.0" type="curve" smooth="yes"/>
      <point x="71.0" y="354.0"/>
      <point x="182.0" y="239.0"/>
    </contour>
    <contour>
      <point x="337.0" y="295.0" type="curve" smooth="yes"/>
      <point x="210.0" y="295.0"/>
      <point x="133.0" y="386.0"/>
      <point x="133.0" y="505.0" type="curve" smooth="yes"/>
      <point x="133.0" y="632.0"/>
      <point x="210.0" y="716.0"/>
      <point x="337.0" y="716.0" type="curve" smooth="yes"/>
      <point x="464.0" y="716.0"/>
      <point x="541.0" y="624.0"/>
      <point x="541.0" y="505.0" type="curve" smooth="yes"/>
      <point x="541.0" y="379.0"/>
      <point x="464.0" y="295.0"/>
    </contour>
    <contour>
      <point x="232.0" y="368.0" type="line"/>
      <point x="337.0" y="368.0" type="line"/>
      <point x="337.0" y="394.0" type="line"/>
      <point x="308.0" y="400.0" type="line"/>
      <point x="308.0" y="474.0" type="line"/>
      <point x="342.0" y="474.0" type="line"/>
      <point x="391.0" y="368.0" type="line"/>
      <point x="448.0" y="368.0" type="line"/>
      <point x="448.0" y="394.0" type="line"/>
      <point x="425.0" y="400.0" type="line"/>
      <point x="383.0" y="475.0" type="line"/>
      <point x="383.0" y="480.0" type="line"/>
      <point x="405.0" y="488.0"/>
      <point x="436.0" y="511.0"/>
      <point x="436.0" y="566.0" type="curve" smooth="yes"/>
      <point x="436.0" y="605.0"/>
      <point x="415.0" y="643.0"/>
      <point x="352.0" y="643.0" type="curve" smooth="yes"/>
      <point x="232.0" y="643.0" type="line"/>
      <point x="232.0" y="619.0" type="line"/>
      <point x="259.0" y="611.0" type="line"/>
      <point x="259.0" y="397.0" type="line"/>
      <point x="232.0" y="389.0" type="line"/>
    </contour>
    <contour>
      <point x="312.0" y="507.0" type="line"/>
      <point x="312.0" y="610.0" type="line"/>
      <point x="356.0" y="616.0" type="line"/>
      <point x="381.0" y="616.0"/>
      <point x="382.0" y="593.0"/>
      <point x="382.0" y="554.0" type="curve" smooth="yes"/>
      <point x="382.0" y="512.0"/>
      <point x="374.0" y="507.0"/>
      <point x="346.0" y="507.0" type="curve" smooth="yes"/>
    </contour>
  </outline>
</glyph>
<glyph name="macron" format="2">
  <advance width="285"/>
  <unicode hex="00AF"/>
  <outline>
    <contour>
      <point x="0" y="547" type="line"/>
      <point x="285" y="547" type="line"/>
      <point x="285" y="613" type="line"/>
      <point x="0" y="613" type="line"/>
    </contour>
  </outline>
</glyph>
<glyph name="degree" format="2">
  <advance width="309.0"/>
  <unicode hex="00B0"/>
  <outline>
    <contour>
      <point x="152.0" y="384.0" type="curve" smooth="yes"/>
      <point x="216.0" y="384.0"/>
      <point x="269.0" y="432.0"/>
      <point x="269.0" y="497.0" type="curve" smooth="yes"/>
      <point x="269.0" y="561.0"/>
      <point x="220.0" y="607.0"/>
      <point x="156.0" y="607.0" type="curve" smooth="yes"/>
      <point x="91.0" y="607.0"/>
      <point x="40.0" y="557.0"/>
      <point x="40.0" y="493.0" type="curve" smooth="yes"/>
      <point x="40.0" y="428.0"/>
      <point x="87.0" y="384.0"/>
    </contour>
    <contour>
      <point x="154.0" y="439.0" type="curve" smooth="yes"/>
      <point x="124.0" y="439.0"/>
      <point x="101.0" y="461.0"/>
      <point x="101.0" y="495.0" type="curve" smooth="yes"/>
      <point x="101.0" y="529.0"/>
      <point x="124.0" y="552.0"/>
      <point x="154.0" y="552.0" type="curve" smooth="yes"/>
      <point x="183.0" y="552.0"/>
      <point x="208.0" y="529.0"/>
      <point x="208.0" y="495.0" type="curve" smooth="yes"/>
      <point x="208.0" y="461.0"/>
      <point x="183.0" y="439.0"/>
    </contour>
  </outline>
</glyph>
<glyph name="plusminus" format="2">
  <advance width="559.0"/>
  <unicode hex="00B1"/>
  <outline>
    <contour>
      <point x="242.0" y="113.0" type="line"/>
      <point x="316.0" y="113.0" type="line"/>
      <point x="316.0" y="474.0" type="line"/>
      <point x="242.0" y="474.0" type="line"/>
    </contour>
    <contour>
      <point x="85.0" y="-9.0" type="line"/>
      <point x="474.0" y="-9.0" type="line"/>
      <point x="474.0" y="51.0" type="line"/>
      <point x="85.0" y="51.0" type="line"/>
    </contour>
    <contour>
      <point x="85.0" y="264.0" type="line"/>
      <point x="474.0" y="264.0" type="line"/>
      <point x="474.0" y="324.0" type="line"/>
      <point x="85.0" y="324.0" type="line"/>
    </contour>
  </outline>
</glyph>
<glyph name="twosuperior" format="2">
  <advance width="380"/>
  <unicode hex="00B2"/>
  <outline>
    <contour>
      <point x="59" y="363" type="line"/>
      <point x="330" y="363" type="line"/>
      <point x="288" y="419" type="line"/>
      <point x="162" y="419" type="line"/>
      <point x="162" y="423" type="line"/>
      <point x="255" y="531" type="line" smooth="yes"/>
      <point x="280" y="560"/>
      <point x="306" y="595"/>
      <point x="306" y="633" type="curve" smooth="yes"/>
      <point x="306" y="693"/>
      <point x="253" y="713"/>
      <point x="206" y="713" type="curve" smooth="yes"/>
      <point x="189" y="713"/>
      <point x="121" y="704"/>
      <point x="82" y="696" type="curve"/>
      <point x="134" y="651" type="line"/>
      <point x="146" y="654"/>
      <point x="200" y="666"/>
      <point x="210" y="666" type="curve" smooth="yes"/>
      <point x="221" y="666"/>
      <point x="229" y="641"/>
      <point x="229" y="621" type="curve" smooth="yes"/>
      <point x="229" y="600"/>
      <point x="213" y="571"/>
      <point x="181" y="535" type="curve" smooth="yes"/>
      <point x="54" y="389" type="line"/>
    </contour>
    <contour>
      <point x="276" y="363" type="line"/>
      <point x="330" y="363" type="line"/>
      <point x="327" y="479" type="line"/>
      <point x="288" y="479" type="line"/>
    </contour>
    <contour>
      <point x="88" y="593" type="line"/>
      <point x="126" y="593" type="line"/>
      <point x="140" y="696" type="line"/>
      <point x="82" y="696" type="line"/>
    </contour>
  </outline>
</glyph>
<glyph name="threesuperior" format="2">
  <advance width="374.0"/>
  <unicode hex="00B3"/>
  <outline>
    <contour>
      <point x="178.0" y="355.0" type="curve" smooth="yes"/>
      <point x="250.0" y="355.0"/>
      <point x="302.0" y="417.0"/>
      <point x="302.0" y="470.0" type="curve" smooth="yes"/>
      <point x="302.0" y="519.0"/>
      <point x="271.0" y="547.0"/>
      <point x="222.0" y="559.0" type="curve"/>
      <point x="222.0" y="561.0" type="line"/>
      <point x="136.0" y="527.0" type="line"/>
      <point x="202.0" y="527.0" type="line" smooth="yes"/>
      <point x="215.0" y="527.0"/>
      <point x="228.0" y="511.0"/>
      <point x="228.0" y="472.0" type="curve" smooth="yes"/>
      <point x="228.0" y="433.0"/>
      <point x="212.0" y="406.0"/>
      <point x="202.0" y="402.0" type="curve" smooth="yes"/>
      <point x="185.0" y="395.0"/>
      <point x="132.0" y="399.0"/>
      <point x="89.0" y="400.0" type="curve"/>
      <point x="84.0" y="368.0" type="line"/>
      <point x="122.0" y="361.0"/>
      <point x="163.0" y="355.0"/>
    </contour>
    <contour>
      <point x="82.0" y="617.0" type="line"/>
      <point x="118.0" y="617.0" type="line"/>
      <point x="135.0" y="708.0" type="line"/>
      <point x="82.0" y="708.0" type="line"/>
    </contour>
    <contour>
      <point x="136.0" y="527.0" type="line"/>
      <point x="201.0" y="544.0"/>
      <point x="282.0" y="582.0"/>
      <point x="282.0" y="638.0" type="curve" smooth="yes"/>
      <point x="282.0" y="690.0"/>
      <point x="246.0" y="717.0"/>
      <point x="183.0" y="717.0" type="curve" smooth="yes"/>
      <point x="166.0" y="717.0"/>
      <point x="118.0" y="713.0"/>
      <point x="82.0" y="708.0" type="curve"/>
      <point x="127.0" y="666.0" type="line"/>
      <point x="139.0" y="668.0"/>
      <point x="186.0" y="675.0"/>
      <point x="196.0" y="675.0" type="curve" smooth="yes"/>
      <point x="207.0" y="675.0"/>
      <point x="213.0" y="650.0"/>
      <point x="213.0" y="631.0" type="curve" smooth="yes"/>
      <point x="213.0" y="595.0"/>
      <point x="208.0" y="572.0"/>
      <point x="136.0" y="559.0" type="curve"/>
    </contour>
  </outline>
</glyph>
<glyph name="acute" format="2">
  <advance width="185.0"/>
  <unicode hex="00B4"/>
  <outline>
    <contour>
      <point x="23.0" y="519.0" type="line"/>
      <point x="185.0" y="605.0" type="line"/>
      <point x="185.0" y="630.0" type="line"/>
      <point x="136.0" y="680.0" type="line"/>
      <point x="0.0" y="549.0" type="line"/>
    </contour>
  </outline>
</glyph>
<glyph name="paragraph" format="2">
  <advance width="677"/>
  <unicode hex="00B6"/>
  <outline>
    <contour>
      <point x="239" y="0" type="line"/>
      <point x="395" y="0" type="line"/>
      <point x="395" y="603" type="line"/>
      <point x="217" y="603" type="line" smooth="yes"/>
      <point x="118" y="603"/>
      <point x="56" y="557"/>
      <point x="56" y="429" type="curve" smooth="yes"/>
      <point x="56" y="270"/>
      <point x="147" y="215"/>
      <point x="246" y="215" type="curve" smooth="yes"/>
      <point x="324" y="215" type="line"/>
      <point x="324" y="63" type="line"/>
      <point x="239" y="46" type="line"/>
    </contour>
    <contour>
      <point x="457" y="0" type="line"/>
      <point x="590" y="0" type="line"/>
      <point x="590" y="38" type="line"/>
      <point x="528" y="58" type="line"/>
      <point x="528" y="544" type="line"/>
      <point x="593" y="564" type="line"/>
      <point x="593" y="603" type="line"/>
      <point x="457" y="603" type="line"/>
    </contour>
  </outline>
</glyph>
<glyph name="onesuperior" format="2">
  <advance width="359.0"/>
  <unicode hex="00B9"/>
  <outline>
    <contour>
      <point x="160.0" y="363.0" type="line"/>
      <point x="235.0" y="363.0" type="line"/>
      <point x="235.0" y="701.0" type="line"/>
      <point x="160.0" y="691.0" type="line"/>
    </contour>
    <contour>
      <point x="80.0" y="363.0" type="line"/>
      <point x="304.0" y="363.0" type="line"/>
      <point x="304.0" y="397.0" type="line"/>
      <point x="193.0" y="419.0" type="line"/>
      <point x="80.0" y="399.0" type="line"/>
    </contour>
    <contour>
      <point x="76.0" y="638.0" type="line"/>
      <point x="160.0" y="646.0" type="line"/>
      <point x="235.0" y="701.0" type="line"/>
      <point x="200.0" y="713.0" type="line"/>
      <point x="76.0" y="673.0" type="line"/>
    </contour>
  </outline>
</glyph>
<glyph name="ordmasculine" format="2">
  <advance width="378.0"/>
  <unicode hex="00BA"/>
  <outline>
    <contour>
      <point x="196.0" y="317.0" type="curve" smooth="yes"/>
      <point x="215.0" y="317.0"/>
      <point x="308.0" y="383.0"/>
      <point x="328.0" y="408.0" type="curve"/>
      <point x="335.0" y="429.0"/>
      <point x="342.0" y="476.0"/>
      <point x="342.0" y="510.0" type="curve" smooth="yes"/>
      <point x="342.0" y="616.0"/>
      <point x="290.0" y="686.0"/>
      <point x="180.0" y="686.0" type="curve" smooth="yes"/>
      <point x="160.0" y="686.0"/>
      <point x="69.0" y="620.0"/>
      <point x="51.0" y="595.0" type="curve"/>
      <point x="40.0" y="574.0"/>
      <point x="36.0" y="529.0"/>
      <point x="36.0" y="490.0" type="curve" smooth="yes"/>
      <point x="36.0" y="380.0"/>
      <point x="94.0" y="317.0"/>
    </contour>
    <contour>
      <point x="195.0" y="367.0" type="curve"/>
      <point x="157.0" y="367.0"/>
      <point x="124.0" y="421.0"/>
      <point x="124.0" y="502.0" type="curve" smooth="yes"/>
      <point x="124.0" y="577.0"/>
      <point x="146.0" y="640.0"/>
      <point x="152.0" y="640.0" type="curve" smooth="yes"/>
      <point x="157.0" y="640.0"/>
      <point x="185.0" y="639.0"/>
      <point x="200.0" y="633.0" type="curve" smooth="yes"/>
      <point x="244.0" y="615.0"/>
      <point x="254.0" y="547.0"/>
      <point x="254.0" y="498.0" type="curve" smooth="yes"/>
      <point x="254.0" y="451.0"/>
      <point x="250.0" y="411.0"/>
      <point x="246.0" y="390.0" type="curve"/>
      <point x="246.0" y="390.0"/>
      <point x="199.0" y="369.0"/>
    </contour>
  </outline>
</glyph>
<glyph name="guillemetright" format="2">
  <advance width="429.0"/>
  <unicode hex="00BB"/>
  <outline>
    <contour>
      <point x="258.0" y="54.0" type="line"/>
      <point x="394.0" y="218.0" type="line"/>
      <point x="394.0" y="255.0" type="line"/>
      <point x="254.0" y="406.0" type="line"/>
      <point x="222.0" y="383.0" type="line"/>
      <point x="303.0" y="239.0" type="line"/>
      <point x="303.0" y="233.0" type="line"/>
      <point x="226.0" y="79.0" type="line"/>
    </contour>
    <contour>
      <point x="90.0" y="54.0" type="line"/>
      <point x="227.0" y="218.0" type="line"/>
      <point x="227.0" y="255.0" type="line"/>
      <point x="87.0" y="406.0" type="line"/>
      <point x="55.0" y="383.0" type="line"/>
      <point x="136.0" y="239.0" type="line"/>
      <point x="136.0" y="233.0" type="line"/>
      <point x="58.0" y="79.0" type="line"/>
    </contour>
  </outline>
</glyph>
<glyph name="questiondown" format="2">
  <advance width="407.0"/>
  <unicode hex="00BF"/>
  <outline>
    <contour>
      <point x="194.0" y="-173.0" type="curve" smooth="yes"/>
      <point x="231.0" y="-173.0"/>
      <point x="298.0" y="-167.0"/>
      <point x="356.0" y="-161.0" type="curve"/>
      <point x="303.0" y="-98.0" type="line"/>
      <point x="252.0" y="-106.0"/>
      <point x="190.0" y="-114.0"/>
      <point x="171.0" y="-114.0" type="curve" smooth="yes"/>
      <point x="145.0" y="-114.0"/>
      <point x="138.0" y="-79.0"/>
      <point x="138.0" y="-53.0" type="curve" smooth="yes"/>
      <point x="138.0" y="-9.0"/>
      <point x="160.0" y="26.0"/>
      <point x="219.0" y="77.0" type="curve" smooth="yes"/>
      <point x="260.0" y="112.0"/>
      <point x="302.0" y="143.0"/>
      <point x="300.0" y="198.0" type="curve" smooth="yes"/>
      <point x="298.0" y="263.0" type="line" smooth="yes"/>
      <point x="298.0" y="266.0"/>
      <point x="287.0" y="276.0"/>
      <point x="284.0" y="276.0" type="curve" smooth="yes"/>
      <point x="277.0" y="276.0"/>
      <point x="250.0" y="273.0"/>
      <point x="237.0" y="271.0" type="curve"/>
      <point x="235.0" y="199.0"/>
      <point x="226.0" y="175.0"/>
      <point x="193.0" y="146.0" type="curve" smooth="yes"/>
      <point x="132.0" y="93.0"/>
      <point x="58.0" y="43.0"/>
      <point x="58.0" y="-54.0" type="curve" smooth="yes"/>
      <point x="58.0" y="-142.0"/>
      <point x="101.0" y="-173.0"/>
    </contour>
    <contour>
      <point x="278.0" y="-161.0" type="line"/>
      <point x="356.0" y="-161.0" type="line"/>
      <point x="346.0" y="-13.0" type="line"/>
      <point x="292.0" y="-13.0" type="line"/>
    </contour>
    <contour>
      <point x="239.0" y="331.0" type="line"/>
      <point x="296.0" y="331.0" type="line"/>
      <point x="311.0" y="424.0" type="line" smooth="yes"/>
      <point x="312.0" y="428.0"/>
      <point x="299.0" y="446.0"/>
      <point x="295.0" y="446.0" type="curve" smooth="yes"/>
      <point x="274.0" y="446.0"/>
      <point x="252.0" y="444.0"/>
      <point x="229.0" y="441.0" type="curve"/>
    </contour>
  </outline>
</glyph>
<glyph name="AE" format="2">
  <advance width="751"/>
  <unicode hex="00C6"/>
  <anchor x="449" y="603" name="top"/>
  <outline>
    <contour>
      <point x="6" y="0" type="line"/>
      <point x="227" y="0" type="line"/>
      <point x="227" y="43" type="line"/>
      <point x="158" y="63" type="line"/>
      <point x="218" y="203" type="line"/>
      <point x="380" y="203" type="line"/>
      <point x="380" y="58" type="line"/>
      <point x="318" y="38" type="line"/>
      <point x="318" y="0" type="line"/>
      <point x="721" y="0" type="line"/>
      <point x="717" y="179" type="line"/>
      <point x="663" y="179" type="line"/>
      <point x="647" y="49" type="line"/>
      <point x="473" y="65" type="line"/>
      <point x="473" y="285" type="line"/>
      <point x="612" y="290" type="line"/>
      <point x="612" y="337" type="line"/>
      <point x="473" y="342" type="line"/>
      <point x="473" y="540" type="line"/>
      <point x="623" y="554" type="line"/>
      <point x="634" y="428" type="line"/>
      <point x="688" y="428" type="line"/>
      <point x="701" y="603" type="line"/>
      <point x="214" y="603" type="line"/>
      <point x="214" y="565" type="line"/>
      <point x="283" y="545" type="line"/>
      <point x="68" y="58" type="line"/>
      <point x="6" y="38" type="line"/>
    </contour>
    <contour>
      <point x="231" y="256" type="line"/>
      <point x="357" y="540" type="line"/>
      <point x="380" y="540" type="line"/>
      <point x="380" y="256" type="line"/>
    </contour>
  </outline>
</glyph>
<glyph name="multiply" format="2">
  <advance width="505"/>
  <unicode hex="00D7"/>
  <outline>
    <contour>
      <point x="128" y="62" type="line"/>
      <point x="251" y="187" type="line"/>
      <point x="373" y="64" type="line"/>
      <point x="425" y="116" type="line"/>
      <point x="303" y="239" type="line"/>
      <point x="425" y="363" type="line"/>
      <point x="378" y="411" type="line"/>
      <point x="255" y="287" type="line"/>
      <point x="133" y="410" type="line"/>
      <point x="81" y="358" type="line"/>
      <point x="204" y="234" type="line"/>
      <point x="80" y="109" type="line"/>
    </contour>
  </outline>
</glyph>
<glyph name="Thorn" format="2">
  <advance width="495"/>
  <unicode hex="00DE"/>
  <outline>
    <contour>
      <point x="42" y="0" type="line"/>
      <point x="263" y="0" type="line"/>
      <point x="263" y="43" type="line"/>
      <point x="197" y="63" type="line"/>
      <point x="197" y="540" type="line"/>
      <point x="263" y="560" type="line"/>
      <point x="263" y="603" type="line"/>
      <point x="42" y="603" type="line"/>
      <point x="42" y="565" type="line"/>
      <point x="104" y="545" type="line"/>
      <point x="104" y="58" type="line"/>
      <point x="42" y="38" type="line"/>
    </contour>
    <contour>
      <point x="177" y="137" type="line"/>
      <point x="263" y="137" type="line" smooth="yes"/>
      <point x="362" y="137"/>
      <point x="453" y="185"/>
      <point x="453" y="334" type="curve" smooth="yes"/>
      <point x="453" y="452"/>
      <point x="391" y="491"/>
      <point x="292" y="491" type="curve" smooth="yes"/>
      <point x="177" y="491" type="line"/>
      <point x="177" y="430" type="line"/>
      <point x="298" y="440" type="line"/>
      <point x="336" y="440"/>
      <point x="355" y="389"/>
      <point x="355" y="301" type="curve" smooth="yes"/>
      <point x="355" y="192"/>
      <point x="327" y="194"/>
      <point x="275" y="194" type="curve" smooth="yes"/>
      <point x="177" y="194" type="line"/>
    </contour>
  </outline>
</glyph>
<glyph name="germandbls" format="2">
  <advance width="463.0"/>
  <unicode hex="00DF"/>
  <outline>
    <contour>
      <point x="40.0" y="-181.0" type="curve" smooth="yes"/>
      <point x="71.0" y="-181.0"/>
      <point x="161.0" y="-84.0"/>
      <point x="161.0" y="-22.0" type="curve" smooth="yes"/>
      <point x="163.0" y="526.0" type="line"/>
      <point x="163.0" y="554.0"/>
      <point x="173.0" y="582.0"/>
      <point x="182.0" y="582.0" type="curve" smooth="yes"/>
      <point x="189.0" y="582.0"/>
      <point x="243.0" y="570.0"/>
      <point x="282.0" y="560.0" type="curve" smooth="yes"/>
      <point x="306.0" y="554.0"/>
      <point x="322.0" y="530.0"/>
      <point x="322.0" y="510.0" type="curve" smooth="yes"/>
      <point x="322.0" y="448.0"/>
      <point x="226.0" y="420.0"/>
      <point x="226.0" y="324.0" type="curve" smooth="yes"/>
      <point x="226.0" y="237.0"/>
      <point x="366.0" y="196.0"/>
      <point x="366.0" y="106.0" type="curve" smooth="yes"/>
      <point x="366.0" y="83.0"/>
      <point x="347.0" y="52.0"/>
      <point x="337.0" y="52.0" type="curve" smooth="yes"/>
      <point x="316.0" y="52.0"/>
      <point x="209.0" y="71.0"/>
      <point x="148.0" y="84.0" type="curve"/>
      <point x="148.0" y="4.0" type="line"/>
      <point x="214.0" y="-2.0"/>
      <point x="299.0" y="-9.0"/>
      <point x="337.0" y="-9.0" type="curve" smooth="yes"/>
      <point x="369.0" y="-9.0"/>
      <point x="437.0" y="58.0"/>
      <point x="456.0" y="92.0" type="curve"/>
      <point x="459.0" y="104.0"/>
      <point x="463.0" y="127.0"/>
      <point x="463.0" y="141.0" type="curve" smooth="yes"/>
      <point x="463.0" y="238.0"/>
      <point x="307.0" y="296.0"/>
      <point x="307.0" y="349.0" type="curve" smooth="yes"/>
      <point x="307.0" y="400.0"/>
      <point x="398.0" y="432.0"/>
      <point x="398.0" y="514.0" type="curve" smooth="yes"/>
      <point x="398.0" y="623.0"/>
      <point x="279.0" y="646.0"/>
      <point x="196.0" y="646.0" type="curve" smooth="yes"/>
      <point x="165.0" y="646.0"/>
      <point x="71.0" y="532.0"/>
      <point x="71.0" y="491.0" type="curve" smooth="yes"/>
      <point x="71.0" y="13.0" type="line" smooth="yes"/>
      <point x="71.0" y="-22.0"/>
      <point x="69.0" y="-89.0"/>
      <point x="46.0" y="-102.0" type="curve"/>
      <point x="38.0" y="-108.0"/>
      <point x="-33.0" y="-112.0"/>
      <point x="-53.0" y="-113.0" type="curve"/>
      <point x="-60.0" y="-152.0" type="line"/>
      <point x="-23.0" y="-164.0"/>
      <point x="25.0" y="-181.0"/>
    </contour>
  </outline>
</glyph>
<glyph name="ae" format="2">
  <advance width="644"/>
  <unicode hex="00E6"/>
  <anchor x="327" y="448" name="top"/>
  <outline>
    <contour>
      <point x="194" y="-9" type="curve" smooth="yes"/>
      <point x="201" y="-9"/>
      <point x="284" y="55"/>
      <point x="319" y="81" type="curve"/>
      <point x="312" y="116" type="line"/>
      <point x="312" y="116"/>
      <point x="210" y="65"/>
      <point x="200" y="65" type="curve" smooth="yes"/>
      <point x="180" y="65"/>
      <point x="134" y="104"/>
      <point x="134" y="216" type="curve" smooth="yes"/>
      <point x="134" y="357"/>
      <point x="149" y="400"/>
      <point x="172" y="404" type="curve" smooth="yes"/>
      <point x="191" y="407"/>
      <point x="287" y="381"/>
      <point x="319" y="371" type="curve"/>
      <point x="405" y="429" type="line"/>
      <point x="376" y="434"/>
      <point x="224" y="457"/>
      <point x="207" y="457" type="curve" smooth="yes"/>
      <point x="183" y="457"/>
      <point x="83" y="388"/>
      <point x="62" y="358" type="curve"/>
      <point x="48" y="330"/>
      <point x="38" y="273"/>
      <point x="38" y="209" type="curve" smooth="yes"/>
      <point x="38" y="57"/>
      <point x="115" y="-9"/>
    </contour>
    <contour>
      <point x="443" y="-9" type="curve" smooth="yes"/>
      <point x="462" y="-9"/>
      <point x="547" y="11"/>
      <point x="595" y="26" type="curve"/>
      <point x="595" y="67" type="line"/>
      <point x="556" y="66"/>
      <point x="477" y="62"/>
      <point x="466" y="62" type="curve" smooth="yes"/>
      <point x="438" y="62"/>
      <point x="373" y="89"/>
      <point x="373" y="221" type="curve"/>
      <point x="609" y="241" type="line"/>
      <point x="609" y="427"/>
      <point x="549" y="461"/>
      <point x="451" y="461" type="curve" smooth="yes"/>
      <point x="425" y="461"/>
      <point x="322" y="390"/>
      <point x="301" y="358" type="curve"/>
      <point x="287" y="332"/>
      <point x="277" y="271"/>
      <point x="277" y="203" type="curve" smooth="yes"/>
      <point x="277" y="56"/>
      <point x="361" y="-9"/>
    </contour>
    <contour>
      <point x="375" y="262" type="line"/>
      <point x="375" y="321"/>
      <point x="387" y="391"/>
      <point x="405" y="399" type="curve" smooth="yes"/>
      <point x="419" y="405"/>
      <point x="432" y="406"/>
      <point x="443" y="406" type="curve" smooth="yes"/>
      <point x="494" y="406"/>
      <point x="512" y="356"/>
      <point x="512" y="280" type="curve"/>
    </contour>
  </outline>
</glyph>
<glyph name="eth" format="2">
  <advance width="431"/>
  <unicode hex="00F0"/>
  <outline>
    <contour>
      <point x="191" y="-9" type="curve" smooth="yes"/>
      <point x="286" y="-9"/>
      <point x="386" y="25"/>
      <point x="386" y="303" type="curve" smooth="yes"/>
      <point x="386" y="497"/>
      <point x="304" y="611"/>
      <point x="120" y="611" type="curve"/>
      <point x="138" y="560" type="line"/>
      <point x="268" y="553"/>
      <point x="290" y="462"/>
      <point x="290" y="204" type="curve" smooth="yes"/>
      <point x="290" y="59"/>
      <point x="236" y="40"/>
      <point x="163" y="40" type="curve" smooth="yes"/>
      <point x="138" y="40"/>
      <point x="132" y="125"/>
      <point x="132" y="191" type="curve" smooth="yes"/>
      <point x="132" y="277"/>
      <point x="167" y="322"/>
      <point x="206" y="322" type="curve" smooth="yes"/>
      <point x="225" y="322"/>
      <point x="269" y="301"/>
      <point x="294" y="288" type="curve"/>
      <point x="295" y="333" type="line"/>
      <point x="266" y="349"/>
      <point x="207" y="380"/>
      <point x="197" y="380" type="curve" smooth="yes"/>
      <point x="78" y="380"/>
      <point x="36" y="284"/>
      <point x="36" y="214" type="curve" smooth="yes"/>
      <point x="36" y="171"/>
      <point x="41" y="118"/>
      <point x="50" y="89" type="curve"/>
      <point x="75" y="54"/>
      <point x="168" y="-9"/>
    </contour>
    <contour>
      <point x="176" y="443" type="line"/>
      <point x="404" y="554" type="line"/>
      <point x="409" y="568" type="line"/>
      <point x="362" y="601" type="line"/>
      <point x="134" y="490" type="line"/>
      <point x="129" y="476" type="line"/>
    </contour>
  </outline>
</glyph>
<glyph name="thorn" format="2">
  <advance width="451.0"/>
  <unicode hex="00FE"/>
  <outline>
    <contour>
      <point x="99.0" y="-181.0" type="curve" smooth="yes"/>
      <point x="107.0" y="-181.0"/>
      <point x="195.0" y="-165.0"/>
      <point x="195.0" y="-165.0" type="curve"/>
      <point x="195.0" y="-125.0" type="line"/>
      <point x="155.0" y="-109.0" type="line"/>
      <point x="155.0" y="2.0" type="line"/>
      <point x="195.0" y="-4.0"/>
      <point x="231.0" y="-9.0"/>
      <point x="244.0" y="-9.0" type="curve" smooth="yes"/>
      <point x="268.0" y="-9.0"/>
      <point x="368.0" y="60.0"/>
      <point x="389.0" y="90.0" type="curve"/>
      <point x="403.0" y="118.0"/>
      <point x="413.0" y="175.0"/>
      <point x="413.0" y="245.0" type="curve" smooth="yes"/>
      <point x="413.0" y="392.0"/>
      <point x="333.0" y="457.0"/>
      <point x="257.0" y="457.0" type="curve" smooth="yes"/>
      <point x="250.0" y="457.0"/>
      <point x="193.0" y="412.0"/>
      <point x="158.0" y="386.0" type="curve"/>
      <point x="160.0" y="613.0" type="line" smooth="yes"/>
      <point x="160.0" y="620.0"/>
      <point x="133.0" y="646.0"/>
      <point x="127.0" y="646.0" type="curve" smooth="yes"/>
      <point x="118.0" y="646.0"/>
      <point x="34.0" y="630.0"/>
      <point x="34.0" y="630.0" type="curve"/>
      <point x="34.0" y="593.0" type="line"/>
      <point x="70.0" y="579.0" type="line"/>
      <point x="69.0" y="13.0" type="line"/>
      <point x="64.0" y="-148.0" type="line" smooth="yes"/>
      <point x="64.0" y="-155.0"/>
      <point x="93.0" y="-181.0"/>
    </contour>
    <contour>
      <point x="279.0" y="44.0" type="curve" smooth="yes"/>
      <point x="266.0" y="42.0"/>
      <point x="193.0" y="57.0"/>
      <point x="156.0" y="63.0" type="curve"/>
      <point x="160.0" y="343.0" type="line"/>
      <point x="189.0" y="357.0"/>
      <point x="244.0" y="383.0"/>
      <point x="251.0" y="383.0" type="curve" smooth="yes"/>
      <point x="271.0" y="383.0"/>
      <point x="317.0" y="344.0"/>
      <point x="317.0" y="232.0" type="curve" smooth="yes"/>
      <point x="317.0" y="91.0"/>
      <point x="302.0" y="48.0"/>
    </contour>
  </outline>
</glyph>
<glyph name="idotless" format="2">
  <advance width="228"/>
  <unicode hex="0131"/>
  <anchor x="116" y="0" name="bottom"/>
  <anchor x="108" y="448" name="top"/>
  <outline>
    <contour>
      <point x="109" y="-9" type="curve" smooth="yes"/>
      <point x="118" y="-9"/>
      <point x="194" y="7"/>
      <point x="194" y="7" type="curve"/>
      <point x="194" y="44" type="line"/>
      <point x="159" y="54" type="line"/>
      <point x="159" y="419" type="line"/>
      <point x="159" y="428"/>
      <point x="127" y="456"/>
      <point x="119" y="456" type="curve" smooth="yes"/>
      <point x="110" y="456"/>
      <point x="34" y="441"/>
      <point x="34" y="441" type="curve"/>
      <point x="34" y="404" type="line"/>
      <point x="69" y="393" type="line"/>
      <point x="69" y="28" type="line" smooth="yes"/>
      <point x="69" y="21"/>
      <point x="102" y="-9"/>
    </contour>
  </outline>
</glyph>
<glyph name="kgreenlandic" format="2">
  <advance width="438.0"/>
  <unicode hex="0138"/>
  <outline>
    <contour>
      <point x="354.0" y="-9.0" type="curve" smooth="yes"/>
      <point x="362.0" y="-9.0"/>
      <point x="436.0" y="7.0"/>
      <point x="436.0" y="7.0" type="curve"/>
      <point x="436.0" y="44.0" type="line"/>
      <point x="396.0" y="60.0" type="line"/>
      <point x="250.0" y="224.0" type="line"/>
      <point x="399.0" y="408.0" type="line"/>
      <point x="399.0" y="419.0"/>
      <point x="387.0" y="455.0"/>
      <point x="381.0" y="455.0" type="curve" smooth="yes"/>
      <point x="372.0" y="455.0"/>
      <point x="251.0" y="448.0"/>
      <point x="251.0" y="448.0" type="curve"/>
      <point x="251.0" y="400.0" type="line"/>
      <point x="301.0" y="394.0" type="line"/>
      <point x="179.0" y="232.0" type="line"/>
      <point x="179.0" y="191.0" type="line"/>
      <point x="315.0" y="23.0" type="line" smooth="yes"/>
      <point x="321.0" y="15.0"/>
      <point x="348.0" y="-9.0"/>
    </contour>
    <contour>
      <point x="103.0" y="-9.0" type="curve" smooth="yes"/>
      <point x="112.0" y="-9.0"/>
      <point x="194.0" y="7.0"/>
      <point x="194.0" y="7.0" type="curve"/>
      <point x="194.0" y="44.0" type="line"/>
      <point x="160.0" y="59.0" type="line"/>
      <point x="160.0" y="422.0" type="line"/>
      <point x="160.0" y="429.0"/>
      <point x="133.0" y="455.0"/>
      <point x="127.0" y="455.0" type="curve" smooth="yes"/>
      <point x="118.0" y="455.0"/>
      <point x="34.0" y="439.0"/>
      <point x="34.0" y="439.0" type="curve"/>
      <point x="34.0" y="402.0" type="line"/>
      <point x="70.0" y="388.0" type="line"/>
      <point x="70.0" y="24.0" type="line" smooth="yes"/>
      <point x="70.0" y="17.0"/>
      <point x="97.0" y="-9.0"/>
    </contour>
  </outline>
</glyph>
<glyph name="Eng" format="2">
  <advance width="597.0"/>
  <unicode hex="014A"/>
  <outline>
    <contour>
      <point x="421.0" y="-6.0" type="line"/>
      <point x="508.0" y="7.0" type="line"/>
      <point x="508.0" y="545.0" type="line"/>
      <point x="570.0" y="565.0" type="line"/>
      <point x="570.0" y="603.0" type="line"/>
      <point x="357.0" y="603.0" type="line"/>
      <point x="357.0" y="560.0" type="line"/>
      <point x="423.0" y="540.0" type="line"/>
      <point x="423.0" y="505.0" type="line"/>
      <point x="431.0" y="172.0" type="line"/>
      <point x="423.0" y="172.0" type="line"/>
      <point x="423.0" y="172.0"/>
      <point x="397.0" y="233.0"/>
      <point x="381.0" y="268.0" type="curve" smooth="yes"/>
      <point x="226.0" y="603.0" type="line"/>
      <point x="42.0" y="603.0" type="line"/>
      <point x="42.0" y="565.0" type="line"/>
      <point x="104.0" y="545.0" type="line"/>
      <point x="104.0" y="58.0" type="line"/>
      <point x="42.0" y="38.0" type="line"/>
      <point x="42.0" y="0.0" type="line"/>
      <point x="255.0" y="0.0" type="line"/>
      <point x="255.0" y="43.0" type="line"/>
      <point x="189.0" y="63.0" type="line"/>
      <point x="189.0" y="99.0" type="line"/>
      <point x="179.0" y="486.0" type="line"/>
      <point x="186.0" y="486.0" type="line"/>
      <point x="186.0" y="486.0"/>
      <point x="253.0" y="346.0"/>
      <point x="277.0" y="295.0" type="curve" smooth="yes"/>
    </contour>
    <contour>
      <point x="373.0" y="-153.0" type="curve" smooth="yes"/>
      <point x="404.0" y="-153.0"/>
      <point x="508.0" y="-54.0"/>
      <point x="508.0" y="8.0" type="curve"/>
      <point x="423.0" y="40.0" type="line"/>
      <point x="423.0" y="5.0"/>
      <point x="421.0" y="-73.0"/>
      <point x="391.0" y="-79.0" type="curve" smooth="yes"/>
      <point x="376.0" y="-82.0"/>
      <point x="301.0" y="-82.0"/>
      <point x="273.0" y="-82.0" type="curve"/>
      <point x="273.0" y="-129.0" type="line"/>
      <point x="309.0" y="-138.0"/>
      <point x="357.0" y="-153.0"/>
    </contour>
  </outline>
</glyph>
<glyph name="eng" format="2">
  <advance width="463"/>
  <unicode hex="014B"/>
  <outline>
    <contour>
      <point x="282" y="-181" type="curve" smooth="yes"/>
      <point x="313" y="-181"/>
      <point x="404" y="-84"/>
      <point x="404" y="-22" type="curve" smooth="yes"/>
      <point x="404" y="288" type="line" smooth="yes"/>
      <point x="404" y="418"/>
      <point x="350" y="456"/>
      <point x="260" y="456" type="curve" smooth="yes"/>
      <point x="254" y="456"/>
      <point x="192" y="412"/>
      <point x="157" y="386" type="curve"/>
      <point x="157" y="424" type="line" smooth="yes"/>
      <point x="157" y="430"/>
      <point x="131" y="456"/>
      <point x="125" y="456" type="curve" smooth="yes"/>
      <point x="118" y="456"/>
      <point x="69" y="447"/>
      <point x="34" y="441" type="curve"/>
      <point x="34" y="404" type="line"/>
      <point x="69" y="389" type="line"/>
      <point x="69" y="24" type="line" smooth="yes"/>
      <point x="69" y="17"/>
      <point x="97" y="-9"/>
      <point x="103" y="-9" type="curve" smooth="yes"/>
      <point x="110" y="-9"/>
      <point x="159" y="0"/>
      <point x="194" y="7" type="curve"/>
      <point x="194" y="44" type="line"/>
      <point x="160" y="59" type="line"/>
      <point x="160" y="344" type="line"/>
      <point x="198" y="361"/>
      <point x="243" y="382"/>
      <point x="255" y="382" type="curve" smooth="yes"/>
      <point x="269" y="382"/>
      <point x="313" y="384"/>
      <point x="313" y="288" type="curve" smooth="yes"/>
      <point x="313" y="13" type="line" smooth="yes"/>
      <point x="313" y="-22"/>
      <point x="311" y="-89"/>
      <point x="288" y="-102" type="curve"/>
      <point x="280" y="-108"/>
      <point x="206" y="-112"/>
      <point x="187" y="-113" type="curve"/>
      <point x="187" y="-152" type="line"/>
      <point x="222" y="-164"/>
      <point x="268" y="-181"/>
    </contour>
  </outline>
</glyph>
<glyph name="OE" format="2">
  <advance width="744.0"/>
  <unicode hex="0152"/>
  <outline>
    <contour>
      <point x="309.0" y="0.0" type="curve" smooth="yes"/>
      <point x="424.0" y="0.0" type="line"/>
      <point x="403.0" y="77.0" type="line"/>
      <point x="369.0" y="70.0"/>
      <point x="319.0" y="60.0"/>
      <point x="301.0" y="60.0" type="curve" smooth="yes"/>
      <point x="180.0" y="60.0"/>
      <point x="142.0" y="111.0"/>
      <point x="142.0" y="303.0" type="curve" smooth="yes"/>
      <point x="142.0" y="436.0"/>
      <point x="159.0" y="515.0"/>
      <point x="192.0" y="532.0" type="curve" smooth="yes"/>
      <point x="211.0" y="542.0"/>
      <point x="244.0" y="544.0"/>
      <point x="265.0" y="544.0" type="curve" smooth="yes"/>
      <point x="311.0" y="544.0"/>
      <point x="369.0" y="536.0"/>
      <point x="401.0" y="524.0" type="curve"/>
      <point x="444.0" y="603.0" type="line"/>
      <point x="239.0" y="603.0" type="line" smooth="yes"/>
      <point x="208.0" y="603.0"/>
      <point x="105.0" y="536.0"/>
      <point x="73.0" y="486.0" type="curve"/>
      <point x="55.0" y="441.0"/>
      <point x="43.0" y="375.0"/>
      <point x="43.0" y="283.0" type="curve" smooth="yes"/>
      <point x="43.0" y="79.0"/>
      <point x="133.0" y="0.0"/>
    </contour>
    <contour>
      <point x="373.0" y="0.0" type="line"/>
      <point x="714.0" y="0.0" type="line"/>
      <point x="710.0" y="179.0" type="line"/>
      <point x="656.0" y="179.0" type="line"/>
      <point x="640.0" y="49.0" type="line"/>
      <point x="466.0" y="65.0" type="line"/>
      <point x="466.0" y="285.0" type="line"/>
      <point x="605.0" y="290.0" type="line"/>
      <point x="605.0" y="337.0" type="line"/>
      <point x="466.0" y="342.0" type="line"/>
      <point x="466.0" y="540.0" type="line"/>
      <point x="631.0" y="554.0" type="line"/>
      <point x="642.0" y="428.0" type="line"/>
      <point x="696.0" y="428.0" type="line"/>
      <point x="709.0" y="603.0" type="line"/>
      <point x="373.0" y="603.0" type="line"/>
    </contour>
  </outline>
</glyph>
<glyph name="longs" format="2">
  <advance width="237.0"/>
  <unicode hex="017F"/>
  <outline>
    <contour>
      <point x="101.0" y="-9.0" type="curve" smooth="yes"/>
      <point x="110.0" y="-9.0"/>
      <point x="209.0" y="7.0"/>
      <point x="209.0" y="7.0" type="curve"/>
      <point x="209.0" y="48.0" type="line"/>
      <point x="158.0" y="63.0" type="line"/>
      <point x="159.0" y="526.0" type="line" smooth="yes"/>
      <point x="159.0" y="554.0"/>
      <point x="169.0" y="582.0"/>
      <point x="178.0" y="582.0" type="curve" smooth="yes"/>
      <point x="194.0" y="582.0"/>
      <point x="260.0" y="566.0"/>
      <point x="282.0" y="560.0" type="curve"/>
      <point x="286.0" y="570.0"/>
      <point x="302.0" y="606.0"/>
      <point x="302.0" y="610.0" type="curve" smooth="yes"/>
      <point x="302.0" y="617.0"/>
      <point x="289.0" y="634.0"/>
      <point x="280.0" y="640.0" type="curve"/>
      <point x="253.0" y="643.0"/>
      <point x="202.0" y="646.0"/>
      <point x="192.0" y="646.0" type="curve" smooth="yes"/>
      <point x="161.0" y="646.0"/>
      <point x="67.0" y="532.0"/>
      <point x="67.0" y="491.0" type="curve" smooth="yes"/>
      <point x="67.0" y="461.0" type="line"/>
      <point x="20.0" y="442.0" type="line"/>
      <point x="20.0" y="403.0" type="line"/>
      <point x="67.0" y="403.0" type="line"/>
      <point x="67.0" y="24.0" type="line" smooth="yes"/>
      <point x="67.0" y="17.0"/>
      <point x="95.0" y="-9.0"/>
    </contour>
  </outline>
</glyph>
<glyph name="Schwa" format="2">
  <advance width="558.0"/>
  <unicode hex="018F"/>
  <outline>
    <contour>
      <point x="319.0" y="-9.0" type="curve" smooth="yes"/>
      <point x="349.0" y="-9.0"/>
      <point x="456.0" y="62.0"/>
      <point x="490.0" y="108.0" type="curve"/>
      <point x="502.0" y="153.0"/>
      <point x="515.0" y="226.0"/>
      <point x="515.0" y="318.0" type="curve" smooth="yes"/>
      <point x="515.0" y="524.0"/>
      <point x="425.0" y="611.0"/>
      <point x="249.0" y="611.0" type="curve" smooth="yes"/>
      <point x="229.0" y="611.0"/>
      <point x="142.0" y="589.0"/>
      <point x="85.0" y="575.0" type="curve"/>
      <point x="102.0" y="506.0" type="line"/>
      <point x="186.0" y="531.0"/>
      <point x="259.0" y="552.0"/>
      <point x="269.0" y="552.0" type="curve"/>
      <point x="371.0" y="552.0"/>
      <point x="416.0" y="494.0"/>
      <point x="416.0" y="300.0" type="curve" smooth="yes"/>
      <point x="416.0" y="198.0"/>
      <point x="407.0" y="138.0"/>
      <point x="397.0" y="94.0" type="curve"/>
      <point x="392.0" y="86.0"/>
      <point x="327.0" y="51.0"/>
      <point x="311.0" y="51.0" type="curve" smooth="yes"/>
      <point x="205.0" y="51.0"/>
      <point x="163.0" y="97.0"/>
      <point x="154.0" y="237.0" type="curve"/>
      <point x="430.0" y="265.0" type="line"/>
      <point x="430.0" y="308.0" type="line"/>
      <point x="53.0" y="283.0" type="line"/>
      <point x="53.0" y="79.0"/>
      <point x="143.0" y="-9.0"/>
    </contour>
    <contour>
      <point x="100.0" y="408.0" type="line"/>
      <point x="152.0" y="408.0" type="line"/>
      <point x="167.0" y="575.0" type="line"/>
      <point x="85.0" y="575.0" type="line"/>
    </contour>
  </outline>
</glyph>
<glyph name="florin" format="2">
  <advance width="422.0"/>
  <unicode hex="0192"/>
  <outline>
    <contour>
      <point x="44.0" y="-181.0" type="curve" smooth="yes"/>
      <point x="74.0" y="-181.0"/>
      <point x="168.0" y="-67.0"/>
      <point x="175.0" y="-26.0" type="curve" smooth="yes"/>
      <point x="269.0" y="526.0" type="line" smooth="yes"/>
      <point x="274.0" y="554.0"/>
      <point x="289.0" y="582.0"/>
      <point x="297.0" y="582.0" type="curve" smooth="yes"/>
      <point x="313.0" y="582.0"/>
      <point x="377.0" y="566.0"/>
      <point x="397.0" y="560.0" type="curve"/>
      <point x="401.0" y="570.0"/>
      <point x="416.0" y="606.0"/>
      <point x="416.0" y="610.0" type="curve" smooth="yes"/>
      <point x="416.0" y="617.0"/>
      <point x="404.0" y="634.0"/>
      <point x="395.0" y="640.0" type="curve"/>
      <point x="369.0" y="643.0"/>
      <point x="320.0" y="646.0"/>
      <point x="311.0" y="646.0" type="curve" smooth="yes"/>
      <point x="281.0" y="646.0"/>
      <point x="181.0" y="532.0"/>
      <point x="174.0" y="491.0" type="curve" smooth="yes"/>
      <point x="80.0" y="-61.0" type="line" smooth="yes"/>
      <point x="75.0" y="-89.0"/>
      <point x="60.0" y="-117.0"/>
      <point x="52.0" y="-117.0" type="curve" smooth="yes"/>
      <point x="36.0" y="-117.0"/>
      <point x="-28.0" y="-101.0"/>
      <point x="-48.0" y="-95.0" type="curve"/>
      <point x="-52.0" y="-105.0"/>
      <point x="-62.0" y="-141.0"/>
      <point x="-64.0" y="-145.0" type="curve" smooth="yes"/>
      <point x="-67.0" y="-152.0"/>
      <point x="-55.0" y="-169.0"/>
      <point x="-46.0" y="-175.0" type="curve"/>
      <point x="-20.0" y="-178.0"/>
      <point x="35.0" y="-181.0"/>
    </contour>
    <contour>
      <point x="337.0" y="394.0" type="line"/>
      <point x="346.0" y="448.0" type="line"/>
      <point x="167.0" y="453.0" type="line"/>
      <point x="118.0" y="434.0" type="line"/>
      <point x="111.0" y="395.0" type="line"/>
    </contour>
  </outline>
</glyph>
<glyph name="Nhookleft" format="2">
  <advance width="597"/>
  <unicode hex="019D"/>
  <outline>
    <contour>
      <point x="58" y="-153" type="curve" smooth="yes"/>
      <point x="89" y="-153"/>
      <point x="191" y="-54"/>
      <point x="190" y="8" type="curve" smooth="yes"/>
      <point x="179" y="486" type="line"/>
      <point x="186" y="486" type="line"/>
      <point x="206" y="426"/>
      <point x="237" y="344"/>
      <point x="257" y="295" type="curve" smooth="yes"/>
      <point x="372" y="1" type="line"/>
      <point x="388" y="-7" type="line"/>
      <point x="390" y="-7"/>
      <point x="471" y="1"/>
      <point x="508" y="7" type="curve"/>
      <point x="508" y="545" type="line"/>
      <point x="570" y="565" type="line"/>
      <point x="570" y="603" type="line"/>
      <point x="357" y="603" type="line"/>
      <point x="357" y="560" type="line"/>
      <point x="423" y="540" type="line"/>
      <point x="423" y="505" type="line"/>
      <point x="433" y="92" type="line"/>
      <point x="425" y="92" type="line"/>
      <point x="404" y="153"/>
      <point x="373" y="242"/>
      <point x="363" y="268" type="curve" smooth="yes"/>
      <point x="226" y="603" type="line"/>
      <point x="42" y="603" type="line"/>
      <point x="42" y="565" type="line"/>
      <point x="104" y="545" type="line"/>
      <point x="104" y="40" type="line" smooth="yes"/>
      <point x="104" y="5"/>
      <point x="102" y="-73"/>
      <point x="72" y="-79" type="curve" smooth="yes"/>
      <point x="57" y="-82"/>
      <point x="-14" y="-82"/>
      <point x="-42" y="-82" type="curve"/>
      <point x="-42" y="-129" type="line"/>
      <point x="-7" y="-138"/>
      <point x="42" y="-153"/>
    </contour>
  </outline>
</glyph>
<glyph name="Uhorn" format="2">
  <advance width="597.0"/>
  <unicode hex="01AF"/>
  <anchor x="311.0" y="0.0" name="bottom"/>
  <anchor x="298.0" y="603.0" name="top"/>
  <outline>
    <contour>
      <point x="247.0" y="-8.0" type="curve" smooth="yes"/>
      <point x="259.0" y="-8.0"/>
      <point x="351.0" y="36.0"/>
      <point x="402.0" y="59.0" type="curve"/>
      <point x="423.0" y="0.0" type="line"/>
      <point x="555.0" y="0.0" type="line"/>
      <point x="555.0" y="38.0" type="line"/>
      <point x="493.0" y="58.0" type="line"/>
      <point x="493.0" y="603.0" type="line"/>
      <point x="334.0" y="603.0" type="line"/>
      <point x="334.0" y="557.0" type="line"/>
      <point x="400.0" y="540.0" type="line"/>
      <point x="400.0" y="108.0" type="line"/>
      <point x="363.0" y="97.0"/>
      <point x="277.0" y="73.0"/>
      <point x="251.0" y="73.0" type="curve" smooth="yes"/>
      <point x="222.0" y="73.0"/>
      <point x="191.0" y="86.0"/>
      <point x="191.0" y="191.0" type="curve" smooth="yes"/>
      <point x="191.0" y="540.0" type="line"/>
      <point x="257.0" y="557.0" type="line"/>
      <point x="257.0" y="603.0" type="line"/>
      <point x="36.0" y="603.0" type="line"/>
      <point x="36.0" y="565.0" type="line"/>
      <point x="98.0" y="545.0" type="line"/>
      <point x="98.0" y="170.0" type="line" smooth="yes"/>
      <point x="98.0" y="50.0"/>
      <point x="148.0" y="-8.0"/>
    </contour>
    <component base="horncomb.case" xOffset="486.0" yOffset="34.0"/>
  </outline>
</glyph>
<glyph name="jdotless" format="2">
  <advance width="218"/>
  <unicode hex="0237"/>
  <anchor x="108" y="448" name="top"/>
  <outline>
    <contour>
      <point x="38" y="-181" type="curve" smooth="yes"/>
      <point x="69" y="-181"/>
      <point x="159" y="-84"/>
      <point x="159" y="-22" type="curve" smooth="yes"/>
      <point x="159" y="419" type="line"/>
      <point x="159" y="428"/>
      <point x="126" y="456"/>
      <point x="119" y="456" type="curve" smooth="yes"/>
      <point x="112" y="456"/>
      <point x="59" y="447"/>
      <point x="21" y="441" type="curve"/>
      <point x="21" y="402" type="line"/>
      <point x="69" y="392" type="line"/>
      <point x="69" y="13" type="line" smooth="yes"/>
      <point x="69" y="-22"/>
      <point x="67" y="-89"/>
      <point x="44" y="-102" type="curve" smooth="yes"/>
      <point x="36" y="-108"/>
      <point x="-38" y="-112"/>
      <point x="-57" y="-113" type="curve"/>
      <point x="-57" y="-152" type="line"/>
      <point x="-22" y="-164"/>
      <point x="24" y="-181"/>
    </contour>
  </outline>
</glyph>
<glyph name="schwa" format="2">
  <advance width="408.0"/>
  <unicode hex="0259"/>
  <outline>
    <contour>
      <point x="196.0" y="-9.0" type="curve" smooth="yes"/>
      <point x="222.0" y="-9.0"/>
      <point x="325.0" y="62.0"/>
      <point x="346.0" y="94.0" type="curve"/>
      <point x="360.0" y="120.0"/>
      <point x="370.0" y="181.0"/>
      <point x="370.0" y="249.0" type="curve" smooth="yes"/>
      <point x="370.0" y="396.0"/>
      <point x="286.0" y="461.0"/>
      <point x="204.0" y="461.0" type="curve" smooth="yes"/>
      <point x="185.0" y="461.0"/>
      <point x="100.0" y="441.0"/>
      <point x="52.0" y="426.0" type="curve"/>
      <point x="52.0" y="385.0" type="line"/>
      <point x="91.0" y="386.0"/>
      <point x="170.0" y="390.0"/>
      <point x="181.0" y="390.0" type="curve" smooth="yes"/>
      <point x="209.0" y="390.0"/>
      <point x="274.0" y="363.0"/>
      <point x="274.0" y="231.0" type="curve"/>
      <point x="38.0" y="211.0" type="line"/>
      <point x="38.0" y="25.0"/>
      <point x="98.0" y="-9.0"/>
    </contour>
    <contour>
      <point x="204.0" y="46.0" type="curve" smooth="yes"/>
      <point x="153.0" y="46.0"/>
      <point x="135.0" y="96.0"/>
      <point x="135.0" y="172.0" type="curve"/>
      <point x="272.0" y="190.0" type="line"/>
      <point x="272.0" y="131.0"/>
      <point x="260.0" y="61.0"/>
      <point x="242.0" y="53.0" type="curve" smooth="yes"/>
      <point x="228.0" y="47.0"/>
      <point x="215.0" y="46.0"/>
    </contour>
  </outline>
</glyph>
<glyph name="nhookleft" format="2">
  <advance width="474"/>
  <unicode hex="0272"/>
  <outline>
    <contour>
      <point x="38" y="-181" type="curve" smooth="yes"/>
      <point x="69" y="-181"/>
      <point x="160" y="-84"/>
      <point x="160" y="-22" type="curve" smooth="yes"/>
      <point x="160" y="344" type="line"/>
      <point x="198" y="361"/>
      <point x="243" y="382"/>
      <point x="255" y="382" type="curve" smooth="yes"/>
      <point x="269" y="382"/>
      <point x="313" y="384"/>
      <point x="313" y="288" type="curve" smooth="yes"/>
      <point x="313" y="24" type="line" smooth="yes"/>
      <point x="313" y="17"/>
      <point x="342" y="-9"/>
      <point x="348" y="-9" type="curve" smooth="yes"/>
      <point x="354" y="-9"/>
      <point x="403" y="0"/>
      <point x="439" y="7" type="curve"/>
      <point x="439" y="44" type="line"/>
      <point x="404" y="59" type="line"/>
      <point x="404" y="288" type="line" smooth="yes"/>
      <point x="404" y="418"/>
      <point x="350" y="456"/>
      <point x="260" y="456" type="curve" smooth="yes"/>
      <point x="254" y="456"/>
      <point x="192" y="412"/>
      <point x="157" y="386" type="curve"/>
      <point x="157" y="424" type="line" smooth="yes"/>
      <point x="157" y="430"/>
      <point x="131" y="456"/>
      <point x="125" y="456" type="curve" smooth="yes"/>
      <point x="118" y="456"/>
      <point x="69" y="447"/>
      <point x="34" y="441" type="curve"/>
      <point x="34" y="404" type="line"/>
      <point x="69" y="389" type="line"/>
      <point x="69" y="13" type="line" smooth="yes"/>
      <point x="69" y="-22"/>
      <point x="65" y="-86"/>
      <point x="44" y="-102" type="curve" smooth="yes"/>
      <point x="36" y="-108"/>
      <point x="-38" y="-112"/>
      <point x="-57" y="-113" type="curve"/>
      <point x="-57" y="-152" type="line"/>
      <point x="-22" y="-164"/>
      <point x="24" y="-181"/>
    </contour>
  </outline>
</glyph>
<glyph name="primemod" format="2">
  <advance width="117.0"/>
  <unicode hex="02B9"/>
  <outline>
    <contour>
      <point x="38.0" y="495.0" type="line"/>
      <point x="67.0" y="553.0"/>
      <point x="96.0" y="613.0"/>
      <point x="117.0" y="670.0" type="curve" smooth="yes"/>
      <point x="120.0" y="678.0"/>
      <point x="107.0" y="704.0"/>
      <point x="98.0" y="704.0" type="curve" smooth="yes"/>
      <point x="78.0" y="704.0"/>
      <point x="58.0" y="701.0"/>
      <point x="34.0" y="697.0" type="curve"/>
      <point x="0.0" y="507.0" type="line"/>
    </contour>
  </outline>
</glyph>
<glyph name="doubleprimemod" format="2">
  <advance width="257.0"/>
  <unicode hex="02BA"/>
  <outline>
    <contour>
      <point x="178.0" y="495.0" type="line"/>
      <point x="207.0" y="553.0"/>
      <point x="236.0" y="613.0"/>
      <point x="257.0" y="670.0" type="curve" smooth="yes"/>
      <point x="260.0" y="678.0"/>
      <point x="247.0" y="704.0"/>
      <point x="238.0" y="704.0" type="curve" smooth="yes"/>
      <point x="218.0" y="704.0"/>
      <point x="198.0" y="701.0"/>
      <point x="174.0" y="697.0" type="curve"/>
      <point x="140.0" y="507.0" type="line"/>
    </contour>
    <contour>
      <point x="38.0" y="495.0" type="line"/>
      <point x="67.0" y="553.0"/>
      <point x="96.0" y="613.0"/>
      <point x="117.0" y="670.0" type="curve" smooth="yes"/>
      <point x="120.0" y="678.0"/>
      <point x="107.0" y="704.0"/>
      <point x="98.0" y="704.0" type="curve" smooth="yes"/>
      <point x="78.0" y="704.0"/>
      <point x="58.0" y="701.0"/>
      <point x="34.0" y="697.0" type="curve"/>
      <point x="0.0" y="507.0" type="line"/>
    </contour>
  </outline>
</glyph>
<glyph name="circumflex" format="2">
  <advance width="262.0"/>
  <unicode hex="02C6"/>
  <outline>
    <contour>
      <point x="28.0" y="519.0" type="line"/>
      <point x="127.0" y="603.0" type="line"/>
      <point x="135.0" y="603.0" type="line"/>
      <point x="234.0" y="519.0" type="line"/>
      <point x="262.0" y="544.0" type="line"/>
      <point x="164.0" y="680.0" type="line"/>
      <point x="98.0" y="680.0" type="line"/>
      <point x="0.0" y="544.0" type="line"/>
    </contour>
  </outline>
</glyph>
<glyph name="caron" format="2">
  <advance width="262.0"/>
  <unicode hex="02C7"/>
  <outline>
    <contour>
      <point x="98.0" y="519.0" type="line"/>
      <point x="164.0" y="519.0" type="line"/>
      <point x="262.0" y="655.0" type="line"/>
      <point x="234.0" y="680.0" type="line"/>
      <point x="135.0" y="596.0" type="line"/>
      <point x="127.0" y="596.0" type="line"/>
      <point x="28.0" y="680.0" type="line"/>
      <point x="0.0" y="655.0" type="line"/>
    </contour>
  </outline>
</glyph>
<glyph name="breve" format="2">
  <advance width="292.0"/>
  <unicode hex="02D8"/>
  <outline>
    <contour>
      <point x="146.0" y="537.0" type="curve" smooth="yes"/>
      <point x="211.0" y="537.0"/>
      <point x="272.0" y="597.0"/>
      <point x="292.0" y="637.0" type="curve"/>
      <point x="264.0" y="662.0" type="line"/>
      <point x="231.0" y="628.0"/>
      <point x="194.0" y="602.0"/>
      <point x="146.0" y="602.0" type="curve" smooth="yes"/>
      <point x="98.0" y="602.0"/>
      <point x="61.0" y="628.0"/>
      <point x="28.0" y="662.0" type="curve"/>
      <point x="0.0" y="637.0" type="line"/>
      <point x="20.0" y="597.0"/>
      <point x="81.0" y="537.0"/>
    </contour>
  </outline>
</glyph>
<glyph name="dotaccent" format="2">
  <advance width="92"/>
  <unicode hex="02D9"/>
  <outline>
    <contour>
      <point x="7" y="537" type="line"/>
      <point x="87" y="537" type="line"/>
      <point x="92" y="624" type="line"/>
      <point x="77" y="646" type="line"/>
      <point x="0" y="641" type="line"/>
    </contour>
  </outline>
</glyph>
<glyph name="ring" format="2">
  <advance width="209"/>
  <unicode hex="02DA"/>
  <outline>
    <contour>
      <point x="102" y="518" type="curve" smooth="yes"/>
      <point x="168" y="518"/>
      <point x="209" y="556"/>
      <point x="209" y="620" type="curve" smooth="yes"/>
      <point x="209" y="696"/>
      <point x="170" y="725"/>
      <point x="104" y="725" type="curve" smooth="yes"/>
      <point x="38" y="725"/>
      <point x="0" y="687"/>
      <point x="0" y="623" type="curve" smooth="yes"/>
      <point x="0" y="547"/>
      <point x="36" y="518"/>
    </contour>
    <contour>
      <point x="102" y="559" type="curve" smooth="yes"/>
      <point x="72" y="559"/>
      <point x="61" y="571"/>
      <point x="61" y="624" type="curve" smooth="yes"/>
      <point x="61" y="645"/>
      <point x="63" y="662"/>
      <point x="65" y="673" type="curve"/>
      <point x="77" y="679"/>
      <point x="87" y="684"/>
      <point x="104" y="684" type="curve" smooth="yes"/>
      <point x="134" y="684"/>
      <point x="148" y="672"/>
      <point x="148" y="619" type="curve" smooth="yes"/>
      <point x="148" y="598"/>
      <point x="146" y="581"/>
      <point x="144" y="570" type="curve"/>
      <point x="132" y="564"/>
      <point x="119" y="559"/>
    </contour>
  </outline>
</glyph>
<glyph name="ogonek" format="2">
  <advance width="178"/>
  <unicode hex="02DB"/>
  <anchor x="149" y="0" name="_ogonek"/>
  <outline>
    <contour>
      <point x="79" y="-229" type="curve" smooth="yes"/>
      <point x="92" y="-229"/>
      <point x="163" y="-212"/>
      <point x="170" y="-210" type="curve"/>
      <point x="170" y="-177" type="line"/>
      <point x="101" y="-177" type="line" smooth="yes"/>
      <point x="83" y="-177"/>
      <point x="73" y="-156"/>
      <point x="73" y="-111" type="curve" smooth="yes"/>
      <point x="73" y="-99"/>
      <point x="133" y="-42"/>
      <point x="178" y="0" type="curve"/>
      <point x="156" y="24" type="line"/>
      <point x="118" y="-1"/>
      <point x="44" y="-48"/>
      <point x="6" y="-84" type="curve"/>
      <point x="1" y="-105"/>
      <point x="0" y="-119"/>
      <point x="0" y="-130" type="curve" smooth="yes"/>
      <point x="0" y="-177"/>
      <point x="41" y="-229"/>
    </contour>
  </outline>
</glyph>
<glyph name="tilde" format="2">
  <advance width="305"/>
  <unicode hex="02DC"/>
  <anchor x="153" y="448" name="_top"/>
  <outline>
    <contour>
      <point x="214" y="529" type="curve" smooth="yes"/>
      <point x="239" y="529"/>
      <point x="290" y="582"/>
      <point x="305" y="604" type="curve"/>
      <point x="271" y="633" type="line"/>
      <point x="260" y="620"/>
      <point x="232" y="596"/>
      <point x="222" y="596" type="curve" smooth="yes"/>
      <point x="202" y="596"/>
      <point x="129" y="637"/>
      <point x="89" y="637" type="curve" smooth="yes"/>
      <point x="64" y="637"/>
      <point x="17" y="581"/>
      <point x="0" y="559" type="curve"/>
      <point x="32" y="532" type="line"/>
      <point x="40" y="538"/>
      <point x="77" y="566"/>
      <point x="87" y="566" type="curve" smooth="yes"/>
      <point x="107" y="566"/>
      <point x="162" y="529"/>
    </contour>
  </outline>
</glyph>
<glyph name="hungarumlaut" format="2">
  <advance width="334"/>
  <unicode hex="02DD"/>
  <outline>
    <contour>
      <point x="23" y="520" type="line"/>
      <point x="175" y="610" type="line"/>
      <point x="175" y="635" type="line"/>
      <point x="126" y="680" type="line"/>
      <point x="0" y="549" type="line"/>
    </contour>
    <contour>
      <point x="182" y="520" type="line"/>
      <point x="334" y="610" type="line"/>
      <point x="334" y="635" type="line"/>
      <point x="285" y="680" type="line"/>
      <point x="159" y="549" type="line"/>
    </contour>
  </outline>
</glyph>
<glyph name="hookabovecomb" format="2">
  <unicode hex="0309"/>
  <anchor x="73.0" y="448.0" name="_top"/>
  <anchor x="73.0" y="703.0" name="top"/>
  <outline>
    <contour>
      <point x="44.0" y="510.0" type="line"/>
      <point x="110.0" y="542.0"/>
      <point x="149.0" y="586.0"/>
      <point x="152.0" y="608.0" type="curve"/>
      <point x="154.0" y="615.0"/>
      <point x="154.0" y="621.0"/>
      <point x="154.0" y="628.0" type="curve" smooth="yes"/>
      <point x="154.0" y="672.0"/>
      <point x="119.0" y="703.0"/>
      <point x="60.0" y="703.0" type="curve" smooth="yes"/>
      <point x="43.0" y="703.0"/>
      <point x="20.0" y="700.0"/>
      <point x="0.0" y="693.0" type="curve"/>
      <point x="11.0" y="643.0" type="line"/>
      <point x="20.0" y="645.0"/>
      <point x="28.0" y="646.0"/>
      <point x="36.0" y="646.0" type="curve" smooth="yes"/>
      <point x="64.0" y="646.0"/>
      <point x="78.0" y="633.0"/>
      <point x="78.0" y="615.0" type="curve" smooth="yes"/>
      <point x="78.0" y="595.0"/>
      <point x="60.0" y="568.0"/>
      <point x="24.0" y="544.0" type="curve"/>
    </contour>
  </outline>
</glyph>
<glyph name="dblgravecomb" format="2">
  <unicode hex="030F"/>
  <anchor x="201" y="448" name="_top"/>
  <anchor x="201" y="680" name="top"/>
  <outline>
    <contour>
      <point x="311" y="520" type="line"/>
      <point x="334" y="549" type="line"/>
      <point x="208" y="680" type="line"/>
      <point x="159" y="635" type="line"/>
      <point x="159" y="610" type="line"/>
    </contour>
    <contour>
      <point x="152" y="520" type="line"/>
      <point x="175" y="549" type="line"/>
      <point x="49" y="680" type="line"/>
      <point x="0" y="635" type="line"/>
      <point x="0" y="610" type="line"/>
    </contour>
  </outline>
</glyph>
